<svg width="76" height="101" viewBox="0 0 76 101" fill="none" xmlns="http://www.w3.org/2000/svg">
<path d="M49.8823 10.3332L45.1883 18.9598L33.4973 24.6391L33.263 31.3921L28.4422 33.9293L28.93 39.3551L24.1092 41.8923L24.597 47.3181L19.7762 49.8553L20.2641 55.2811L15.4433 57.8183L15.9311 63.2441L11.1103 65.7813L11.5981 71.2071L6.77732 73.7443L7.26516 79.1701L1.72218 83.0344L3.65435 85.8059L27.5433 98.8048L30.9198 98.922L31.1541 92.169L35.975 89.6318L35.4871 84.206L40.3079 81.6688L39.8201 76.243L44.6409 73.7058L44.1531 68.28L48.9739 65.7429L48.486 60.317L53.3068 57.7799L52.819 52.354L57.6398 49.8169L57.152 44.391L62.6949 40.5267L61.1142 27.6257L65.8083 18.9992L49.8823 10.3332Z" fill="#92D3F5"/>
<path d="M69.0586 13.027L53.1326 4.36108C52.3996 3.96224 51.4821 4.23311 51.0833 4.96608L47.8335 10.9383C47.4347 11.6713 47.7056 12.5888 48.4385 12.9877L64.3645 21.6536C65.0975 22.0524 66.015 21.7816 66.4139 21.0486L69.6636 15.0763C70.0624 14.3434 69.7915 13.4259 69.0586 13.027Z" fill="#9B9B9A"/>
<path d="M69.6636 15.0764L66.0527 21.7122L59.4169 18.1014L63.0277 11.4656L69.6636 15.0764Z" fill="#3F3F3F"/>
<path d="M64.3644 21.6535L60.0314 29.6165L62.3929 39.5021L57.816 44.7522L57.6402 49.8169L53.483 52.7152L53.3073 57.7799L49.15 60.6782L48.9743 65.7429L44.8171 68.6412L44.6413 73.7059L40.4841 76.6042L40.3084 81.6689L36.1511 84.5672L35.9754 89.6319L31.8182 92.5302L29.5345 99.8881L23.5623 96.6384C23.1867 96.434 26.2166 98.0827 27.6609 95.4284C29.1052 92.7741 26.4509 91.3298 27.1731 90.0026C27.8952 88.6754 30.5496 90.1197 31.9939 87.4654C33.4382 84.8111 30.7839 83.3668 31.506 82.0396C32.2282 80.7124 34.8825 82.1567 36.3269 79.5024C37.7712 76.8481 35.1169 75.4038 35.839 74.0766C36.5612 72.7494 39.2155 74.1938 40.6598 71.5394C42.1042 68.8851 39.4498 67.4408 40.172 66.1136C40.8941 64.7864 43.5485 66.2308 44.9928 63.5764C46.4371 60.9221 43.7828 59.4778 44.505 58.1506C45.2271 56.8234 47.8814 58.2678 49.3258 55.6134C50.7701 52.9591 48.1158 51.5148 48.8379 50.1876C49.5601 48.8604 52.2144 50.3048 53.6587 47.6504C55.1031 44.9961 52.4487 43.5518 53.1709 42.2246C53.8931 40.8974 57.5721 42.0393 59.0164 39.3849C60.0996 37.3942 55.6889 28.1136 57.1332 25.4593L60.3829 19.4871L64.3644 21.6535Z" fill="#61B2E4"/>
<path d="M47.4724 11.6019L66.0528 21.7121M52.4104 5.6882L68.3364 14.3541M60.8709 24.9129L59.7876 26.9036C61.4855 36.4281 63.4176 39.1996 61.9733 41.8539C60.529 44.5083 57.8747 43.0639 57.1525 44.3911C56.4303 45.7183 59.0847 47.1626 57.6403 49.8169C56.196 52.4713 53.5417 51.0269 52.8195 52.3541C52.0974 53.6813 54.7517 55.1256 53.3074 57.7799C51.8631 60.4343 49.2087 58.9899 48.4866 60.3171C47.7644 61.6443 50.4187 63.0886 48.9744 65.7429C47.5301 68.3972 44.8758 66.9529 44.1536 68.2801C43.4314 69.6073 46.0858 71.0516 44.6414 73.7059C43.1971 76.3602 40.5428 74.9159 39.8206 76.2431C39.0985 77.5703 41.7528 79.0146 40.3085 81.6689C38.8641 84.3232 36.2098 82.8789 35.4877 84.2061C34.7655 85.5332 37.4198 86.9776 35.9755 89.6319C34.5312 92.2862 31.8768 90.8419 31.1547 92.1691C30.4325 93.4962 33.0869 94.9406 31.6425 97.5949C30.1982 100.249 27.9195 99.0093 27.5439 98.8049L3.65489 85.806C3.2793 85.6016 1.00056 84.3617 2.44488 81.7073C3.88921 79.053 6.54354 80.4973 7.2657 79.1702C7.98786 77.843 5.33353 76.3987 6.77785 73.7443C8.22218 71.09 10.8765 72.5343 11.5987 71.2072C12.3208 69.88 9.6665 68.4357 11.1108 65.7814C12.5551 63.127 15.2095 64.5713 15.9316 63.2442C16.6538 61.917 13.9995 60.4727 15.4438 57.8184C16.8881 55.164 19.5424 56.6083 20.2646 55.2812C20.9868 53.954 18.3324 52.5097 19.7768 49.8554C21.2211 47.201 23.8754 48.6454 24.5976 47.3182C25.3197 45.991 22.6654 44.5467 24.1097 41.8924C25.5541 39.238 28.2084 40.6824 28.9305 39.3552C29.6527 38.028 26.9984 36.5837 28.4427 33.9294C29.887 31.275 32.5414 32.7194 33.2635 31.3922C33.9857 30.065 31.3313 28.6207 32.7757 25.9664C34.22 23.312 37.5965 23.4292 46.516 19.682L47.5992 17.6913M39.2358 34.6419L51.1803 41.1414M34.9028 42.6049L46.8473 49.1044M30.5698 50.5679L42.5143 57.0674M26.2369 58.5309L38.1813 65.0304M21.9039 66.4939L33.8484 72.9934M17.5709 74.4569L29.5154 80.9564M13.2379 82.4199L25.1824 88.9194" stroke="black" stroke-width="3.02184" stroke-linecap="round" stroke-linejoin="round"/>
</svg>
