<svg width="138" height="103" viewBox="0 0 138 103" fill="none" xmlns="http://www.w3.org/2000/svg">
<path d="M132.771 55.7816C132.771 55.8226 132.727 55.8635 132.638 55.9018C131.931 56.2191 128.454 56.4598 124.27 56.4598C120.084 56.4598 116.607 56.2191 115.901 55.9018C115.813 55.8635 115.767 55.8226 115.767 55.7816C115.767 55.4056 119.575 55.1035 124.27 55.1035C128.963 55.1035 132.771 55.4056 132.771 55.7816Z" fill="#050E21"/>
<path d="M114.555 38.3392C120.682 44.6153 125.165 55.5217 125.547 64.269C125.553 64.4047 125.348 64.4615 125.294 64.3271C122.503 57.846 120.271 51.2678 117.334 44.8682C116.477 42.985 115.285 40.3211 114.348 38.4947C114.281 38.3729 114.453 38.2352 114.555 38.3392Z" fill="#1E4963"/>
<path d="M137.263 31.4174C134.669 36.6816 131.985 41.7698 130.233 47.3308C128.373 52.8618 127.744 58.7245 125.893 64.3212C125.701 64.8891 124.824 64.7217 124.878 64.1083C125.548 54.9255 126.418 46.3107 131.451 38.2765C133.045 35.7222 134.89 33.3481 136.997 31.2259C137.121 31.0988 137.352 31.2526 137.263 31.4174Z" fill="#1E4963"/>
<path d="M125.892 64.4034C123.471 60.3617 124.445 54.9179 125.128 50.5154C125.505 48.2853 125.797 46.0683 126.082 43.8243C126.395 41.5635 126.579 39.3089 126.921 37.0398C126.93 36.9559 127.007 36.8938 127.091 36.907C127.158 36.917 127.207 36.9691 127.216 37.0322C128.138 42.6767 127.942 48.5444 127.25 54.2104C127.016 57.4789 126.513 60.7863 126.863 64.0366C126.95 64.5886 126.193 64.8825 125.892 64.4034Z" fill="#235473"/>
<path d="M123.748 64.5045C122.719 60.9541 123.247 56.9012 125.301 53.7906C127.251 50.7077 130.968 49.1421 133.508 47.0183C135.155 45.6231 136.554 43.8413 137.247 41.6577C137.271 41.5791 137.354 41.5345 137.433 41.5589C137.497 41.5788 137.538 41.6395 137.538 41.7032C137.51 44.1338 136.321 46.4418 134.738 48.2639C131.3 51.9867 127.878 52.9121 126.223 58.0244C125.478 60.0829 125.134 62.2384 124.78 64.4415C124.696 64.9876 123.898 65.0387 123.748 64.5045Z" fill="#235473"/>
<path d="M117.397 25.5817C118.491 32.1863 120.304 38.6166 122.229 45.0059C123.712 49.7498 125.703 54.2577 127.441 58.9075C128.02 60.4661 128.588 62.0396 129.054 63.684C129.155 64.037 128.95 64.4051 128.597 64.5048C128.339 64.5777 128.074 64.4876 127.911 64.2961C126.792 62.9798 125.837 61.5589 124.97 60.0867C120.671 52.6832 118.97 44.1132 117.664 35.7463C117.212 32.389 116.89 28.9931 117.031 25.6012C117.035 25.4998 117.121 25.4212 117.222 25.4252C117.311 25.4295 117.383 25.4975 117.397 25.5817Z" fill="#235473"/>
<path d="M127.549 22.6359C125.954 29.4521 125.082 36.3855 125.059 43.3619C124.992 50.3567 126.053 57.1452 126.599 64.1341C126.647 64.7102 125.812 64.9295 125.589 64.3728C121.756 54.5731 122.163 42.8937 124.193 32.7133C124.934 29.2369 125.964 25.8261 127.319 22.5619C127.345 22.5005 127.416 22.4711 127.477 22.4969C127.533 22.52 127.562 22.5794 127.549 22.6359Z" fill="#235473"/>
<path d="M123.172 59.1287C121.607 55.5126 124.173 50.7224 127.443 48.9443C127.58 48.8637 127.756 49.0103 127.701 49.1595C127.428 50.1212 127.102 50.9691 126.85 51.8218C126.303 53.4864 126.03 55.0956 125.638 56.7783C125.42 57.5034 124.518 60.3614 123.369 59.4469C123.272 59.3608 123.219 59.2429 123.172 59.1287Z" fill="#2A658A"/>
<path d="M124.351 64.0047C122.556 61.2542 121.162 58.3057 119.17 55.6889C117.143 52.8724 114.495 49.9714 113.629 46.417C113.572 46.1958 113.869 46.0248 114.028 46.1932C115.353 47.4438 116.675 48.5092 118.048 49.6086C121.565 52.4498 125.69 55.9841 126.165 60.829C126.275 61.8247 126.205 62.827 125.944 63.7964C125.822 64.2582 125.348 64.5332 124.886 64.4108C124.649 64.3497 124.476 64.1955 124.351 64.0047Z" fill="#2A658A"/>
<path d="M132.771 55.7817L131.875 62.2325C131.391 65.7202 128.413 68.3148 124.892 68.3148H123.648C120.127 68.3148 117.146 65.7202 116.663 62.2325L115.767 55.7817C115.767 55.8227 115.813 55.8636 115.9 55.9019C116.606 56.2192 120.084 56.4599 124.27 56.4599C128.454 56.4599 131.931 56.2192 132.637 55.9019C132.727 55.8636 132.771 55.8227 132.771 55.7817Z" fill="#E39898"/>
<path d="M132.809 58.58C127.247 60.2284 121.304 60.2284 115.742 58.58C115.468 58.4987 115.246 58.2072 115.246 57.9352C115.246 57.6628 115.468 57.5126 115.742 57.5938C121.304 59.2422 127.247 59.2422 132.809 57.5938C133.084 57.5126 133.306 57.6625 133.306 57.9352C133.306 58.2072 133.084 58.4984 132.809 58.58Z" fill="white"/>
<path d="M116.366 57.2097L116.333 57.7611L116.277 58.7317L116.247 59.2303L114.385 90.7726C114.296 90.8221 114.204 90.8749 114.114 90.9244L116.026 58.6591L116.069 57.9361L116.082 57.6885L116.112 57.1866C116.115 57.114 116.184 57.0645 116.25 57.0678C116.32 57.0744 116.373 57.1371 116.366 57.2097Z" fill="white"/>
<path d="M133.114 73.4762V73.4828C133.038 73.5984 132.962 73.7073 132.883 73.8229L132.322 59.0223L132.309 58.7219L132.272 57.7447L132.249 57.1174C132.246 57.0481 132.295 56.9853 132.365 56.982C132.434 56.9754 132.497 57.025 132.507 57.0943L132.523 57.5598L132.527 57.672L132.563 58.6493L133.114 73.4762Z" fill="white"/>
<path d="M124.397 57.9692V83.6052C124.312 83.6844 124.226 83.7604 124.14 83.833V57.9692C124.14 57.9032 124.199 57.8438 124.269 57.8438C124.338 57.8437 124.397 57.9032 124.397 57.9692Z" fill="white"/>
<path d="M91.5561 68.5007V99.0097C91.117 99.1021 90.6779 99.1913 90.2355 99.2771V68.5007H91.5561Z" fill="#755350"/>
<path d="M62.6359 69.3264H61.3153V102.031H62.6359V69.3264Z" fill="#755350"/>
<path d="M99.1901 61.6636V97.0983C98.883 97.1875 98.576 97.2766 98.269 97.3625C98.094 97.412 97.919 97.4615 97.7407 97.511V61.6636H99.1901Z" fill="#755350"/>
<path d="M71.4735 63.5503H70.0238V100.27H71.4735V63.5503Z" fill="#755350"/>
<path d="M94.9901 35.8859L78.3358 35.7624C74.3796 35.733 71.2452 38.571 70.8516 42.5387L69.0989 60.0851L100.18 60.9428L101.897 43.6345C102.292 39.6526 98.9604 35.9153 94.9901 35.8859Z" fill="#755350"/>
<path d="M59.3853 67.3461L69.1444 59.6111L100.22 60.5183L91.1121 68.7175L59.3853 67.3461Z" fill="#805753"/>
<path d="M100.221 60.5193C100.134 62.1152 99.4369 63.6164 98.2735 64.7125L92.0588 70.567C91.5444 71.0517 90.8557 71.3072 90.1498 71.2758L62.1285 70.0266C60.6653 69.9612 59.4847 68.808 59.385 67.3467L91.1122 68.7169L100.221 60.5193Z" fill="#593A37"/>
<path d="M51.098 43.3572L56.1766 48.8786C60.0149 52.1444 63.6373 54.8315 67.7417 51.1414C68.2666 50.6697 68.9844 49.2025 69.0633 48.1463C69.3017 44.965 67.123 42.1551 64.4376 40.4328L58.1225 35.4967C56.5708 34.2841 54.3407 34.5017 53.0531 35.9916L50.8662 38.5215C49.642 39.9375 49.744 42.065 51.098 43.3572Z" fill="#E8A261"/>
<path d="M59.6152 72.4559C58.7635 80.1253 56.7925 94.5659 55.7261 102.123C49.0274 102.133 42.8933 101.819 37.2907 101.212C36.878 101.169 36.4686 101.123 36.0625 101.073C40.3874 89.1614 49.5688 63.0203 49.5688 63.0203C52.2001 62.7958 54.7687 63.7598 57.291 63.9249C58.0437 63.9744 58.7866 64.0438 59.5195 64.1296C59.6086 64.1362 59.9256 67.4938 60.0147 67.5037C60.0676 67.9923 59.9058 69.8246 59.6152 72.4559Z" fill="#538DB0"/>
<path d="M72.3677 66.8629L51.2686 72.4823L49.4673 65.7192C48.8377 63.3554 50.1904 60.8047 52.7186 59.5877L78.4738 47.1907L80.5181 54.8494C81.8723 59.9238 78.2229 65.3032 72.3677 66.8629Z" fill="#538DB0"/>
<path d="M84.2793 67.0556L80.3275 68.1087L67.8743 71.4234L61.9613 72.9982L60.1587 66.2368C59.5314 63.8729 60.994 61.2912 63.8016 59.9065L91.1246 47.0935L93.0415 54.8764C94.3984 59.9508 90.4729 65.4048 84.2793 67.0556Z" fill="#538DB0"/>
<path d="M63.1547 52.4461C60.1407 51.9179 57.5372 48.5794 58.2368 44.5905C59.5894 36.8799 60.7657 30.5213 63.8024 23.6453C64.4812 22.1085 68.4162 21.1392 68.4162 21.1392L67.9266 49.382C67.6367 51.9175 65.1732 52.8 63.1547 52.4461Z" fill="#E8A261"/>
<path d="M92.6033 24.8188C90.0282 33.6173 91.9463 44.0202 91.2497 54.4397C86.654 56.5691 82.58 53.4658 76.5944 53.2346C72.6459 53.0828 70.348 52.9078 66.2641 53.8421C64.6893 49.154 66.3797 45.0371 67.3437 40.2334C67.3602 40.1608 67.3767 40.0849 67.3899 40.0089C67.5517 39.1704 67.6904 38.3087 67.7828 37.4206C67.796 37.3215 67.8059 37.2192 67.8158 37.1201C68.1261 33.8583 67.8092 30.2134 65.8514 25.8654C65.1548 24.317 64.4153 22.9766 64.4153 22.9766C65.518 21.1872 69.8759 19.652 71.8271 19.1964C71.8469 19.1898 71.8667 19.1832 71.8865 19.1799C71.8964 19.1766 71.903 19.1766 71.9129 19.1733C76.1355 18.206 80.5232 18.163 84.759 19.0544C84.8151 19.0643 84.8712 19.0743 84.9274 19.0875C84.9769 19.0974 85.0231 19.1073 85.0726 19.1172C87.0733 19.5563 89.4669 20.3321 91.319 21.2763C93.1877 22.2305 92.7618 24.2807 92.6033 24.8188Z" fill="#D44C4C"/>
<path d="M52.7003 33.2407L48.9027 38.2207L51.5779 40.2608L55.3756 35.2808L52.7003 33.2407Z" fill="#733929"/>
<path d="M51.3168 31.1972C51.2811 30.8456 51.2299 30.4949 51.154 30.1493C51.0883 29.8016 50.9863 29.4613 50.8833 29.1232C50.777 28.7854 50.6542 28.4523 50.5046 28.1291C50.3491 27.8009 50.1939 27.5025 49.9612 27.1733V27.173C49.8631 26.9683 49.6535 26.8534 49.4399 26.8656L49.3996 26.8683C48.7994 26.9036 48.2015 26.962 47.6043 27.031C47.0067 27.0964 46.4104 27.1763 45.8185 27.3044C45.5692 27.3582 45.1239 27.4767 45.2147 27.6504C45.3144 27.8412 45.6336 28.0717 45.9423 28.1116C46.5428 28.1895 47.1051 28.214 47.705 28.174C48.3052 28.1377 48.9041 28.0908 49.5013 28.0208L48.9397 27.7161C49.0051 27.9815 49.0932 28.3038 49.1593 28.6025C49.2293 28.9069 49.2986 29.211 49.3597 29.5171C49.4168 29.8244 49.466 30.1321 49.5099 30.4408C49.5535 30.7495 49.5861 31.0592 49.6238 31.3685L49.6261 31.3867C49.6829 31.8532 50.1071 32.1853 50.5736 32.1285C51.0338 32.0721 51.3633 31.6567 51.3168 31.1972Z" fill="#F79F8C"/>
<path d="M50.7988 32.1035C50.7137 31.8143 50.6225 31.5268 50.5202 31.2412C50.4142 30.9563 50.3049 30.673 50.1749 30.394C50.0471 30.115 49.9071 29.8397 49.743 29.5706C49.6608 29.4359 49.5746 29.3029 49.4782 29.1712C49.4307 29.1055 49.3799 29.0398 49.3264 28.9741L49.2409 28.874C49.2069 28.8367 49.1864 28.8133 49.1286 28.7555L49.1283 28.7552C49.0203 28.6419 48.8747 28.5861 48.7298 28.5884L48.7225 28.5888L45.7783 28.6492H45.7743C45.4719 28.6555 45.2319 28.9054 45.2382 29.2078C45.2395 29.2768 45.2547 29.3442 45.2791 29.4046C45.3603 29.6027 45.4402 29.7766 45.528 29.9599C45.6155 30.1405 45.707 30.3194 45.808 30.4974C45.909 30.6753 46.0147 30.8519 46.1395 31.0279C46.2649 31.2039 46.4 31.3792 46.5855 31.5528C46.8077 31.7605 47.0365 31.8883 47.294 31.7265C47.6935 31.4759 47.1345 30.5287 47.0398 30.3947C46.9437 30.2603 46.8536 30.1098 46.7667 29.9566C46.6796 29.8034 46.5977 29.6433 46.5191 29.4808C46.4419 29.3207 46.3636 29.1484 46.3002 28.9942L45.8007 29.7496L48.745 29.6892L48.3392 29.5228C48.33 29.5168 48.3541 29.5485 48.3647 29.5667L48.4072 29.6367C48.4363 29.6869 48.4647 29.7387 48.4928 29.7935C48.5485 29.9018 48.6007 30.0173 48.6496 30.1349C48.7476 30.3703 48.8298 30.6192 48.9015 30.8721C48.9754 31.124 49.0322 31.3848 49.086 31.645C49.1369 31.9071 49.1781 32.1722 49.2141 32.438L49.2145 32.4413C49.2749 32.886 49.6839 33.1973 50.1283 33.1369C50.5727 33.0768 50.8843 32.6674 50.8239 32.223C50.819 32.1841 50.8094 32.1412 50.7988 32.1035Z" fill="#F79F8C"/>
<path d="M50.1437 33.5054C50.0688 33.235 49.9902 32.9659 49.8955 32.6972C49.7997 32.4285 49.6918 32.161 49.561 31.8963C49.4319 31.6318 49.2761 31.3693 49.0833 31.1161C48.9892 30.9897 48.8746 30.8655 48.7495 30.7467C48.6825 30.6873 48.6155 30.6291 48.5346 30.5727C48.4983 30.545 48.4488 30.5159 48.4058 30.4892C48.3458 30.4575 48.3276 30.4416 48.2011 30.3921C48.1516 30.3726 48.1008 30.3617 48.0503 30.3584L48.0377 30.3578L45.695 30.2109H45.693C45.3748 30.191 45.1011 30.4327 45.0809 30.7506C45.0766 30.8193 45.0852 30.8883 45.1037 30.9507C45.1453 31.165 46.4451 33.5308 46.4451 33.5308C46.9727 33.4905 46.9605 32.9108 46.9245 32.7636L46.9195 32.7434C46.8294 32.3779 46.7135 32.0286 46.596 31.6734C46.5369 31.4964 46.5748 31.5971 46.5111 31.4212C46.4487 31.2469 46.5821 31.5816 46.5111 31.4212L47.8023 31.478C47.7356 31.4535 47.7723 31.4717 47.7673 31.4737L47.7944 31.505C47.8155 31.5281 47.8403 31.5615 47.8647 31.5928C47.9133 31.6645 47.9641 31.7404 48.0077 31.8329C48.0972 32.0118 48.1751 32.2132 48.2355 32.4291C48.2972 32.6437 48.3448 32.8695 48.3831 33.1C48.4207 33.3311 48.4461 33.5678 48.4689 33.8048L48.4699 33.8151C48.5148 34.2849 48.9324 34.6295 49.4022 34.5843C49.872 34.5394 50.2164 34.1218 50.1715 33.652C50.1662 33.6028 50.156 33.551 50.1437 33.5054Z" fill="#F79F8C"/>
<path d="M49.8548 34.5502C49.7221 34.0784 49.5752 33.6076 49.384 33.1342C49.2853 32.8965 49.182 32.6604 49.0417 32.4174C48.9717 32.2959 48.8944 32.1734 48.7954 32.0457C48.7462 31.9823 48.6887 31.9156 48.6194 31.8473C48.5775 31.8093 48.5474 31.7786 48.491 31.737C48.4659 31.7182 48.4408 31.6997 48.4012 31.6759C48.3801 31.6637 48.3718 31.6578 48.3398 31.6416C48.3015 31.6251 48.3097 31.6221 48.2077 31.5888L48.181 31.5808C48.1285 31.5656 48.0737 31.5614 48.0225 31.566L45.4553 31.8086L45.3519 31.8182C45.1449 31.8377 44.9931 32.0212 45.0125 32.2282C45.0168 32.2731 45.0294 32.3171 45.0479 32.3557C45.099 32.5135 45.1509 32.6561 45.2067 32.8044C45.2621 32.9509 45.3206 33.0965 45.3817 33.2411C45.5055 33.5307 45.6411 33.8173 45.8095 34.0989C45.9023 34.2537 45.9383 34.3263 46.1047 34.256C46.5784 34.0556 46.1823 33.2633 46.102 32.9836C46.0621 32.8436 46.0248 32.702 45.9904 32.56C45.9564 32.4194 45.9231 32.2718 45.897 32.1375L45.4899 32.6845L48.0684 32.7218L47.8832 32.699C47.795 32.6703 47.8158 32.6749 47.7904 32.6647C47.7716 32.6545 47.7746 32.6581 47.766 32.6532C47.7515 32.6446 47.7488 32.6446 47.7458 32.6442C47.7359 32.6376 47.7432 32.6518 47.7432 32.6541L47.7798 32.7314C47.8099 32.7968 47.8419 32.8796 47.871 32.9681C47.9304 33.1447 47.9763 33.3498 48.0169 33.5545C48.0955 33.9698 48.1437 34.4082 48.1783 34.8496C48.2153 35.3204 48.627 35.672 49.0981 35.635C49.5689 35.5981 49.9205 35.1864 49.8835 34.7153C49.8802 34.6601 49.869 34.6017 49.8548 34.5502Z" fill="#F79F8C"/>
<path d="M48.8581 38.1764C49.1837 38.4306 49.9357 38.049 50.7373 37.284C51.019 37.0163 51.3039 36.6996 51.5809 36.3484C52.1741 35.592 52.5984 34.8277 52.777 34.2407C52.9203 33.7765 52.9107 33.4242 52.7169 33.2724C52.5512 33.1423 52.2735 33.1783 51.9328 33.3473C51.3785 33.625 50.6555 34.2579 49.9942 35.1001C49.6878 35.489 49.4266 35.8796 49.2233 36.2487C48.7155 37.1592 48.5455 37.9311 48.8581 38.1764Z" fill="#050E21"/>
<path d="M48.4865 35.7464L49.2231 36.2489L50.7375 37.2839C51.0191 37.0162 51.304 36.6995 51.581 36.3483C52.1743 35.5919 52.5985 34.8276 52.7771 34.2406L52.682 34.1653C52.3849 33.9332 52.1323 33.6589 51.9329 33.3476C51.6942 32.9666 51.5321 32.5367 51.4707 32.0821C51.4004 31.579 51.3215 30.8731 51.131 30.0144C50.9669 29.2788 48.3795 30.9708 48.3795 30.9708L47.8856 34.3763C47.8077 34.9095 48.0418 35.4407 48.4865 35.7464Z" fill="#F79F8C"/>
<path d="M46.2667 29.3135C47.2337 29.4 48.2617 29.3145 49.1828 29.7776C50.3017 30.2676 50.2968 31.3482 50.1053 32.335C50.063 32.7546 50.0772 32.9497 50.3073 33.2521C50.9802 34.1914 49.6269 35.2165 48.9062 34.3093C48.6672 33.9927 48.4872 33.5763 48.4314 33.158C48.3334 32.5014 48.5724 31.8322 48.6916 31.3181C48.7041 31.2009 48.7329 31.1639 48.6972 31.0996C48.2508 30.6311 47.3941 30.4531 46.7632 30.1755C46.4588 30.054 46.0554 29.8123 46.058 29.4135C46.0633 29.3078 46.1805 29.2669 46.2667 29.3135Z" fill="#F79F8C"/>
<path d="M48.7697 34.3847C48.7231 34.3847 48.6782 34.3606 48.6538 34.3173C48.1107 33.3602 48.2239 32.6303 48.315 32.0433C48.3636 31.729 48.4058 31.4579 48.321 31.2384C48.11 30.6936 47.0037 30.3863 46.5379 30.2793C45.9604 30.1469 45.8746 29.3324 45.871 29.2978C45.8673 29.2595 45.8802 29.2212 45.9069 29.1934C45.9337 29.1654 45.971 29.1472 46.0096 29.1522C46.0813 29.1555 47.7762 29.236 48.9021 29.4955C50.1018 29.7719 50.3022 30.859 50.3101 30.9053C50.3227 30.9776 50.2741 31.0459 50.2018 31.0588C50.1289 31.071 50.0609 31.0231 50.048 30.9508C50.0411 30.9119 49.8661 29.9908 48.8423 29.7547C47.9413 29.5474 46.6244 29.4543 46.1635 29.4269C46.21 29.6273 46.3269 29.9581 46.5973 30.0201C47.2275 30.1647 48.3217 30.5025 48.5693 31.1423C48.6799 31.4282 48.6326 31.732 48.5782 32.0839C48.4937 32.63 48.3883 33.3094 48.8855 34.1859C48.9219 34.2497 48.8994 34.3309 48.8354 34.3672C48.8146 34.3794 48.7918 34.3847 48.7697 34.3847Z" fill="#CF5757"/>
<path d="M46.9126 32.1287C46.8661 32.1287 46.8218 32.1042 46.7974 32.0623C46.4758 31.506 45.4326 29.8566 45.422 29.8401C45.3827 29.778 45.4012 29.6958 45.4633 29.6565C45.5253 29.6169 45.6072 29.6357 45.6468 29.6978C45.6567 29.7133 46.5901 31.1884 46.9671 31.8253C47.1097 31.7467 47.3431 31.5569 47.2652 31.1818C47.1454 30.6027 46.9205 30.364 46.9182 30.3617C46.8677 30.3089 46.8684 30.225 46.9205 30.1739C46.9727 30.1227 47.0562 30.1233 47.1074 30.1749C47.119 30.1864 47.3877 30.4631 47.5254 31.128C47.6482 31.7203 47.2058 32.0372 46.9549 32.1217C46.941 32.1264 46.9268 32.1287 46.9126 32.1287Z" fill="#CF5757"/>
<path d="M46.5471 33.7468C46.5006 33.7468 46.4563 33.7224 46.4319 33.6804C46.1084 33.1205 45.1694 31.4202 45.1599 31.4031C45.1242 31.3387 45.1476 31.2578 45.212 31.2225C45.2761 31.1868 45.3573 31.2103 45.3926 31.2746C45.4015 31.2908 46.2375 32.8042 46.6023 33.4431C46.7449 33.3638 46.977 33.1743 46.8994 32.7999C46.7749 32.1994 46.6416 31.9429 46.6402 31.9406C46.6059 31.8758 46.6303 31.7953 46.6951 31.761C46.7601 31.7263 46.84 31.7507 46.8746 31.8151C46.8809 31.8267 47.0259 32.101 47.1596 32.7464C47.2824 33.3391 46.84 33.6557 46.5891 33.7405C46.5755 33.7445 46.5613 33.7468 46.5471 33.7468Z" fill="#CF5757"/>
<path d="M82.1392 4.02493C81.4756 4.82455 80.437 5.0573 79.8196 4.54491C79.2019 4.03252 79.2392 2.96879 79.9028 2.16917C80.5664 1.36955 81.605 1.1368 82.2224 1.64919C82.8401 2.16157 82.8028 3.22531 82.1392 4.02493Z" fill="white"/>
<path d="M83.2179 7.8337C81.7293 8.97238 79.8775 9.05228 79.0821 8.01198C78.2868 6.97201 78.8487 5.20605 80.3377 4.06737C81.8263 2.92869 83.6781 2.8488 84.4735 3.88876C85.2688 4.92906 84.7065 6.69535 83.2179 7.8337Z" fill="white"/>
<path d="M84.7592 19.0544L77.9449 30.9134L71.8273 19.1964C71.8471 19.1898 71.8669 19.1832 71.8867 19.1799C71.8966 19.1766 71.9032 19.1766 71.9131 19.1733C76.1357 18.206 80.5237 18.163 84.7592 19.0544Z" fill="white"/>
<path d="M84.0735 10.9144C82.5849 12.053 80.8853 12.3317 80.2775 11.537C79.6697 10.7423 79.1441 9.71625 80.6331 8.5779C82.122 7.43955 85.061 6.61946 85.6688 7.41413C86.2766 8.20846 85.5625 9.77567 84.0735 10.9144Z" fill="white"/>
<path d="M86.2765 13.9977C85.9969 15.7313 83.9721 16.8468 81.7545 16.489C79.5369 16.1311 77.9657 14.4354 78.2457 12.7018C78.5253 10.9682 78.1126 9.06031 80.3302 9.41819C82.5478 9.77607 86.5565 12.2637 86.2765 13.9977Z" fill="white"/>
<path d="M76.4015 6.89537C76.8083 7.89374 75.7564 9.2655 74.0525 9.9598C72.3486 10.6541 70.6375 10.4075 70.2311 9.40945C69.8243 8.41108 70.8759 7.03932 72.5801 6.34502C74.284 5.65071 75.9948 5.89733 76.4015 6.89537Z" fill="white"/>
<path d="M81.4404 20.3443C81.1997 22.068 79.1456 23.1004 77.0656 23.1004C75.0748 23.1004 74.1504 21.7428 73.9196 20.4169L73.913 20.2882C73.9164 20.2882 73.9164 20.2882 73.913 20.2849L73.9064 20.0802L73.7909 17.0824L73.6555 13.5796L73.6456 13.3055L77.5678 12.8896L81.1433 12.5132L81.4404 20.3443Z" fill="#F79F8C"/>
<path d="M79.6675 13.6754C79.6774 13.7976 78.994 16.3562 75.9699 16.8877C75.1148 17.0396 74.3885 17.0924 73.7909 17.0825L73.6555 13.5797L73.6456 13.3056L77.5678 12.8896L79.6675 13.6754Z" fill="#050E21"/>
<path d="M77.0297 15.9832L76.1515 16.0393C73.9626 16.178 72.0775 14.59 71.9454 12.4935L71.6351 7.61064L71.5129 5.71229L71.4535 4.78127L80.6646 4.1936L81.1301 11.5196C81.2754 13.8306 79.4398 15.8313 77.0297 15.9832Z" fill="#F79F8C"/>
<path d="M78.299 4.50026C78.299 4.60261 77.5568 5.06548 79.8091 7.09754C81.1376 8.29597 80.7035 10.2805 80.7035 10.2805L81.8025 6.87931L81.063 4.19355L79.9603 3.55406L79.2003 3.34937L78.299 4.50026Z" fill="white"/>
<path d="M74.702 6.71556C74.702 6.71556 73.3253 7.33954 71.635 7.61026L71.5128 5.71191L73.5333 5.73502L74.702 6.71556Z" fill="#050E21"/>
<path d="M79.1565 8.74784C78.3797 8.54216 77.7059 8.04562 76.9607 7.78546C76.6543 7.67585 76.7105 7.19714 77.0274 7.15587C78.0046 7.04527 78.968 7.4672 79.5471 8.2338C79.729 8.49297 79.4497 8.84854 79.1565 8.74784Z" fill="#050E21"/>
<path d="M70.8731 8.04276C71.5136 7.32666 72.5087 6.98628 73.4734 7.17711C73.6493 7.22201 73.7553 7.40095 73.7107 7.57692C73.6814 7.69214 73.5942 7.77765 73.4886 7.81C73.1145 7.92225 72.754 8.05332 72.3746 8.20816C71.992 8.36564 71.6054 8.53831 71.1844 8.59179C70.89 8.63966 70.6843 8.26693 70.8731 8.04276Z" fill="#050E21"/>
<path d="M80.443 10.6714C80.1984 11.7338 80.5292 12.7174 81.1823 12.8676C81.8353 13.0181 82.5629 12.2783 82.8076 11.2158C83.0522 10.1534 82.7214 9.16992 82.0684 9.0197C81.4153 8.86915 80.6877 9.60868 80.443 10.6714Z" fill="#F79F8C"/>
<path d="M78.662 11.0933C78.6174 11.0933 78.5738 11.0712 78.5481 11.0309C78.5084 10.9681 78.5269 10.8849 78.59 10.845L81.1859 9.20053C81.248 9.16091 81.3312 9.1794 81.3718 9.24213C81.4114 9.30486 81.3929 9.38806 81.3299 9.42801L78.7339 11.0725C78.7118 11.0863 78.687 11.0933 78.662 11.0933Z" fill="#050E21"/>
<path d="M73.2923 1.64284C69.9222 2.53985 67.5514 4.4174 68.6112 6.02258C69.4081 7.22927 72.2709 7.41812 75.6509 6.66472C79.03 5.92387 80.8659 3.77097 80.6932 2.20277C80.5239 0.66296 76.6645 0.758043 73.2923 1.64284Z" fill="white"/>
<path d="M97.685 53.765C95.6381 53.8904 92.9794 53.0357 92.4083 50.5464L89.9586 36.3599C89.9586 36.3599 89.9586 36.3566 89.9586 36.3533L87.9513 24.7255C87.9513 24.7255 91.2075 21.0242 92.2277 22.358C92.4951 22.708 92.7843 23.3326 93.062 23.8275C95.9432 28.9616 99.4239 38.463 101.458 45.3862C102.6 49.272 101.657 53.5174 97.685 53.765Z" fill="#E8A261"/>
<path d="M76.8648 9.88795C76.8186 10.2026 76.9685 10.4852 77.1993 10.5189C77.4304 10.5529 77.6549 10.3251 77.7011 10.0104C77.7473 9.69581 77.5974 9.4132 77.3666 9.37953C77.1359 9.34585 76.911 9.57332 76.8648 9.88795Z" fill="#050E21"/>
<path d="M72.6946 9.53075C72.6484 9.84538 72.7983 10.128 73.0291 10.1617C73.2599 10.1953 73.4847 9.96787 73.5309 9.65356C73.5771 9.33893 73.4272 9.05633 73.1965 9.02265C72.9654 8.98865 72.7409 9.21612 72.6946 9.53075Z" fill="#050E21"/>
<path d="M75.5666 11.7957C75.5586 11.7957 75.5501 11.795 75.5415 11.7934C75.3374 11.7548 74.8495 11.6435 74.7263 11.4471C74.6494 11.3236 74.7072 11.0611 75.0528 9.96931C75.1473 9.67086 75.2645 9.30175 75.2747 9.21129C75.2645 9.15748 75.2879 9.10102 75.3374 9.07098C75.4002 9.03301 75.4837 9.05282 75.522 9.11687C75.5702 9.1971 75.5616 9.25421 75.3097 10.0505C75.1737 10.4801 74.9456 11.1994 74.9654 11.3292C74.9964 11.3665 75.3001 11.4738 75.5917 11.5289C75.6646 11.5428 75.7125 11.6131 75.6986 11.6861C75.6867 11.7508 75.6303 11.7957 75.5666 11.7957Z" fill="#CF5757"/>
<path opacity="0.61" d="M76.3515 10.8584C76.335 11.2394 76.8384 11.5705 77.476 11.5983C78.1135 11.626 78.6437 11.3398 78.6605 10.9588C78.677 10.5778 78.1736 10.2466 77.536 10.2189C76.8985 10.1912 76.368 10.4774 76.3515 10.8584Z" fill="white"/>
<path d="M77.5636 11.7349C77.5329 11.7349 77.5022 11.7342 77.4708 11.7329C76.7481 11.7015 76.1978 11.3149 76.2176 10.8527C76.2275 10.6193 76.3803 10.4113 76.6474 10.267C76.8921 10.135 77.21 10.0702 77.5424 10.0844C78.2655 10.1158 78.8158 10.5024 78.7957 10.9646C78.7762 11.4067 78.2427 11.7349 77.5636 11.7349ZM77.4503 10.3515C77.1958 10.3515 76.9587 10.4047 76.7752 10.5037C76.6709 10.5602 76.4939 10.682 76.4863 10.8643C76.4734 11.1653 76.9294 11.44 77.4824 11.4638C78.0357 11.4892 78.5134 11.2538 78.5266 10.9527C78.5395 10.652 78.0836 10.3773 77.5306 10.3532C77.5038 10.3522 77.4771 10.3515 77.4503 10.3515Z" fill="#050E21"/>
<path opacity="0.61" d="M71.6042 10.1273C71.5537 10.5054 72.0258 10.8801 72.6583 10.9643C73.2909 11.0488 73.8446 10.8107 73.8951 10.4327C73.9456 10.0547 73.4735 9.67999 72.8409 9.5958C72.2083 9.51161 71.6547 9.74932 71.6042 10.1273Z" fill="white"/>
<path d="M72.9117 11.1163C72.8222 11.1163 72.7315 11.11 72.6403 11.0978C72.3105 11.0539 72.0091 10.9344 71.7912 10.7614C71.5535 10.5725 71.4399 10.3411 71.4706 10.1093C71.5017 9.87789 71.672 9.68442 71.9507 9.56458C72.2065 9.45464 72.5301 9.41865 72.8582 9.46256C73.5753 9.55797 74.0894 9.99212 74.0283 10.4507C73.9972 10.6825 73.8269 10.8759 73.5479 10.9958C73.363 11.0753 73.1438 11.1163 72.9117 11.1163ZM72.5855 9.71347C72.3907 9.71347 72.2085 9.74715 72.057 9.81186C71.948 9.85874 71.7615 9.96438 71.7374 10.145C71.7133 10.3256 71.8655 10.4764 71.9582 10.5504C72.1388 10.6937 72.3934 10.7931 72.6757 10.831C72.9579 10.8683 73.23 10.8393 73.4413 10.7482C73.5506 10.7013 73.7374 10.5956 73.7612 10.415C73.8011 10.1163 73.371 9.80228 72.8226 9.72899C72.7427 9.71875 72.6628 9.71347 72.5855 9.71347Z" fill="#050E21"/>
<path d="M73.9213 10.401L73.8857 10.6677L76.3345 10.9943L76.3701 10.7276L73.9213 10.401Z" fill="#050E21"/>
<path d="M77.6906 12.5168C77.6506 12.5168 77.6113 12.4989 77.5846 12.4649C77.2637 12.0549 76.4261 11.872 76.4178 11.87C76.3452 11.8545 76.299 11.7832 76.3142 11.7105C76.3297 11.6382 76.4003 11.5917 76.4736 11.6069C76.5116 11.6151 77.4152 11.8119 77.7965 12.2992C77.8424 12.3576 77.8319 12.4422 77.7734 12.488C77.749 12.5075 77.7196 12.5168 77.6906 12.5168Z" fill="#CF5757"/>
<path d="M73.725 12.7391C73.7145 12.7391 73.7039 12.7377 73.6927 12.7351C73.6204 12.7173 73.5765 12.6443 73.5943 12.572C73.6808 12.2214 74.2642 11.604 74.5788 11.604C74.6531 11.604 74.7132 11.6644 74.7132 11.7387C74.7132 11.813 74.6531 11.8734 74.5788 11.8734C74.4345 11.8734 73.9268 12.3465 73.8554 12.6367C73.8406 12.6981 73.7858 12.7391 73.725 12.7391Z" fill="#CF5757"/>
<path d="M78.2437 9.50896C78.2073 9.50896 78.1707 9.49444 78.144 9.46505C78.1383 9.45878 77.5642 8.84405 76.6787 8.99195C76.6025 9.00351 76.5355 8.95465 76.5236 8.88135C76.5114 8.80806 76.5609 8.73873 76.6342 8.72651C77.6629 8.55418 78.3361 9.27654 78.343 9.2838C78.3929 9.33894 78.3889 9.42379 78.3341 9.47397C78.3084 9.49741 78.2757 9.50896 78.2437 9.50896Z" fill="#CF5757"/>
<path d="M72.3499 8.9939C72.3182 8.9939 72.2869 8.98267 72.2608 8.96022C72.205 8.91103 72.1994 8.82618 72.2489 8.77006C72.7983 8.14641 73.9376 8.52377 73.9855 8.53994C74.0558 8.56371 74.0935 8.64031 74.0697 8.71063C74.0459 8.78095 73.9716 8.81925 73.899 8.79515C73.8888 8.79185 72.8815 8.4584 72.4506 8.94801C72.4246 8.97838 72.3872 8.9939 72.3499 8.9939Z" fill="#CF5757"/>
<path d="M81.9953 11.9493C81.9709 11.9493 81.9462 11.9423 81.9237 11.9285C81.861 11.8888 81.8418 11.8057 81.8814 11.7429C81.8871 11.734 82.4318 10.8555 82.1875 10.1635C82.1426 10.0367 82.0729 9.95847 81.9742 9.92513C81.7342 9.84391 81.3654 10.0308 81.2443 10.1097C81.1822 10.1496 81.0987 10.1328 81.0581 10.0704C81.0174 10.008 81.0353 9.9248 81.0973 9.88419C81.1195 9.86967 81.6497 9.53027 82.0607 9.67026C82.2403 9.73133 82.3684 9.86702 82.4414 10.074C82.7293 10.8898 82.1343 11.8463 82.1089 11.8865C82.0838 11.9271 82.0399 11.9493 81.9953 11.9493Z" fill="#CF5757"/>
<path d="M79.4565 2.64414C79.4337 2.64414 79.4103 2.63919 79.3882 2.62928C79.3053 2.59165 79.2687 2.49425 79.306 2.41139C79.3132 2.39554 80.0422 0.837241 81.8161 1.2628C81.9049 1.28426 81.9594 1.3734 81.9379 1.46221C81.9165 1.55069 81.828 1.60483 81.7388 1.58404C80.2327 1.22186 79.6322 2.49359 79.6071 2.54774C79.5793 2.60816 79.5193 2.64414 79.4565 2.64414Z" fill="#7090A3"/>
<path d="M84.671 4.22351C84.6208 4.22351 84.571 4.20073 84.539 4.15715C83.4822 2.74346 81.6228 3.47044 81.5445 3.50214C81.4587 3.53614 81.3636 3.49487 81.3296 3.41069C81.2959 3.32617 81.3365 3.2301 81.4207 3.19609C81.4418 3.18718 83.5937 2.34134 84.8034 3.95972C84.8579 4.03268 84.843 4.13635 84.7697 4.19083C84.74 4.21295 84.7053 4.22351 84.671 4.22351Z" fill="#7090A3"/>
<path d="M85.6691 7.57886C85.6295 7.57886 85.5899 7.56466 85.5582 7.53594C84.7243 6.77759 83.1646 7.52405 83.1491 7.53164C83.0662 7.57225 82.9682 7.53792 82.9282 7.45571C82.8883 7.37384 82.9223 7.27512 83.0039 7.23484C83.0758 7.19985 84.7804 6.3824 85.7797 7.2913C85.8474 7.35271 85.8524 7.45703 85.791 7.52438C85.7586 7.5607 85.714 7.57886 85.6691 7.57886Z" fill="#7090A3"/>
<path d="M69.9772 7.04014C69.9673 7.04014 69.9571 7.03948 69.9472 7.0375C69.9291 7.0342 68.1212 6.68622 68.2017 5.04902C68.2869 3.32004 71.4629 1.78782 73.6257 1.38966C73.7168 1.37249 73.8013 1.43225 73.8182 1.52205C73.8347 1.61152 73.7753 1.69769 73.6858 1.7142C71.3573 2.14273 68.5989 3.70003 68.5315 5.06487C68.4658 6.41154 69.9439 6.70108 70.007 6.71263C70.0968 6.72914 70.1559 6.81531 70.1394 6.90478C70.1245 6.98435 70.0552 7.04014 69.9772 7.04014Z" fill="#7090A3"/>
<path d="M71.0105 6.58399C70.9881 6.58399 70.965 6.57936 70.9435 6.56979C70.2096 6.24327 69.8365 5.7081 69.8339 4.9798C69.8227 1.83415 76.522 0.915347 76.8073 0.87804C76.8508 0.871107 76.8967 0.884315 76.9317 0.912047C76.9664 0.939779 76.9898 0.980056 76.9941 1.0243C77.0034 1.11344 76.939 1.19366 76.8502 1.20522C76.7832 1.21413 70.1535 2.12039 70.1637 4.97848C70.166 5.5734 70.4648 5.99533 71.0775 6.26836C71.1611 6.30534 71.1984 6.40307 71.1614 6.48626C71.134 6.54767 71.0736 6.58399 71.0105 6.58399Z" fill="#7090A3"/>
<path d="M86.2907 13.7509C86.2194 13.7509 86.1537 13.7047 86.1325 13.633C85.6673 12.0678 83.2111 10.7231 82.9327 10.5749L83.0797 10.2791L83.0007 10.424L83.0879 10.2833C83.5627 10.5359 85.9562 11.8799 86.4495 13.5389C86.4752 13.6264 86.4257 13.7182 86.3382 13.7443C86.3217 13.7486 86.3062 13.7509 86.2907 13.7509Z" fill="#7090A3"/>
<path d="M82.9998 16.7205C82.9242 16.7205 82.8562 16.6684 82.8387 16.5914C82.8193 16.5026 82.8747 16.4141 82.9639 16.3943C83.2927 16.3207 83.5132 16.1649 83.6374 15.9176C83.9675 15.2606 83.5 14.1969 83.4954 14.186C83.4581 14.1028 83.4954 14.0051 83.5786 13.9678C83.6621 13.9308 83.7595 13.9674 83.7965 14.0509C83.8186 14.1001 84.3323 15.2672 83.9325 16.0649C83.7635 16.4019 83.4617 16.6211 83.0358 16.7162C83.0236 16.7192 83.0117 16.7205 82.9998 16.7205Z" fill="#7090A3"/>
<path d="M75.8339 6.7879C75.7579 6.7879 75.6893 6.73508 75.6728 6.65783C75.653 6.56869 75.7097 6.48087 75.7989 6.46139C78.8494 5.79515 79.8062 4.17974 79.8155 4.16356C79.8607 4.08465 79.9604 4.05692 80.0406 4.10182C80.1195 4.14705 80.1476 4.24709 80.103 4.32632C80.0624 4.39763 79.0769 6.0837 75.8695 6.78361C75.857 6.78658 75.8454 6.7879 75.8339 6.7879Z" fill="#7090A3"/>
<path d="M89.1149 54.4284L80.3505 53.9177C77.1177 53.6932 75.5066 51.7968 75.603 50.3768L75.8407 46.8693C75.9367 45.4497 77.1672 44.351 78.6542 44.3579L96.6839 42.1172L99.3191 46.3659C99.3604 47.0569 101.708 49.5855 101.607 50.2699C100.839 55.4628 92.7967 54.9127 89.1149 54.4284Z" fill="#E8A261"/>
<path d="M79.7533 52.0163C79.297 52.3243 78.7747 52.4765 78.2379 52.4845C78.2056 52.4891 78.1722 52.4868 78.1418 52.4851L78.0256 52.4835L75.2811 52.3177L75.084 50.7297L75.0817 50.7258L74.6274 47.1849L74.217 45.4292L77.0837 45.4474C78.2693 45.3876 79.5321 46.0212 80.3254 47.2061C81.4595 48.8901 81.201 51.0427 79.7533 52.0163Z" fill="#733929"/>
<path d="M77.7766 50.8379C77.77 50.8577 77.7601 50.8775 77.7502 50.894C77.5653 51.3133 77.2847 51.6732 76.9017 51.9274C76.8225 51.9802 76.7366 52.0297 76.6541 52.0726C75.974 52.4127 75.1684 52.4061 74.3959 52.099C74.2638 52.0495 74.1285 51.9868 74.003 51.9175C73.5672 51.6864 73.2701 51.2968 72.9498 50.8676C72.8937 50.7917 72.8343 50.7157 72.7749 50.6365L72.7715 50.6332C72.7121 50.5573 72.6593 50.4846 72.6065 50.4054C72.59 50.3823 72.5768 50.3592 72.5636 50.3394C72.2565 49.8639 72.0518 49.3654 71.9462 48.8702C71.9099 48.6985 71.8834 48.5268 71.8702 48.3585C71.8603 48.2594 71.8537 48.1604 71.8537 48.0613C71.8504 47.8665 71.8636 47.6784 71.8967 47.4968C71.9066 47.4176 71.7646 47.4275 71.7877 47.3515C71.8504 47.0874 71.9462 46.8431 72.0782 46.6186C72.2037 46.3941 72.3622 46.1927 72.5536 46.0243C72.6329 45.955 72.7154 45.889 72.8046 45.8295C73.6233 45.2815 74.693 45.3145 75.6603 45.8163C75.8188 45.8989 75.9773 45.9979 76.1325 46.1069C76.5022 46.3677 76.839 46.6978 77.1328 47.0907H77.1361C77.1757 47.1501 77.2153 47.2063 77.255 47.2657C78.044 48.441 78.2058 49.8177 77.7766 50.8379Z" fill="#050E21"/>
<path d="M89.959 36.3532L86.9305 24.3579C86.9305 24.3579 91.1469 20.8468 92.2502 22.3579C92.2502 22.3579 90.9508 22.2027 90.3119 27.086C89.4994 33.299 89.9626 36.1749 89.959 36.3532Z" fill="#D44C4C"/>
<path d="M73.1085 38.4804C73.1085 38.4804 71.3158 39.9628 67.3441 40.2335C67.3606 40.1609 67.3771 40.0849 67.3903 40.009C67.5521 39.1704 67.6908 38.3088 67.7832 37.4207L73.1085 38.4804Z" fill="#050E21"/>
<path d="M75.8341 35.9169C75.0332 38.6089 72.838 39.6799 69.045 39.1606C66.9244 38.87 65.7653 36.458 66.9538 33.9132C68.1552 31.3403 69.734 28.7536 71.946 29.412C74.1579 30.0703 76.635 33.2252 75.8341 35.9169Z" fill="#D44C4C"/>
<path d="M88.4942 37.9919C87.6933 40.6839 83.5248 40.1794 81.8269 39.4861C80.0263 38.7509 79.503 36.8112 80.6915 34.2665C81.8929 31.6936 83.4717 29.1069 85.6837 29.7652C87.8957 30.4232 89.2952 35.2998 88.4942 37.9919Z" fill="#D44C4C"/>
<path d="M80.3844 68.0804L67.9313 71.3951L67.2214 70.7612L71.0214 66.8853C71.2294 66.9381 75.3233 68.711 80.3844 68.0804Z" fill="#050E21"/>
<path d="M89.4638 99.429C86.5717 99.977 83.6466 100.416 80.7083 100.766C76.9281 101.218 73.1281 101.525 69.3512 101.733C68.5919 98.6465 67.2944 93.3047 66.8223 91.4097C65.3465 85.4901 63.8774 79.7918 62.461 74.4731C61.9757 72.654 61.497 70.8778 61.0249 69.1511C61.1471 69.0554 61.2692 68.9596 61.3914 68.8639C61.5762 68.7186 61.7611 68.5767 61.946 68.4347C63.534 67.2264 65.1617 66.1204 66.8223 65.1365C67.542 64.7073 68.265 64.3012 68.9947 63.9216C69.2093 63.8093 69.4206 63.7004 69.6352 63.5947C70.1799 64.2484 70.7114 64.912 71.2331 65.5888C78.4072 74.8429 85.0564 88.7883 89.4638 99.429Z" fill="#538DB0"/>
<path d="M85.4513 40.4141C80.3227 40.4141 80.0576 37.9331 80.049 37.8271C80.0414 37.7363 80.1091 37.6564 80.1999 37.6488C80.2838 37.6379 80.3706 37.7082 80.3779 37.7994C80.3802 37.8215 80.6526 40.0837 85.4526 40.0837C85.4757 40.0837 85.4932 40.0794 85.5219 40.0833C85.6127 40.0833 85.6866 40.1566 85.687 40.2474C85.6873 40.3385 85.6137 40.4128 85.5226 40.4135C85.4985 40.4141 85.4747 40.4141 85.4513 40.4141Z" fill="#050E21"/>
<path d="M95.4919 45.9812C95.4008 45.9812 95.3269 45.9073 95.3269 45.8162C95.3269 45.1757 94.3018 43.7088 91.133 43.2651C88.7338 42.9294 84.9074 43.7428 84.8691 43.7511C84.7763 43.7716 84.6918 43.7135 84.6727 43.6247C84.6535 43.5355 84.7103 43.4477 84.7994 43.4285C84.9586 43.3942 88.7209 42.5936 91.1786 42.9383C94.4411 43.3949 95.657 44.9459 95.657 45.8162C95.657 45.9073 95.5831 45.9812 95.4919 45.9812Z" fill="#050E21"/>
<path d="M89.9611 37.5249C89.9604 37.5249 89.9601 37.5249 89.9595 37.5249C89.8683 37.5239 89.795 37.4493 89.796 37.3581C89.8363 33.1554 92.3606 30.9803 92.386 30.9632C92.462 30.913 92.5643 30.9328 92.6148 31.0094C92.6653 31.085 92.6449 31.1873 92.5693 31.2379C92.5415 31.258 90.1641 33.3868 90.1262 37.3611C90.1252 37.4522 90.0516 37.5249 89.9611 37.5249Z" fill="#050E21"/>
<path d="M101.697 48.1074C101.61 48.1074 101.537 48.0398 101.532 47.9516C101.319 44.2157 97.3419 40.4064 97.3016 40.3684C97.2356 40.3057 97.2327 40.2014 97.295 40.135C97.3578 40.069 97.4624 40.066 97.5285 40.1284C97.6965 40.2872 101.641 44.0648 101.862 47.9328C101.867 48.0236 101.797 48.1018 101.706 48.1068C101.703 48.1074 101.7 48.1074 101.697 48.1074Z" fill="#050E21"/>
<path d="M84.4473 49.996C84.4397 49.996 84.4321 49.9954 84.4245 49.9944C84.3344 49.9818 84.2713 49.8986 84.2836 49.8085C84.2984 49.6986 84.6213 47.097 82.0187 45.4126C79.7533 43.9461 78.1078 44.4723 77.5066 44.7671L77.463 44.7879C77.3802 44.8243 77.2818 44.7853 77.2461 44.7018C77.2101 44.6179 77.2488 44.5209 77.3323 44.4849L77.3617 44.4707C78.0147 44.1517 79.7912 43.5776 82.198 45.1356C84.9822 46.9375 84.6147 49.8253 84.6107 49.8544C84.5989 49.9363 84.5282 49.996 84.4473 49.996Z" fill="#050E21"/>
<path d="M67.5839 33.0696C67.5103 33.0696 67.4433 33.0204 67.4241 32.9458C67.0217 31.3891 66.1092 30.847 65.4423 30.4512C65.2518 30.3379 65.087 30.2402 64.9526 30.1313C64.8817 30.0738 64.8708 29.9698 64.9282 29.8992C64.9853 29.8282 65.089 29.8173 65.1603 29.8747C65.2765 29.9688 65.4314 30.0606 65.611 30.1676C66.2868 30.5687 67.3076 31.1749 67.744 32.8636C67.7665 32.9517 67.7137 33.0419 67.6255 33.0646C67.6113 33.0679 67.5975 33.0696 67.5839 33.0696Z" fill="#050E21"/>
<path d="M90.9947 43.1329C90.9604 43.1329 90.9261 43.1223 90.8964 43.1005C90.8231 43.046 90.8076 42.9427 90.862 42.8694C91.9637 41.3821 93.485 40.7182 95.3827 40.8941C95.4339 40.8991 95.4712 40.9027 95.4927 40.9027C95.5838 40.9027 95.6578 40.9767 95.6578 41.0678C95.6578 41.1589 95.5838 41.2329 95.4927 41.2329C95.4653 41.2329 95.4174 41.2289 95.352 41.2226C93.5782 41.0569 92.1555 41.6772 91.1268 43.0658C91.0951 43.1097 91.0449 43.1329 90.9947 43.1329Z" fill="#050E21"/>
<path d="M84.1202 54.5956C83.3939 54.5956 82.6282 54.5012 81.8504 54.2615C81.7633 54.2348 81.7144 54.1426 81.7415 54.0552C81.7679 53.9677 81.8587 53.9175 81.9478 53.9462C84.9707 54.8752 87.8281 53.5197 88.7673 53.074C88.9407 52.9918 89.0199 52.9548 89.0731 52.9409C89.1625 52.9178 89.2517 52.9716 89.2745 53.0591C89.2972 53.1476 89.2444 53.2374 89.1563 53.2602C89.1275 53.2684 89.0163 53.3212 88.909 53.3724C88.1803 53.7184 86.3315 54.5956 84.1202 54.5956Z" fill="#050E21"/>
<path d="M81.5917 43.1327C81.5587 43.1327 81.5257 43.1231 81.497 43.1027C77.3113 40.1627 74.583 40.7233 73.5556 40.9346C73.2868 40.9894 73.1528 41.0175 73.0475 40.9759C72.963 40.9422 72.9214 40.8464 72.955 40.7616C72.9877 40.68 73.0772 40.6384 73.1601 40.6655C73.2066 40.6711 73.3558 40.6384 73.4892 40.611C74.5539 40.3922 77.3836 39.8101 81.6865 42.8323C81.7614 42.8848 81.7792 42.9878 81.7267 43.0624C81.6947 43.1083 81.6439 43.1327 81.5917 43.1327Z" fill="#050E21"/>
<path d="M77.6468 33.0696C77.6458 33.0696 77.6448 33.0696 77.6438 33.0696C77.553 33.0679 77.4801 32.993 77.4817 32.9019C77.4883 32.5133 77.5656 31.5017 78.1381 30.5056C78.1836 30.4261 78.285 30.3993 78.3635 30.4446C78.4424 30.4901 78.4699 30.5908 78.4246 30.6701C77.8901 31.5997 77.8181 32.5446 77.8122 32.9075C77.8102 32.9976 77.7369 33.0696 77.6468 33.0696Z" fill="#050E21"/>
<path d="M89.9955 35.4661C89.9929 35.4661 89.9902 35.4661 89.9879 35.4657C89.8971 35.4614 89.8265 35.3842 89.8308 35.2931C89.9618 32.4908 88.7644 31.6667 88.3131 31.3564C88.1995 31.2781 88.1371 31.2349 88.1077 31.1632C88.0731 31.0787 88.1137 30.9827 88.1982 30.9483C88.2731 30.917 88.3583 30.9467 88.3999 31.013C88.42 31.0315 88.4554 31.0536 88.5003 31.0843C88.9456 31.3907 90.3002 32.3227 90.1599 35.3086C90.1566 35.3971 90.0833 35.4661 89.9955 35.4661Z" fill="#050E21"/>
<path d="M88.7192 22.5237C88.6892 22.5237 88.6578 22.5148 88.6255 22.4907C88.5522 22.4366 88.5363 22.3332 88.5908 22.2599C88.6093 22.2348 88.6337 22.2163 88.6605 22.2051L88.6892 22.1873C89.739 21.5303 90.7282 21.5207 91.3746 21.629C91.4641 21.6439 91.5251 21.729 91.51 21.8192C91.4948 21.909 91.4106 21.9704 91.3198 21.9549C90.7318 21.8562 89.8265 21.8654 88.8642 22.4673C88.8242 22.4923 88.7744 22.5237 88.7192 22.5237Z" fill="#050E21"/>
<path d="M64.0781 23.3815C64.0451 23.3815 64.0121 23.3716 63.9831 23.3511C63.9088 23.2986 63.8909 23.196 63.9431 23.1217C63.9543 23.1058 65.0828 21.5436 67.0528 22.5119C67.1346 22.5522 67.1683 22.6509 67.128 22.7328C67.0881 22.8146 66.9897 22.8483 66.9072 22.808C65.195 21.9655 64.2525 23.2564 64.2132 23.3115C64.1808 23.3571 64.13 23.3815 64.0781 23.3815Z" fill="#050E21"/>
<path d="M80.3429 88.436C80.3363 88.436 80.3294 88.4357 80.3228 88.4347C80.2327 88.4238 80.168 88.3416 80.1789 88.2508C81.1092 80.5933 77.4449 75.1244 77.4079 75.0703C77.3568 74.9947 77.3759 74.8924 77.4512 74.8409C77.5261 74.79 77.6288 74.8085 77.6806 74.8841C77.7183 74.9392 81.4529 80.5049 80.5067 88.2907C80.4965 88.3743 80.4251 88.436 80.3429 88.436Z" fill="#050E21"/>
<path d="M52.1412 64.4846C52.0989 64.4846 52.0567 64.4684 52.0246 64.4364C50.9358 63.3496 50.3254 63.2281 50.0068 63.3195C49.6413 63.4229 49.5353 63.8484 49.5343 63.8524C49.5132 63.9409 49.426 63.9983 49.3359 63.9749C49.2474 63.9541 49.1923 63.8663 49.2128 63.7774C49.2187 63.7524 49.3607 63.1614 49.9133 63.0026C50.502 62.8319 51.2907 63.2373 52.258 64.2027C52.3228 64.2667 52.3228 64.3717 52.2584 64.4361C52.226 64.4684 52.1834 64.4846 52.1412 64.4846Z" fill="#050E21"/>
<path d="M63.841 65.5673C63.7987 65.5673 63.7565 65.5511 63.7245 65.5191C62.6356 64.4323 62.0259 64.3098 61.7066 64.4022C61.3411 64.5056 61.2351 64.9311 61.2342 64.9351C61.213 65.0236 61.1252 65.0803 61.0357 65.0576C60.9473 65.0368 60.8921 64.9489 60.9126 64.8601C60.9185 64.835 61.0605 64.2441 61.6128 64.0853C62.2015 63.9156 62.9902 64.3197 63.9575 65.2854C64.0223 65.3494 64.0223 65.4544 63.9579 65.5188C63.9259 65.5511 63.8833 65.5673 63.841 65.5673Z" fill="#050E21"/>
<path d="M48.5176 94.0322C48.4592 94.0322 48.4024 94.0012 48.3727 93.946C48.3291 93.8661 48.3585 93.7658 48.4387 93.7222C55.1569 90.0575 58.6713 80.4308 58.6713 76.2976C58.6713 76.2065 58.7453 76.1326 58.8364 76.1326C58.9275 76.1326 59.0015 76.2065 59.0015 76.2976C59.0015 80.4994 55.428 90.286 48.5969 94.0117C48.5714 94.0256 48.5444 94.0322 48.5176 94.0322Z" fill="#050E21"/>
<path d="M61.9614 73.1635C61.8884 73.1635 61.8218 73.1149 61.8019 73.041L60.1651 66.8837C59.8788 65.8071 59.861 64.7136 60.1126 63.7206C60.3942 62.6103 60.9482 61.7318 61.7597 61.1098C61.8323 61.0536 61.9357 61.0682 61.9911 61.1401C62.0466 61.2128 62.0327 61.3161 61.9604 61.3716C61.2093 61.9473 60.6953 62.7651 60.4325 63.8018C60.1944 64.7404 60.2123 65.7767 60.484 66.7985L62.1209 72.9558C62.1443 73.0443 62.0918 73.1344 62.0037 73.1578C61.9898 73.1618 61.9753 73.1635 61.9614 73.1635Z" fill="#050E21"/>
<path d="M48.5181 75.6096C48.4606 75.6096 48.4048 75.5796 48.3745 75.5261C46.8277 72.802 47.3946 69.1196 47.4194 68.9641C47.4335 68.8743 47.5158 68.8125 47.6085 68.8271C47.6987 68.8416 47.7597 68.9264 47.7455 69.0162C47.7396 69.0529 47.1734 72.741 48.6617 75.363C48.7069 75.4422 48.6789 75.5433 48.5996 75.5882C48.5735 75.6027 48.5455 75.6096 48.5181 75.6096Z" fill="#050E21"/>
<path d="M65.529 59.3272C65.4706 59.3272 65.4141 59.2962 65.3844 59.2414C65.3405 59.1615 65.3699 59.0611 65.4498 59.0172C65.5175 58.9802 72.2792 55.3384 77.2882 57.8752C77.3698 57.9165 77.4024 58.0159 77.3612 58.0971C77.3202 58.1786 77.2202 58.2107 77.1393 58.1701C72.2848 55.7118 65.6746 59.2704 65.6082 59.3068C65.5832 59.3206 65.5561 59.3272 65.529 59.3272Z" fill="#050E21"/>
<path d="M62.3392 56.964C62.3322 56.964 62.3253 56.9637 62.318 56.9627C61.0407 56.8006 59.7762 56.7963 58.5593 56.9495C58.4692 56.9614 58.3863 56.8967 58.3748 56.8062C58.3632 56.7161 58.4276 56.6332 58.518 56.6216C59.7624 56.4645 61.0549 56.4691 62.3596 56.6349C62.4501 56.6464 62.5142 56.7289 62.5026 56.8194C62.492 56.9033 62.4211 56.964 62.3392 56.964Z" fill="#050E21"/>
<path d="M85.1464 66.9496C85.0737 66.9496 85.0074 66.9014 84.9872 66.8285C84.9631 66.7403 85.015 66.6495 85.1028 66.6254C88.4554 65.705 87.7994 60.1661 87.7895 60.111C87.7734 60.0215 87.8328 59.9357 87.9226 59.9192C88.0081 59.905 88.0979 59.9621 88.1144 60.0522C88.1246 60.11 88.808 65.9506 85.1906 66.944C85.1754 66.9477 85.1609 66.9496 85.1464 66.9496Z" fill="#050E21"/>
<path d="M74.76 8.26196C74.7061 8.26196 74.6553 8.22928 74.6345 8.17612C74.6074 8.10679 74.6418 8.02888 74.7114 8.00214L75.4473 7.71656C75.5173 7.68883 75.5946 7.72382 75.6213 7.79315C75.6484 7.86248 75.6141 7.9404 75.5447 7.96714L74.8085 8.25272C74.7926 8.25932 74.7761 8.26196 74.76 8.26196Z" fill="#CF5757"/>
<path d="M74.649 7.77884C74.6417 7.77884 74.6348 7.77851 74.6279 7.77719C74.5546 7.76563 74.5044 7.69663 74.5159 7.62334C74.5305 7.53024 74.5361 7.49557 75.4734 7.20075C75.544 7.17731 75.6196 7.21792 75.6421 7.2889C75.6642 7.35955 75.6249 7.43515 75.5539 7.4576C75.2201 7.56259 74.8273 7.69663 74.7427 7.74054C74.7183 7.76431 74.6846 7.77884 74.649 7.77884Z" fill="#CF5757"/>
<path d="M54.1793 38.3033C53.1129 39.647 51.9237 40.4783 51.5229 40.1601C51.1221 39.8421 51.6619 38.4951 52.7279 37.1514C53.7943 35.8077 54.9835 34.9764 55.3843 35.2947C55.7851 35.6126 55.2457 36.9596 54.1793 38.3033Z" fill="#733929"/>
<path d="M63.8208 44.2607C63.7343 44.2607 63.6617 44.1933 63.6561 44.1058C63.352 39.1988 59.5392 36.6118 59.1955 36.5157C59.108 36.5233 59.0426 36.4533 59.037 36.3622C59.0314 36.2711 59.1169 36.1942 59.208 36.1886C59.2097 36.1882 59.2113 36.1882 59.2133 36.1882C59.6319 36.1882 63.6686 38.9651 63.9859 44.0854C63.9915 44.1762 63.9225 44.2547 63.8314 44.2603C63.8278 44.2607 63.8241 44.2607 63.8208 44.2607Z" fill="#050E21"/>
<path d="M52.0654 42.5241C52.0446 42.5241 52.0238 42.5238 52.003 42.5238C51.9119 42.5225 51.8389 42.4475 51.8402 42.3564C51.8415 42.265 51.9106 42.1794 52.0076 42.1936C52.0264 42.194 52.0453 42.194 52.0637 42.194C55.1084 42.194 56.9938 38.7832 57.0127 38.7485C57.0559 38.6683 57.1563 38.6386 57.2365 38.6822C57.3167 38.7258 57.3464 38.8258 57.3029 38.906C57.2223 39.0543 55.3025 42.5241 52.0654 42.5241Z" fill="#050E21"/>
<path d="M75.5632 13.0243C74.8715 13.0243 74.4892 12.5343 74.4723 12.5119C74.4274 12.4531 74.4387 12.3689 74.4974 12.3237C74.5565 12.2785 74.6407 12.2894 74.6859 12.3481C74.7001 12.367 75.0498 12.8037 75.6728 12.7499C76.2789 12.6954 76.4199 12.295 76.4255 12.2778C76.4489 12.2078 76.5255 12.1689 76.5949 12.192C76.6652 12.2148 76.7041 12.2894 76.682 12.3597C76.6744 12.3835 76.4882 12.947 75.6969 13.0177C75.651 13.0223 75.6061 13.0243 75.5632 13.0243Z" fill="#CF5757"/>
<path d="M72.2126 92.3347C72.1852 92.3347 72.1575 92.3278 72.132 92.3136C66.2874 89.0494 64.1979 81.7416 64.1775 81.668C64.153 81.5802 64.2045 81.4894 64.2923 81.465C64.3802 81.4402 64.4713 81.4917 64.4957 81.5798C64.5159 81.6518 66.5707 88.8299 72.2935 92.0257C72.373 92.0703 72.4014 92.1707 72.3569 92.2506C72.3265 92.304 72.2704 92.3347 72.2126 92.3347Z" fill="#050E21"/>
<path d="M89.0348 60.2041V99.5082C88.3151 99.6436 87.592 99.769 86.8657 99.8879V60.2041H89.0348Z" fill="#522F2D"/>
<path d="M102.871 54.9248V95.9193C102.151 96.1669 101.428 96.4079 100.698 96.6357V54.9248H102.871Z" fill="#522F2D"/>
<path d="M8.69008 55.5952V93.9617C7.94394 93.615 7.22092 93.2552 6.5177 92.8887V55.5952H8.69008Z" fill="#522F2D"/>
<path d="M23.2695 50.3162V98.8809C22.5333 98.7092 21.8103 98.5309 21.0972 98.3461V50.3162H23.2695Z" fill="#522F2D"/>
<path d="M94.0537 61.2403L106.307 52.7971L106.259 54.9183L94.0537 63.7772V61.2403Z" fill="#663B38"/>
<path d="M0.000244141 55.334L20.8857 47.5491L106.307 52.7971L94.0531 61.2403L0.000244141 55.334Z" fill="#B87E71"/>
<path d="M94.0532 61.2403V63.7772L0.043947 57.6965L0.000366211 55.334L94.0532 61.2403Z" fill="#663B38"/>
<path d="M23.1179 52.6184H22.7633V19.1103C22.7633 11.1729 25.0436 5.89254 28.8634 4.98529C32.022 4.23355 35.4572 6.69513 37.8296 11.4063L37.5127 11.5658C35.2181 7.0091 31.9358 4.61949 28.9457 5.3303C25.2969 6.19693 23.1182 11.3486 23.1182 19.1103V52.6184H23.1179Z" fill="#235473"/>
<path d="M49.0353 14.7224L35.2008 23.5281L28.8904 14.9271C28.8864 14.9235 28.8828 14.9159 28.8828 14.9119C28.2912 13.9258 31.1242 10.9984 35.2388 8.33968C39.3686 5.67374 43.2254 4.29339 43.851 5.26402C43.8698 5.29043 43.8814 5.32081 43.8926 5.35118L43.9002 5.34755L49.0353 14.7224Z" fill="#E0694E"/>
<path d="M48.982 14.5975C48.3564 13.6285 44.7611 14.8375 40.9512 17.2978C37.1413 19.7581 34.5605 22.5376 35.1858 23.5062C35.8114 24.4752 39.4071 23.2662 43.2166 20.8059C47.0265 18.346 49.6076 15.5665 48.982 14.5975Z" fill="#050E21"/>
<path d="M31.3465 52.6174C31.3465 53.0648 27.5845 53.4253 22.9426 53.4253C18.2971 53.4253 14.535 53.0651 14.535 52.6174C14.535 50.8578 18.2971 49.4282 22.9386 49.4282C27.5845 49.4279 31.3465 50.8578 31.3465 52.6174Z" fill="#235473"/>
<path d="M79.9043 51.0307L56.5801 49.2063L39.1968 54.4051L65.5901 55.9585L79.9043 51.0307Z" fill="#256F9C"/>
<mask id="mask0_254_568" style="mask-type:luminance" maskUnits="userSpaceOnUse" x="39" y="49" width="41" height="7">
<path d="M79.9053 51.0312L56.581 49.2068L39.2185 54.4241L65.6227 55.9431L79.9053 51.0312Z" fill="white"/>
</mask>
<g mask="url(#mask0_254_568)">
<path d="M40.9604 56.8185C40.926 56.8185 40.8937 56.7967 40.8821 56.762C40.8679 56.7188 40.891 56.6722 40.9343 56.6577L61.5213 49.7712C61.5639 49.7566 61.6114 49.7801 61.6256 49.8233C61.6398 49.8666 61.6167 49.9131 61.5735 49.9276L40.9864 56.8142C40.9782 56.8172 40.9693 56.8185 40.9604 56.8185Z" fill="#050E21"/>
<path d="M45.2526 56.8185C45.2183 56.8185 45.1859 56.7967 45.1743 56.762C45.1601 56.7188 45.1833 56.6722 45.2265 56.6577L65.8135 49.7712C65.8574 49.7566 65.9033 49.7801 65.9179 49.8233C65.9324 49.8666 65.909 49.9131 65.8657 49.9276L45.2787 56.8142C45.2704 56.8172 45.2615 56.8185 45.2526 56.8185Z" fill="#050E21"/>
<path d="M49.543 56.8182C49.5087 56.8182 49.4763 56.7965 49.4647 56.7618C49.4506 56.7185 49.4737 56.672 49.5169 56.6575L70.1039 49.7709C70.1472 49.7564 70.1937 49.7798 70.2083 49.8231C70.2228 49.8663 70.1994 49.9129 70.1561 49.9274L49.5691 56.814C49.5608 56.8169 49.5519 56.8182 49.543 56.8182Z" fill="#050E21"/>
<path d="M53.8349 56.8182C53.8005 56.8182 53.7682 56.7965 53.7566 56.7618C53.7424 56.7185 53.7655 56.672 53.8088 56.6575L74.3958 49.7709C74.4394 49.7564 74.4856 49.7798 74.5001 49.8231C74.5147 49.8663 74.4912 49.9129 74.448 49.9274L53.861 56.814C53.8527 56.8169 53.8438 56.8182 53.8349 56.8182Z" fill="#050E21"/>
<path d="M58.1273 56.8182C58.093 56.8182 58.0607 56.7965 58.0491 56.7618C58.0349 56.7185 58.058 56.672 58.1013 56.6575L78.6883 49.7709C78.7315 49.7564 78.7781 49.7798 78.7926 49.8231C78.8071 49.8663 78.7837 49.9129 78.7405 49.9274L58.1534 56.814C58.1452 56.8169 58.1363 56.8182 58.1273 56.8182Z" fill="#050E21"/>
<path d="M62.4837 56.9272C62.449 56.9272 62.417 56.9054 62.4054 56.8707C62.3909 56.8275 62.4143 56.7809 62.4576 56.7664L83.0446 49.8802C83.0882 49.866 83.1344 49.8891 83.1489 49.9323C83.1635 49.9756 83.14 50.0224 83.0968 50.0366L62.5098 56.9229C62.5015 56.9258 62.4926 56.9272 62.4837 56.9272Z" fill="#050E21"/>
</g>
<mask id="mask1_254_568" style="mask-type:luminance" maskUnits="userSpaceOnUse" x="39" y="49" width="41" height="7">
<path d="M79.9053 51.0312L56.581 49.2068L39.2185 54.4241L65.6227 55.9431L79.9053 51.0312Z" fill="white"/>
</mask>
<g mask="url(#mask1_254_568)">
<path d="M78.3333 52.1027C78.3313 52.1027 78.3294 52.1027 78.327 52.1024L55.7403 50.45C55.6947 50.4467 55.6607 50.4071 55.664 50.3615C55.6673 50.316 55.7099 50.2793 55.7525 50.2856L78.3399 51.938C78.3855 51.9413 78.4195 51.9809 78.4158 52.0265C78.4122 52.0694 78.3762 52.1027 78.3333 52.1027Z" fill="#050E21"/>
</g>
<mask id="mask2_254_568" style="mask-type:luminance" maskUnits="userSpaceOnUse" x="39" y="49" width="41" height="7">
<path d="M79.9053 51.0312L56.581 49.2068L39.2185 54.4241L65.6227 55.9431L79.9053 51.0312Z" fill="white"/>
</mask>
<g mask="url(#mask2_254_568)">
<path d="M75.4398 53.4015C75.4379 53.4015 75.4359 53.4015 75.4339 53.4012L52.8465 51.7488C52.8009 51.7455 52.7669 51.7059 52.7702 51.6603C52.7735 51.6147 52.8174 51.5751 52.8587 51.5844L75.4464 53.2367C75.492 53.24 75.526 53.2797 75.5224 53.3252C75.5187 53.3685 75.4824 53.4015 75.4398 53.4015Z" fill="#050E21"/>
</g>
<mask id="mask3_254_568" style="mask-type:luminance" maskUnits="userSpaceOnUse" x="39" y="49" width="41" height="7">
<path d="M79.9053 51.0312L56.581 49.2068L39.2185 54.4241L65.6227 55.9431L79.9053 51.0312Z" fill="white"/>
</mask>
<g mask="url(#mask3_254_568)">
<path d="M71.3675 54.6891C71.3655 54.6891 71.3635 54.6891 71.3612 54.6888L48.7741 53.0364C48.7286 53.0331 48.6946 52.9935 48.6979 52.9479C48.7012 52.9024 48.7428 52.8647 48.7863 52.872L71.3737 54.5244C71.4193 54.5277 71.4533 54.5673 71.4497 54.6129C71.4464 54.6558 71.41 54.6891 71.3675 54.6891Z" fill="#050E21"/>
</g>
<path d="M80.1806 51.3703V51.9186L65.7558 56.8032C65.522 56.8824 65.2757 56.9171 65.0294 56.9055L62.5543 56.7771L79.6989 51.0239C79.9353 50.9444 80.1806 51.1207 80.1806 51.3703Z" fill="#050E21"/>
<path d="M77.7762 50.8377C77.7696 50.8575 73.8042 50.8215 72.8798 50.6598C72.5893 50.6069 72.3783 49.3851 72.3783 49.3851L72.375 49.3818L71.8699 48.3583L71.5133 47.6353L70.7771 46.1463L70.8728 46.1397L71.718 46.0836L72.5533 46.0242L75.66 45.8162C75.8185 45.8987 75.9769 45.9977 76.1321 46.1067C76.5019 46.3675 76.8386 46.6977 77.1324 47.0905H77.1357C77.1754 47.15 77.215 47.2061 77.2546 47.2655C78.0437 48.4408 78.2054 49.8176 77.7762 50.8377Z" fill="#F79F8C"/>
<path d="M71.8047 51.1175L67.8812 50.4193L66.2463 46.5222L71.7106 46.0706L73.8239 49.2218C73.8044 50.38 72.8774 51.277 71.8047 51.1175Z" fill="#F79F8C"/>
<path d="M70.3841 50.75L67.2107 50.69L67.5214 50.5998L64.2526 52.3793C63.9885 52.5233 63.6577 52.4255 63.5137 52.1614C63.3757 51.9075 63.4616 51.5916 63.7026 51.4397L66.8545 49.4605C66.9328 49.4113 67.0186 49.3836 67.1048 49.3756L67.1655 49.3704L70.327 49.0924C70.7839 49.0521 71.187 49.3902 71.2273 49.8471C71.2676 50.304 70.9295 50.7071 70.4726 50.7474C70.4429 50.7494 70.4128 50.7504 70.3841 50.75Z" fill="#F79F8C"/>
<path d="M70.247 49.4493L66.2235 49.689L66.5121 49.5886L62.7596 51.8211C61.9573 52.2047 61.4651 51.5592 61.4651 51.5592L65.8012 48.4757C65.8762 48.4252 65.9584 48.3945 66.0423 48.3819L66.0898 48.3753L70.079 47.7992C70.5329 47.7335 70.9539 48.0485 71.0192 48.5021C71.0846 48.9557 70.77 49.377 70.3163 49.4423C70.2936 49.4453 70.2695 49.4476 70.247 49.4493Z" fill="#F79F8C"/>
<path d="M69.8364 48.4187L65.4788 48.739L65.7842 48.6234L61.7577 51.3597C61.3929 51.6585 60.5437 51.6393 60.203 51.1365C60.203 51.1365 60.3661 50.9642 60.6008 50.7915L65.0258 47.5425C65.106 47.4838 65.1962 47.4478 65.2879 47.4332L65.3312 47.4266L69.6508 46.7703C70.1041 46.7013 70.5274 47.013 70.5961 47.4663C70.6651 47.9196 70.3534 48.3428 69.9001 48.4115C69.8796 48.4148 69.8569 48.4171 69.8364 48.4187Z" fill="#F79F8C"/>
<path d="M69.1815 47.9052L65.1722 47.9504L65.5624 47.7959L61.6716 50.9303C61.4362 51.1201 60.6026 51.1769 60.4131 50.9415C60.2289 50.7127 60.6046 50.3935 60.8221 50.2007L64.7109 46.7866C64.8116 46.6978 64.9335 46.648 65.0576 46.6361L65.1015 46.6318L69.199 46.2779C69.6552 46.234 69.9547 46.5393 69.9986 46.9956C70.0425 47.4519 69.7081 47.8576 69.2515 47.9012C69.2283 47.9038 69.2039 47.9048 69.1815 47.9052Z" fill="#F79F8C"/>
<path d="M61.5056 51.6859C61.4366 51.6859 61.3778 51.6334 61.3719 51.5634C61.3524 51.3481 65.3763 47.9932 65.4175 47.9638C65.7863 47.699 68.196 47.6224 68.6754 47.6099C68.7556 47.6175 68.8114 47.6663 68.8134 47.7406C68.8154 47.8149 68.7566 47.8766 68.6827 47.8786C67.5252 47.9093 65.7955 48.0235 65.5743 48.1823C65.1725 48.4702 61.8321 51.3745 61.6245 51.6159C61.6037 51.6538 61.5647 51.6812 61.5181 51.6855C61.5135 51.6859 61.5096 51.6859 61.5056 51.6859Z" fill="#CF5757"/>
<path d="M63.5541 51.6274C63.5108 51.6274 63.4686 51.6066 63.4425 51.5686C63.4009 51.5069 63.4168 51.423 63.4782 51.3818C63.5871 51.3075 66.151 49.5666 66.6228 49.2764C67.1141 48.974 68.9834 48.9179 69.195 48.9126C69.1963 48.9126 69.1976 48.9126 69.1986 48.9126C69.2716 48.9126 69.331 48.9707 69.333 49.0433C69.335 49.1176 69.2762 49.1794 69.2023 49.1813C68.6473 49.1955 67.1279 49.2817 66.7641 49.5055C66.2976 49.7928 63.6561 51.5865 63.6294 51.6043C63.6063 51.6201 63.5802 51.6274 63.5541 51.6274Z" fill="#CF5757"/>
<path d="M60.2425 51.2859C60.2283 51.2859 60.2144 51.2836 60.2016 51.279C60.155 51.2608 60.1223 51.2186 60.1164 51.1694C60.1134 51.1446 60.1114 51.1275 60.1732 51.0601L60.1646 51.0495C60.1775 51.039 60.1913 51.0307 60.2065 51.0254C60.3845 50.8445 60.9008 50.3916 62.3766 49.0961C63.883 47.7738 64.7371 47.0415 64.9141 46.9194C65.3416 46.6239 67.3684 46.5764 67.5982 46.5721C67.6705 46.5701 67.7339 46.6295 67.7352 46.7038C67.7369 46.7781 67.6778 46.8395 67.6035 46.8408C66.7672 46.8573 65.339 46.9527 65.067 47.1403C64.6731 47.4123 60.6311 50.9931 60.3571 51.2374C60.3544 51.2407 60.3515 51.2433 60.3482 51.246C60.3211 51.2701 60.2805 51.2859 60.2425 51.2859Z" fill="#CF5757"/>
<path d="M60.6502 40.636L65.2158 55.7389C65.3974 56.3398 64.9279 56.939 64.301 56.9063L39.8974 55.2737C39.3718 55.2384 38.9172 54.8947 38.7399 54.3985L33.8257 39.5996C33.553 38.8357 34.1311 38.0357 34.9419 38.0545L58.596 39.071C59.5468 39.0945 60.3752 39.7254 60.6502 40.636Z" fill="#9CCAE8"/>
<path d="M49.3294 46.2015C50.2433 46.7803 50.651 47.7753 50.2403 48.4241C49.8296 49.0728 48.7556 49.1296 47.8418 48.5505C46.9279 47.9718 46.5202 46.9767 46.9309 46.328C47.3416 45.6796 48.4156 45.6228 49.3294 46.2015Z" fill="white"/>
</svg>
