<svg width="44" height="100" viewBox="0 0 44 100" fill="none" xmlns="http://www.w3.org/2000/svg">
<path d="M22.0124 0C20.1264 0.000484518 18.2404 0.0146329 16.3546 0.0424439C13.9353 0.0806435 12.6365 1.18843 12.5431 2.99654C12.4243 5.2206 12.5177 7.44466 12.5177 9.84274H31.3331C31.3331 7.37251 31.4392 5.01687 31.2906 2.66548C31.1887 1.00592 29.7966 0.0763991 27.6617 0.0466883C25.7771 0.0155628 23.8941 0 22.0124 0ZM14.8563 11.5447C15.7901 13.8494 14.2112 15.0167 12.3012 16.1372C11.0752 16.8589 9.9248 17.7021 8.86749 18.6541C2.52213 24.4477 -0.55081 30.9416 1.85151 38.5858C2.2802 39.9525 3.10786 40.5127 5.1197 40.4915C15.476 40.3896 25.8323 40.4406 36.1886 40.4406C41.7361 40.4406 42.2284 40.101 42.8778 35.7845C42.9268 35.3804 42.9466 34.9733 42.9372 34.5663C42.8469 30.9689 41.8504 27.4524 40.0402 24.3423C38.2299 21.2322 35.6643 18.6291 32.5809 16.7738C30.5818 15.3732 27.7678 14.3248 28.8034 11.5447H14.8563ZM15.7477 17.8689C15.9203 17.8612 16.0932 17.864 16.2655 17.8774C13.6456 20.4626 11.2909 23.3036 9.23675 26.3577C7.93213 29.469 7.00313 32.7248 6.46941 36.0561C3.71056 29.9017 10.3997 18.132 15.7477 17.8689ZM3.49834 41.8667V75.8982H40.5349V41.8667H3.49834ZM8.09926 45.4235L8.98633 45.4405C9.17681 46.0305 9.30206 46.6397 9.35984 47.2571C9.38531 54.846 9.37257 62.4392 9.36833 70.0282C9.41285 70.4333 9.38409 70.843 9.28344 71.2379C9.18582 71.501 8.79109 71.692 8.52794 71.917C8.24357 71.7132 7.78942 71.5435 7.70878 71.2973C7.60836 70.8318 7.57973 70.3538 7.62389 69.8797C7.62389 62.4223 7.61116 54.9691 7.64087 47.5117C7.71999 46.8015 7.87363 46.1016 8.09926 45.4235ZM39.4101 77.4814C33.6293 77.5875 27.8357 77.5238 22.0506 77.5238H6.00677C2.00856 77.5238 0.926238 78.1817 0.81164 81.3353C0.657839 85.8075 0.657839 90.2838 0.81164 94.756C0.892283 97.0947 2.7301 98.7755 5.60356 99.2933C8.30723 99.7772 11.359 100.482 13.3793 97.9775C14.2536 96.8995 15.2638 96.9716 16.3504 97.8799C18.1924 99.4334 23.8629 100.664 25.5182 99.306C28.2771 97.0438 29.6013 97.6337 32.5936 99.2593C33.5772 99.7276 34.6496 99.9798 35.7387 99.9988C36.8278 100.018 37.9084 99.8035 38.9077 99.37C39.907 98.9365 40.8019 98.294 41.5321 97.4856C42.2623 96.6773 42.8109 95.722 43.1409 94.6839C43.3632 90.2172 43.3575 85.742 43.124 81.2759C43.0027 80.5284 42.7709 79.8032 42.4364 79.1239C42.0119 77.9313 41.1546 77.4474 39.4101 77.4814ZM6.07468 81.2122C6.40575 81.6154 6.99147 82.0059 7.00845 82.4218C7.11456 84.3148 7.06363 86.2163 7.06363 88.1178C7.06363 89.9472 7.10607 91.785 7.02118 93.6143C7.00421 93.9878 6.49063 94.3486 6.20626 94.7178C5.837 94.3486 5.14516 93.9836 5.14092 93.6143C5.06252 89.8868 5.05969 86.158 5.13243 82.4303C5.13667 82.0229 5.74787 81.6154 6.07468 81.2122Z" fill="#016E97"/>
</svg>
