<svg width="104" height="100" viewBox="0 0 104 100" fill="none" xmlns="http://www.w3.org/2000/svg">
<path d="M48.4889 68.5208L47.6096 90.0931L47.4924 91.3828L22.8718 89.6828C21.4649 89.5656 20.1557 88.95 18.9442 87.8363C17.7327 86.7225 16.8144 85.4426 16.1891 83.9966C15.7592 82.9414 15.4759 81.8667 15.3391 80.7725C15.2023 79.6782 15.2805 78.4081 15.5736 76.9622C15.8667 75.5162 16.1011 74.4415 16.277 73.738C16.4529 73.0346 16.873 71.784 17.5373 69.9863C18.2017 68.1886 18.573 67.153 18.6511 66.8794C21.6994 67.3484 31.6453 67.8955 48.4889 68.5208ZM25.8028 34.1692L36.3545 56.3864L27.7373 50.9933C25.2752 53.8071 23.0965 56.6306 21.2011 59.4639C19.3057 62.2973 17.8891 64.7398 16.9511 66.7915C16.0132 68.8432 15.2414 70.6898 14.6356 72.3311C14.0299 73.9725 13.6684 75.2035 13.5512 76.0242L13.3167 77.2553L2.17878 56.3278C1.51441 55.3117 1.16269 54.2174 1.12361 53.045C1.08453 51.8726 1.20177 50.9542 1.47533 50.2898L1.9443 49.2347C3.31211 46.7726 5.53969 43.0991 8.62703 38.214L0.420166 33.1727L25.8028 34.1692ZM97.9646 64.476L86.944 85.5207C86.475 86.6541 85.7618 87.5627 84.8043 88.2466C83.8469 88.9305 82.9969 89.3311 82.2543 89.4483L81.1992 89.6828C78.4245 89.9564 74.1452 90.1908 68.3613 90.3862L68.8302 100L55.3475 78.4863L67.7165 57.2657L68.1268 67.407C74.7705 68.0323 80.3003 68.13 84.7164 67.7001C89.1325 67.2702 92.4543 66.6254 94.6819 65.7656L97.9646 64.476ZM51.9476 10.3107C50.1108 12.7727 44.9326 21.2727 36.4131 35.8106L17.8304 24.8486L16.7167 24.1451L29.9063 3.27623C30.6879 2.06474 31.8603 1.18544 33.4235 0.638312C34.9867 0.0911874 36.5499 -0.104214 38.1131 0.0521071C39.0511 0.130268 39.9987 0.36475 40.9562 0.755553C41.9137 1.14636 42.7344 1.5567 43.4183 1.98658C44.1022 2.41647 44.9131 3.06129 45.851 3.92106C46.789 4.78082 47.4924 5.45496 47.9614 5.94346C48.4303 6.43197 49.1338 7.2038 50.0717 8.25897C51.0096 9.31414 51.6349 9.99805 51.9476 10.3107ZM90.344 28.3072L102.771 49.5864C103.475 51.0324 103.719 52.5174 103.504 54.0416C103.289 55.5657 102.752 57.0117 101.892 58.3795C101.384 59.1611 100.739 59.8841 99.9577 60.5484C99.1761 61.2128 98.4336 61.7599 97.7301 62.1898C97.0267 62.6197 96.079 63.0496 94.887 63.4795C93.6951 63.9093 92.7767 64.222 92.1319 64.4174C91.4871 64.6128 90.4807 64.8863 89.1129 65.2381C87.7451 65.5898 86.8463 65.8243 86.4164 65.9415C85.0877 63.1277 79.9095 54.6082 70.882 40.383L89.2302 28.952L90.344 28.3072ZM81.9612 15.0589L90.2853 10.1934L77.3888 32.0589L52.8269 30.8865L61.6786 25.8451C60.3498 22.367 58.8843 19.1233 57.282 16.1141C55.6797 13.1049 54.2044 10.6917 52.8562 8.87449C51.5079 7.05725 50.2476 5.49404 49.0751 4.18485C47.9027 2.87566 46.9844 1.96704 46.32 1.459L45.3234 0.696932L69.0647 0.755553C70.2762 0.638312 71.4095 0.843483 72.4647 1.37107C73.5199 1.89865 74.282 2.45555 74.7509 3.04175L75.3957 3.92106C76.9199 6.30496 79.1084 10.0176 81.9612 15.0589Z" fill="#016E97"/>
</svg>
