<svg width="116" height="90" viewBox="0 0 116 90" fill="none" xmlns="http://www.w3.org/2000/svg">
<path d="M52.5135 90C49.5089 90 46.9378 88.9311 44.8 86.7933C42.6622 84.6555 41.5915 82.0825 41.5878 79.0743V68.1487C41.5878 65.1441 42.6586 62.573 44.8 60.4352C46.9414 58.2974 49.5126 57.2267 52.5135 57.2231H63.4391C66.4437 57.2231 69.0167 58.2938 71.1581 60.4352C73.2995 62.5766 74.3684 65.1478 74.3648 68.1487V79.0743C74.3648 82.0789 73.2959 84.6519 71.1581 86.7933C69.0203 88.9347 66.4473 90.0036 63.4391 90H52.5135ZM8.81091 48.4825C7.53625 49.393 6.17055 49.7572 4.7138 49.5751C3.25704 49.393 2.07343 48.6646 1.16296 47.39C0.252492 46.1153 -0.0880236 44.7496 0.141415 43.2929C0.370853 41.8361 1.07556 40.6525 2.25553 39.742L51.2844 2.18513C52.2859 1.45675 53.3566 0.91047 54.4965 0.546282C55.6364 0.182094 56.7963 0 57.9763 0C59.1563 0 60.318 0.182094 61.4616 0.546282C62.6051 0.91047 63.674 1.45675 64.6683 2.18513L79.8276 13.7936V10.7891C79.8276 8.5129 80.6252 6.57906 82.2203 4.98756C83.8155 3.39605 85.7493 2.59848 88.0218 2.59484C90.2944 2.5912 92.23 3.38877 93.8288 4.98756C95.4276 6.58634 96.2233 8.52018 96.2161 10.7891V26.3581L113.834 39.742C115.017 40.6525 115.7 41.8361 115.882 43.2929C116.064 44.7496 115.7 46.1153 114.79 47.39C113.879 48.6646 112.696 49.393 111.239 49.5751C109.782 49.7572 108.416 49.393 107.142 48.4825L57.9763 10.9256L8.81091 48.4825Z" fill="#016E97"/>
</svg>
