<svg width="78" height="90" viewBox="0 0 78 90" fill="none" xmlns="http://www.w3.org/2000/svg">
<path d="M73.0185 31.7321L63.7344 87.1594C63.5889 87.9546 63.1699 88.6739 62.5499 89.1926C61.9299 89.7114 61.1479 89.997 60.3395 90H17.6605C16.8521 89.997 16.0702 89.7114 15.4502 89.1926C14.8302 88.6739 14.4111 87.9546 14.2656 87.1594L4.98156 31.7321C4.90159 31.2388 4.92929 30.734 5.06278 30.2525C5.19626 29.7709 5.43235 29.3239 5.75486 28.9421C6.07737 28.5604 6.47866 28.2529 6.93118 28.0409C7.3837 27.8288 7.87675 27.7172 8.37648 27.7136H69.5543C70.0599 27.7071 70.5607 27.8113 71.0217 28.019C71.4827 28.2266 71.8927 28.5327 72.2228 28.9156C72.5529 29.2986 72.7952 29.7491 72.9327 30.2357C73.0702 30.7223 73.0994 31.233 73.0185 31.7321ZM77.1063 17.321C77.1063 18.2398 76.7413 19.1209 76.0916 19.7706C75.442 20.4202 74.5608 20.7852 73.6421 20.7852H4.358C3.43924 20.7852 2.55811 20.4202 1.90844 19.7706C1.25878 19.1209 0.893799 18.2398 0.893799 17.321C0.893799 16.4023 1.25878 15.5211 1.90844 14.8715C2.55811 14.2218 3.43924 13.8568 4.358 13.8568H21.679V3.4642C21.679 2.54544 22.044 1.66431 22.6937 1.01464C23.3433 0.364977 24.2245 0 25.1432 0H52.8568C53.7756 0 54.6567 0.364977 55.3064 1.01464C55.9561 1.66431 56.321 2.54544 56.321 3.4642V13.8568H73.6421C74.5608 13.8568 75.442 14.2218 76.0916 14.8715C76.7413 15.5211 77.1063 16.4023 77.1063 17.321ZM49.3926 13.8568V6.92841H28.6074V13.8568H49.3926Z" fill="#016E97"/>
</svg>
