<svg width="31" height="44" viewBox="0 0 31 44" fill="none" xmlns="http://www.w3.org/2000/svg">
<path d="M17.6025 1.99756C17.6025 0.892989 16.7071 -0.00244141 15.6025 -0.00244141C14.498 -0.00244141 13.6025 0.892989 13.6025 1.99756L17.6025 1.99756ZM14.1883 43.4118C14.9694 44.1928 16.2357 44.1928 17.0168 43.4118L29.7447 30.6838C30.5257 29.9028 30.5257 28.6365 29.7447 27.8554C28.9636 27.0744 27.6973 27.0744 26.9162 27.8554L15.6025 39.1691L4.28883 27.8554C3.50778 27.0744 2.24145 27.0744 1.4604 27.8554C0.679355 28.6365 0.679355 29.9028 1.4604 30.6838L14.1883 43.4118ZM13.6025 1.99756L13.6025 41.9976H17.6025L17.6025 1.99756L13.6025 1.99756Z" fill="#FCFFFF"/>
</svg>
