<svg width="15" height="42" viewBox="0 0 15 42" fill="none" xmlns="http://www.w3.org/2000/svg">
<path d="M8.60156 0.998047C8.60156 0.445762 8.15385 -0.00195312 7.60156 -0.00195312C7.04928 -0.00195312 6.60156 0.445762 6.60156 0.998047L8.60156 0.998047ZM6.89446 41.7052C7.28498 42.0957 7.91815 42.0957 8.30867 41.7052L14.6726 35.3412C15.0632 34.9507 15.0632 34.3175 14.6726 33.927C14.2821 33.5365 13.6489 33.5365 13.2584 33.927L7.60156 39.5838L1.94471 33.927C1.55418 33.5365 0.921019 33.5365 0.530495 33.927C0.13997 34.3175 0.13997 34.9507 0.530495 35.3412L6.89446 41.7052ZM7.60156 0.998047L6.60156 0.998047L6.60156 40.998H7.60156H8.60156L8.60156 0.998047L7.60156 0.998047Z" fill="#016E97" fill-opacity="0.5"/>
</svg>
