<svg width="30" height="29" viewBox="0 0 30 29" fill="none" xmlns="http://www.w3.org/2000/svg">
<path d="M9.01156 0H21.1916C25.8316 0 29.6016 3.77 29.6016 8.41V20.59C29.6016 22.8205 28.7155 24.9596 27.1383 26.5368C25.5612 28.114 23.422 29 21.1916 29H9.01156C4.37156 29 0.601562 25.23 0.601562 20.59V8.41C0.601563 6.17953 1.48761 4.04041 3.06479 2.46323C4.64198 0.886051 6.78109 0 9.01156 0ZM8.72156 2.9C7.33713 2.9 6.00941 3.44996 5.03047 4.4289C4.05153 5.40784 3.50156 6.73557 3.50156 8.12V20.88C3.50156 23.7655 5.83606 26.1 8.72156 26.1H21.4816C22.866 26.1 24.1937 25.55 25.1727 24.5711C26.1516 23.5922 26.7016 22.2644 26.7016 20.88V8.12C26.7016 5.2345 24.3671 2.9 21.4816 2.9H8.72156ZM22.7141 5.075C23.1948 5.075 23.6558 5.26596 23.9957 5.60587C24.3356 5.94578 24.5266 6.4068 24.5266 6.8875C24.5266 7.36821 24.3356 7.82922 23.9957 8.16913C23.6558 8.50904 23.1948 8.7 22.7141 8.7C22.2334 8.7 21.7723 8.50904 21.4324 8.16913C21.0925 7.82922 20.9016 7.36821 20.9016 6.8875C20.9016 6.4068 21.0925 5.94578 21.4324 5.60587C21.7723 5.26596 22.2334 5.075 22.7141 5.075ZM15.1016 7.25C17.0244 7.25 18.8684 8.01384 20.2281 9.37348C21.5877 10.7331 22.3516 12.5772 22.3516 14.5C22.3516 16.4228 21.5877 18.2669 20.2281 19.6265C18.8684 20.9862 17.0244 21.75 15.1016 21.75C13.1787 21.75 11.3347 20.9862 9.97504 19.6265C8.6154 18.2669 7.85156 16.4228 7.85156 14.5C7.85156 12.5772 8.6154 10.7331 9.97504 9.37348C11.3347 8.01384 13.1787 7.25 15.1016 7.25ZM15.1016 10.15C13.9479 10.15 12.8414 10.6083 12.0256 11.4241C11.2099 12.2399 10.7516 13.3463 10.7516 14.5C10.7516 15.6537 11.2099 16.7601 12.0256 17.5759C12.8414 18.3917 13.9479 18.85 15.1016 18.85C16.2553 18.85 17.3617 18.3917 18.1775 17.5759C18.9933 16.7601 19.4516 15.6537 19.4516 14.5C19.4516 13.3463 18.9933 12.2399 18.1775 11.4241C17.3617 10.6083 16.2553 10.15 15.1016 10.15Z" fill="#016E97"/>
</svg>
