<svg width="32" height="31" viewBox="0 0 32 31" fill="none" xmlns="http://www.w3.org/2000/svg">
<mask id="mask0_254_3691" style="mask-type:luminance" maskUnits="userSpaceOnUse" x="0" y="0" width="32" height="31">
<path d="M0.868286 0H31.6021V30.7338H0.868286V0Z" fill="white"/>
</mask>
<g mask="url(#mask0_254_3691)">
<path fill-rule="evenodd" clip-rule="evenodd" d="M0.868286 15.4527C0.868286 23.0939 6.41702 29.4456 13.674 30.7338V19.6351H9.83231V15.3669H13.674V11.9516C13.674 8.10989 16.1494 5.97645 19.6505 5.97645C20.7595 5.97645 21.9555 6.14676 23.0645 6.31708V10.2446H21.1014C19.2228 10.2446 18.7963 11.1833 18.7963 12.3793V15.3669H22.8942L22.2116 19.6351H18.7963V30.7338C26.0534 29.4456 31.6021 23.0939 31.6021 15.4527C31.6021 6.95353 24.687 0 16.2352 0C7.78339 0 0.868286 6.95353 0.868286 15.4527Z" fill="#016E97"/>
</g>
</svg>
