<svg width="32" height="31" viewBox="0 0 32 31" fill="none" xmlns="http://www.w3.org/2000/svg">
<path d="M0.602051 2.20131C0.602051 0.985403 1.61242 0 2.85907 0H29.0788C30.3255 0 31.3359 0.985403 31.3359 2.20131V28.5325C31.3359 29.7484 30.3255 30.7338 29.0788 30.7338H2.85907C1.61242 30.7338 0.602051 29.7484 0.602051 28.5325V2.20131ZM10.0969 25.728V11.8498H5.48489V25.728H10.0969ZM7.79184 9.95391C9.3996 9.95391 10.4004 8.88976 10.4004 7.55668C10.3716 6.19478 9.40153 5.15944 7.82258 5.15944C6.24363 5.15944 5.21212 6.1967 5.21212 7.55668C5.21212 8.88976 6.21289 9.95391 7.76111 9.95391H7.79184ZM17.2194 25.728V17.9774C17.2194 17.5625 17.2502 17.1475 17.3731 16.8517C17.7054 16.0238 18.4642 15.1652 19.7396 15.1652C21.4088 15.1652 22.0754 16.4368 22.0754 18.3039V25.728H26.6874V17.768C26.6874 13.5037 24.4131 11.5213 21.3781 11.5213C18.9309 11.5213 17.8341 12.8659 17.2194 13.8129V13.8609H17.1887L17.2194 13.8129V11.8498H12.6094C12.667 13.1522 12.6094 25.728 12.6094 25.728H17.2194Z" fill="#016E97"/>
</svg>
