<svg width="35" height="29" viewBox="0 0 35 29" fill="none" xmlns="http://www.w3.org/2000/svg">
<path d="M34.8682 3.41167C33.6104 3.98819 32.2592 4.37774 30.8386 4.55381C32.3044 3.64663 33.4009 2.21883 33.9237 0.536822C32.5466 1.3829 31.0395 1.97844 29.4678 2.29757C28.4109 1.13028 27.011 0.356581 25.4854 0.0965954C23.9598 -0.163391 22.3939 0.104881 21.0309 0.85976C19.6678 1.61464 18.5838 2.81389 17.9471 4.27132C17.3105 5.72875 17.1569 7.36283 17.5101 8.91984C14.7198 8.77483 11.9901 8.0246 9.49826 6.71785C7.00639 5.4111 4.80798 3.57701 3.04567 1.33461C2.44311 2.40976 2.09664 3.6563 2.09664 4.98387C2.09597 6.17899 2.3805 7.3558 2.92498 8.4099C3.46946 9.46399 4.25705 10.3628 5.21789 11.0265C4.1036 10.9896 3.01391 10.6782 2.0394 10.1181V10.2116C2.03929 11.8878 2.59983 13.5124 3.62591 14.8098C4.65199 16.1071 6.08041 16.9973 7.66879 17.3293C6.63502 17.6183 5.55134 17.6609 4.49934 17.454C4.94729 18.8964 5.82019 20.1577 6.99578 21.0614C8.17137 21.965 9.59077 22.4656 11.0552 22.4932C8.56925 24.5114 5.49938 25.6063 2.33917 25.6017C1.77942 25.6002 1.22018 25.5664 0.664062 25.5005C3.87278 27.6319 7.60634 28.7639 11.4197 28.7617C24.3295 28.7617 31.387 17.7018 31.387 8.10958C31.387 7.79691 31.3799 7.48423 31.3659 7.17156C32.738 6.14392 33.9228 4.87245 34.8652 3.41634L34.8682 3.41167Z" fill="#016E97"/>
</svg>
