<svg width="30" height="30" viewBox="0 0 30 30" fill="none" xmlns="http://www.w3.org/2000/svg">
<path d="M9.01352 0.603516H21.1935C25.8335 0.603516 29.6035 4.37352 29.6035 9.01352V21.1935C29.6035 23.424 28.7175 25.5631 27.1403 27.1403C25.5631 28.7175 23.424 29.6035 21.1935 29.6035H9.01352C4.37352 29.6035 0.603516 25.8335 0.603516 21.1935V9.01352C0.603516 6.78305 1.48957 4.64393 3.06675 3.06675C4.64393 1.48957 6.78305 0.603516 9.01352 0.603516ZM8.72352 3.50352C7.33909 3.50352 6.01136 4.05348 5.03242 5.03242C4.05348 6.01136 3.50352 7.33909 3.50352 8.72352V21.4835C3.50352 24.369 5.83802 26.7035 8.72352 26.7035H21.4835C22.8679 26.7035 24.1957 26.1536 25.1746 25.1746C26.1536 24.1957 26.7035 22.8679 26.7035 21.4835V8.72352C26.7035 5.83802 24.369 3.50352 21.4835 3.50352H8.72352ZM22.716 5.67852C23.1967 5.67852 23.6577 5.86947 23.9976 6.20938C24.3376 6.54929 24.5285 7.01031 24.5285 7.49102C24.5285 7.97172 24.3376 8.43274 23.9976 8.77265C23.6577 9.11256 23.1967 9.30352 22.716 9.30352C22.2353 9.30352 21.7743 9.11256 21.4344 8.77265C21.0945 8.43274 20.9035 7.97172 20.9035 7.49102C20.9035 7.01031 21.0945 6.54929 21.4344 6.20938C21.7743 5.86947 22.2353 5.67852 22.716 5.67852ZM15.1035 7.85352C17.0263 7.85352 18.8704 8.61735 20.23 9.97699C21.5897 11.3366 22.3535 13.1807 22.3535 15.1035C22.3535 17.0263 21.5897 18.8704 20.23 20.23C18.8704 21.5897 17.0263 22.3535 15.1035 22.3535C13.1807 22.3535 11.3366 21.5897 9.97699 20.23C8.61735 18.8704 7.85352 17.0263 7.85352 15.1035C7.85352 13.1807 8.61735 11.3366 9.97699 9.97699C11.3366 8.61735 13.1807 7.85352 15.1035 7.85352ZM15.1035 10.7535C13.9498 10.7535 12.8434 11.2118 12.0276 12.0276C11.2118 12.8434 10.7535 13.9498 10.7535 15.1035C10.7535 16.2572 11.2118 17.3636 12.0276 18.1794C12.8434 18.9952 13.9498 19.4535 15.1035 19.4535C16.2572 19.4535 17.3636 18.9952 18.1794 18.1794C18.9952 17.3636 19.4535 16.2572 19.4535 15.1035C19.4535 13.9498 18.9952 12.8434 18.1794 12.0276C17.3636 11.2118 16.2572 10.7535 15.1035 10.7535Z" fill="white"/>
</svg>
