<svg width="35" height="30" viewBox="0 0 35 30" fill="none" xmlns="http://www.w3.org/2000/svg">
<path d="M34.6026 4.01518C33.3448 4.59171 31.9935 4.98126 30.573 5.15733C32.0387 4.25014 33.1353 2.82234 33.6581 1.14034C32.281 1.98641 30.7739 2.58196 29.2022 2.90108C28.1453 1.73379 26.7454 0.960097 25.2198 0.700111C23.6942 0.440125 22.1283 0.708397 20.7652 1.46328C19.4022 2.21815 18.3182 3.41741 17.6815 4.87484C17.0449 6.33227 16.8912 7.96634 17.2444 9.52335C14.4541 9.37834 11.7245 8.62812 9.23263 7.32136C6.74077 6.01461 4.54235 4.18053 2.78005 1.93813C2.17749 3.01327 1.83102 4.25982 1.83102 5.58739C1.83035 6.78251 2.11487 7.95932 2.65935 9.01341C3.20383 10.0675 3.99143 10.9663 4.95227 11.63C3.83798 11.5932 2.74829 11.2817 1.77377 10.7216V10.8151C1.77366 12.4913 2.3342 14.1159 3.36028 15.4133C4.38636 16.7106 5.81478 17.6009 7.40317 17.9329C6.36939 18.2218 5.28572 18.2644 4.23372 18.0575C4.68167 19.4999 5.55457 20.7613 6.73016 21.6649C7.90575 22.5685 9.32514 23.0691 10.7895 23.0967C8.30363 25.1149 5.23375 26.2098 2.07355 26.2052C1.51379 26.2037 0.954554 26.1699 0.398438 26.104C3.60716 28.2354 7.34072 29.3674 11.1541 29.3652C24.0639 29.3652 31.1213 18.3053 31.1213 8.7131C31.1213 8.40043 31.1143 8.08775 31.1002 7.77507C32.4724 6.74744 33.6572 5.47597 34.5996 4.01986L34.6026 4.01518Z" fill="white"/>
</svg>
