<svg width="32" height="32" viewBox="0 0 32 32" fill="none" xmlns="http://www.w3.org/2000/svg">
<path d="M0.335938 2.80483C0.335938 1.58892 1.34631 0.603516 2.59295 0.603516H28.8127C30.0594 0.603516 31.0697 1.58892 31.0697 2.80483V29.136C31.0697 30.3519 30.0594 31.3373 28.8127 31.3373H2.59295C1.34631 31.3373 0.335938 30.3519 0.335938 29.136V2.80483ZM9.83076 26.3316V12.4533H5.21877V26.3316H9.83076ZM7.52573 10.5574C9.13349 10.5574 10.1343 9.49327 10.1343 8.16019C10.1054 6.7983 9.13541 5.76295 7.55646 5.76295C5.97751 5.76295 4.94601 6.80022 4.94601 8.16019C4.94601 9.49327 5.94678 10.5574 7.495 10.5574H7.52573ZM16.9533 26.3316V18.5809C16.9533 18.166 16.9841 17.7511 17.107 17.4552C17.4393 16.6274 18.198 15.7687 19.4735 15.7687C21.1427 15.7687 21.8093 17.0403 21.8093 18.9074V26.3316H26.4213V18.3715C26.4213 14.1072 24.147 12.1249 21.112 12.1249C18.6648 12.1249 17.568 13.4695 16.9533 14.4164V14.4645H16.9226L16.9533 14.4164V12.4533H12.3433C12.4009 13.7557 12.3433 26.3316 12.3433 26.3316H16.9533Z" fill="white"/>
</svg>
