<svg width="195" height="182" viewBox="0 0 195 182" fill="none" xmlns="http://www.w3.org/2000/svg">
<g clip-path="url(#clip0_2_1568)">
<path d="M92.0526 1.60694L86.1169 4.84557L12.9881 44.7462L7.05244 47.9848C4.17227 49.5605 2.03473 52.2144 1.10878 55.3641C0.182829 58.5139 0.544088 61.9023 2.1133 64.786L56.5706 164.594C58.1463 167.474 60.8001 169.611 63.9498 170.537C67.0996 171.463 70.488 171.102 73.3717 169.533L73.387 169.525L158.356 123.163L158.372 123.155C161.252 121.579 163.39 118.925 164.316 115.776C165.241 112.626 164.88 109.238 163.311 106.354L108.854 6.54612C107.278 3.66594 104.624 1.5284 101.474 0.602439C98.3247 -0.323518 94.9363 0.0377334 92.0526 1.60694Z" fill="#F2F2F2"/>
<path d="M93.7602 4.73632L86.7298 8.57225L15.7903 47.2784L8.76001 51.1143C6.70896 52.2364 5.18676 54.1262 4.52737 56.3692C3.86797 58.6122 4.12523 61.0252 5.24271 63.0788L59.7 162.887C60.8221 164.938 62.7119 166.46 64.9549 167.119C67.1979 167.779 69.6109 167.521 71.6644 166.404L71.6798 166.395L156.649 120.034L156.665 120.026C158.716 118.904 160.238 117.014 160.897 114.771C161.557 112.528 161.299 110.115 160.182 108.061L105.725 8.25367C104.603 6.20263 102.713 4.68044 100.47 4.02103C98.2267 3.36163 95.8138 3.61887 93.7602 4.73632Z" fill="white"/>
<path d="M94.9325 35.7165L63.2422 53.0074C62.7621 53.2694 62.1976 53.3299 61.6729 53.1756C61.1482 53.0214 60.7063 52.665 60.4443 52.1849C60.1824 51.7049 60.1219 51.1404 60.2761 50.6157C60.4304 50.091 60.7867 49.649 61.2668 49.3871L92.9571 32.0962C93.4372 31.8342 94.0017 31.7737 94.5264 31.928C95.0511 32.0822 95.4931 32.4386 95.755 32.9187C96.017 33.3987 96.0774 33.9632 95.9232 34.4879C95.769 35.0126 95.4126 35.4546 94.9325 35.7165Z" fill="#F2F2F2"/>
<path d="M105.732 37.7517L66.5752 59.1167C66.0951 59.3787 65.5306 59.4392 65.0059 59.2849C64.4812 59.1307 64.0393 58.7743 63.7773 58.2942C63.5154 57.8141 63.4549 57.2497 63.6091 56.725C63.7634 56.2003 64.1197 55.7583 64.5998 55.4964L103.757 34.1313C103.995 34.0016 104.256 33.92 104.525 33.8911C104.794 33.8623 105.067 33.8867 105.326 33.9631C105.586 34.0395 105.828 34.1663 106.039 34.3363C106.25 34.5063 106.425 34.7161 106.555 34.9538C106.685 35.1915 106.766 35.4525 106.795 35.7217C106.824 35.991 106.8 36.2633 106.723 36.5231C106.647 36.7829 106.52 37.0251 106.35 37.2359C106.18 37.4467 105.97 37.622 105.732 37.7517Z" fill="#F2F2F2"/>
<path d="M50.2138 45.8101L20.9971 61.7513C20.7671 61.8769 20.5964 62.0886 20.5225 62.34C20.4486 62.5914 20.4776 62.8619 20.6031 63.0919L33.0443 85.8938C33.1698 86.1238 33.3815 86.2945 33.6329 86.3684C33.8843 86.4423 34.1548 86.4134 34.3848 86.2879L63.6015 70.3467C63.8315 70.2211 64.0022 70.0093 64.0761 69.758C64.15 69.5066 64.121 69.2361 63.9956 69.0061L51.5544 46.2042C51.4288 45.9742 51.2171 45.8035 50.9657 45.7296C50.7143 45.6557 50.4439 45.6846 50.2138 45.8101Z" fill="#F2F2F2"/>
<path d="M110.656 64.6486L67.6718 88.1016C67.4341 88.2313 67.1732 88.3129 66.9039 88.3418C66.6347 88.3707 66.3624 88.3462 66.1026 88.2698C65.8428 88.1935 65.6005 88.0667 65.3897 87.8967C65.1789 87.7267 65.0037 87.5168 64.874 87.2791C64.7443 87.0414 64.6627 86.7805 64.6338 86.5112C64.605 86.242 64.6294 85.9697 64.7058 85.7099C64.7822 85.4501 64.909 85.2078 65.079 84.997C65.2489 84.7862 65.4588 84.611 65.6965 84.4813L108.68 61.0283C109.161 60.7663 109.725 60.7058 110.25 60.8601C110.774 61.0143 111.216 61.3707 111.478 61.8508C111.74 62.3309 111.801 62.8954 111.647 63.4201C111.492 63.9447 111.136 64.3867 110.656 64.6486Z" fill="#F2F2F2"/>
<path d="M121.457 66.6838L71.0058 94.2109C70.5257 94.4729 69.9613 94.5334 69.4366 94.3791C68.9119 94.2249 68.4699 93.8685 68.208 93.3884C67.946 92.9083 67.8855 92.3438 68.0398 91.8192C68.194 91.2945 68.5504 90.8525 69.0305 90.5906L119.481 63.0634C119.962 62.8015 120.526 62.741 121.051 62.8952C121.575 63.0495 122.017 63.4059 122.279 63.8859C122.541 64.366 122.602 64.9305 122.447 65.4552C122.293 65.9799 121.937 66.4218 121.457 66.6838Z" fill="#F2F2F2"/>
<path d="M51.3022 107.309C56.1338 107.309 60.0506 103.392 60.0506 98.5605C60.0506 93.7288 56.1338 89.812 51.3022 89.812C46.4705 89.812 42.5537 93.7288 42.5537 98.5605C42.5537 103.392 46.4705 107.309 51.3022 107.309Z" fill="#F2F2F2"/>
<path d="M182.197 42.7324H85.3673C82.0843 42.7361 78.9368 44.0419 76.6153 46.3634C74.2939 48.6848 72.9881 51.8323 72.9844 55.1154V168.813C72.9881 172.096 74.2939 175.244 76.6153 177.565C78.9368 179.887 82.0843 181.192 85.3673 181.196H182.197C185.48 181.192 188.627 179.887 190.949 177.565C193.27 175.244 194.576 172.096 194.58 168.813V55.1154C194.576 51.8323 193.27 48.6848 190.949 46.3634C188.627 44.0419 185.48 42.7361 182.197 42.7324Z" fill="#E6E6E6"/>
<path d="M182.197 46.2974H85.368C83.0301 46.3 80.7886 47.2299 79.1355 48.883C77.4823 50.5362 76.5524 52.7776 76.5498 55.1155V168.813C76.5524 171.151 77.4823 173.393 79.1355 175.046C80.7886 176.699 83.0301 177.629 85.368 177.631H182.197C184.535 177.629 186.777 176.699 188.43 175.046C190.083 173.393 191.013 171.151 191.016 168.813V55.1155C191.013 52.7776 190.083 50.5362 188.43 48.8831C186.777 47.2299 184.535 46.3 182.197 46.2974Z" fill="white"/>
<path d="M168.387 74.0544H132.287C131.74 74.0544 131.215 73.8371 130.829 73.4504C130.442 73.0637 130.225 72.5392 130.225 71.9923C130.225 71.4454 130.442 70.9209 130.829 70.5341C131.215 70.1474 131.74 69.9302 132.287 69.9302H168.387C168.658 69.9299 168.927 69.983 169.177 70.0865C169.428 70.19 169.655 70.3418 169.847 70.5333C170.039 70.7248 170.191 70.9523 170.295 71.2026C170.398 71.4529 170.452 71.7213 170.452 71.9923C170.452 72.2633 170.398 72.5316 170.295 72.7819C170.191 73.0323 170.039 73.2597 169.847 73.4512C169.655 73.6427 169.428 73.7945 169.177 73.898C168.927 74.0015 168.658 74.0547 168.387 74.0544Z" fill="#016E97"/>
<path d="M176.893 81.0138H132.287C131.74 81.0138 131.215 80.7966 130.829 80.4099C130.442 80.0231 130.225 79.4986 130.225 78.9517C130.225 78.4048 130.442 77.8803 130.829 77.4936C131.215 77.1069 131.74 76.8896 132.287 76.8896H176.893C177.44 76.8896 177.965 77.1069 178.352 77.4936C178.738 77.8803 178.956 78.4048 178.956 78.9517C178.956 79.4986 178.738 80.0231 178.352 80.4099C177.965 80.7966 177.44 81.0138 176.893 81.0138Z" fill="#016E97"/>
<path d="M124.298 61.4961H91.0154C90.7533 61.4962 90.5021 61.6003 90.3168 61.7856C90.1315 61.9708 90.0274 62.2221 90.0273 62.4842V88.4593C90.0274 88.7213 90.1315 88.9726 90.3168 89.1579C90.5021 89.3432 90.7533 89.4473 91.0154 89.4474H124.298C124.56 89.4473 124.811 89.3432 124.997 89.1579C125.182 88.9726 125.286 88.7213 125.286 88.4593V62.4842C125.286 62.2221 125.182 61.9708 124.997 61.7856C124.811 61.6003 124.56 61.4962 124.298 61.4961Z" fill="#E6E6E6"/>
<path d="M100.144 77.4466C100.158 79.6394 99.3498 81.7577 97.879 83.3842C96.4237 84.9813 94.2571 86.0405 92.0707 85.6023C90.0575 85.1987 88.4215 83.4392 88.6256 81.3105C88.6595 80.8495 88.7935 80.4013 89.0183 79.9974C89.2431 79.5934 89.5533 79.2433 89.9273 78.9715C90.3013 78.6997 90.73 78.5128 91.1837 78.4237C91.6373 78.3346 92.1049 78.3455 92.5539 78.4557C94.4664 78.952 95.2284 81.7083 93.6347 83.002C93.2523 83.3125 92.7029 82.7695 93.0889 82.4562C94.1424 81.6009 93.8169 79.7299 92.5453 79.2607C91.0649 78.7144 89.4963 79.8894 89.3898 81.4029C89.2636 83.1974 90.6383 84.5489 92.3242 84.867C94.148 85.2112 95.9562 84.2778 97.192 82.9894C98.6083 81.4933 99.3898 79.5066 99.3724 77.4466C99.3759 77.3465 99.4181 77.2517 99.4901 77.1822C99.5621 77.1126 99.6583 77.0737 99.7584 77.0737C99.8585 77.0737 99.9547 77.1126 100.027 77.1822C100.099 77.2517 100.141 77.3465 100.144 77.4466Z" fill="#2F2E41"/>
<path d="M107.682 82.3537C115.287 82.3537 121.453 76.1883 121.453 68.5829C121.453 60.9774 115.287 54.812 107.682 54.812C100.077 54.812 93.9111 60.9774 93.9111 68.5829C93.9111 76.1883 100.077 82.3537 107.682 82.3537Z" fill="#016E97"/>
<path d="M106.977 74.4588L106.963 73.9441C107.92 73.9175 108.764 73.8574 109.399 73.3941C109.578 73.2553 109.726 73.0793 109.832 72.8783C109.938 72.6772 109.999 72.4557 110.011 72.2289C110.022 72.0903 110.001 71.951 109.95 71.8219C109.899 71.6927 109.818 71.5771 109.715 71.4841C109.294 71.1286 108.616 71.2437 108.122 71.4701L107.697 71.6653L108.513 65.6982L109.023 65.7681L108.328 70.8439C108.999 70.6466 109.621 70.7316 110.047 71.0911C110.21 71.2339 110.339 71.4125 110.422 71.613C110.505 71.8135 110.54 72.0305 110.525 72.247C110.51 72.5518 110.429 72.8496 110.287 73.1195C110.145 73.3894 109.945 73.625 109.702 73.8097C108.887 74.4052 107.828 74.4349 106.977 74.4588Z" fill="#2F2E41"/>
<path d="M114.317 66.2061H111.545V66.7207H114.317V66.2061Z" fill="#2F2E41"/>
<path d="M105.568 66.2061H102.797V66.7207H105.568V66.2061Z" fill="#2F2E41"/>
<path d="M100.054 89.4473C101.086 88.7924 102.201 88.2792 103.37 87.9215C103.259 87.525 103.261 87.1051 103.376 86.7096C103.531 86.2099 103.843 85.7738 104.267 85.4663C104.69 85.1588 105.202 84.9965 105.725 85.0036H109.08C109.604 84.997 110.116 85.1596 110.541 85.4675C110.965 85.7753 111.278 86.2118 111.435 86.7122C111.549 87.1069 111.551 87.5259 111.44 87.9215C112.608 88.2796 113.724 88.7928 114.756 89.4473H100.054Z" fill="#2F2E41"/>
<path d="M123.456 63.4722C123.205 63.1683 122.897 62.9173 122.548 62.7337C122.242 62.574 121.902 62.4902 121.557 62.4893C121.084 62.4951 120.624 62.6499 120.243 62.9318C119.195 63.6729 118.47 65.2707 118.47 67.1208C118.47 69.4417 119.612 71.3664 121.097 71.7009C121.248 71.7348 121.402 71.752 121.557 71.7523C123.258 71.7523 124.645 69.6759 124.645 67.1208C124.645 65.6387 124.179 64.3187 123.456 63.4722Z" fill="#3F3D56"/>
<path d="M95.1728 62.8212H95.1703C94.8262 62.6076 94.4301 62.4928 94.0252 62.4893C93.6802 62.4902 93.3404 62.574 93.0345 62.7337C92.6859 62.9173 92.3772 63.1683 92.1263 63.4722L92.1237 63.4747C91.4032 64.3213 90.9375 65.6413 90.9375 67.1208C90.9375 69.1175 91.7814 70.8209 92.965 71.4719C93.2891 71.6534 93.6538 71.7499 94.0252 71.7523C94.1078 71.7523 94.1903 71.7471 94.2722 71.7369H94.2747C95.8598 71.5465 97.1129 69.5498 97.1129 67.1208C97.1129 65.1755 96.3075 63.5056 95.1728 62.8212Z" fill="#3F3D56"/>
<path d="M93.1587 71.0293C93.22 71.0293 93.2804 71.0146 93.3349 70.9866C93.3894 70.9586 93.4364 70.9181 93.4722 70.8683C93.5079 70.8186 93.5313 70.761 93.5404 70.7004C93.5495 70.6398 93.544 70.5779 93.5245 70.5199C92.7868 68.3263 92.5649 65.9921 92.876 63.6988C93.1871 61.4055 94.0229 59.2149 95.3182 57.2971C96.6136 55.3793 98.3338 53.786 100.345 52.6411C102.356 51.4962 104.604 50.8304 106.915 50.6956C109.225 50.5608 111.536 50.9606 113.666 51.8639C115.797 52.7671 117.691 54.1495 119.2 55.9037C120.71 57.6578 121.795 59.7364 122.371 61.978C122.946 64.2195 122.997 66.5636 122.52 68.8281C122.499 68.9283 122.518 69.0328 122.574 69.1185C122.63 69.2043 122.718 69.2643 122.818 69.2855C122.918 69.3066 123.022 69.2871 123.108 69.2312C123.194 69.1753 123.254 69.0876 123.275 68.9874C123.777 66.6066 123.724 64.142 123.119 61.7851C122.514 59.4283 121.374 57.2427 119.786 55.3983C118.199 53.5539 116.208 52.1004 113.968 51.1506C111.728 50.2009 109.298 49.7806 106.869 49.9224C104.44 50.0642 102.076 50.7642 99.9619 51.9681C97.8473 53.172 96.0389 54.8474 94.6771 56.8639C93.3153 58.8804 92.4369 61.1838 92.1101 63.595C91.7834 66.0063 92.0171 68.4604 92.793 70.7666C92.8189 70.8432 92.868 70.9097 92.9336 70.9568C92.9992 71.0039 93.078 71.0293 93.1587 71.0293Z" fill="#3F3D56"/>
<path d="M114.6 59.6604C115.145 60.4048 114.876 61.4079 114.302 62.0496C113.554 62.8847 112.362 62.9374 111.327 62.7824C110.165 62.6085 108.933 62.0643 107.757 62.431C106.755 62.7436 106.04 63.6527 104.999 63.881C104.075 64.0835 102.971 63.8155 102.647 62.8312C102.492 62.3582 103.237 62.1554 103.392 62.626C103.601 63.2627 104.505 63.25 105.023 63.0737C105.854 62.791 106.493 62.1034 107.31 61.7749C108.272 61.3877 109.316 61.5625 110.295 61.7831C111.218 61.991 112.281 62.2993 113.201 61.9109C113.881 61.6235 114.423 60.7183 113.933 60.0501C113.64 59.6489 114.309 59.2634 114.6 59.6604Z" fill="#2F2E41"/>
<path d="M168.333 106.983H119.367C119.096 106.983 118.828 106.93 118.578 106.826C118.327 106.722 118.1 106.571 117.909 106.379C117.717 106.188 117.565 105.96 117.462 105.71C117.358 105.46 117.305 105.192 117.305 104.921C117.305 104.65 117.358 104.382 117.462 104.132C117.565 103.882 117.717 103.654 117.909 103.463C118.1 103.271 118.327 103.119 118.578 103.016C118.828 102.912 119.096 102.859 119.367 102.859H168.333C168.879 102.859 169.403 103.077 169.789 103.464C170.176 103.85 170.393 104.374 170.393 104.921C170.393 105.467 170.176 105.992 169.789 106.378C169.403 106.765 168.879 106.982 168.333 106.983Z" fill="#E6E6E6"/>
<path d="M176.839 113.943H119.367C119.096 113.943 118.828 113.89 118.577 113.786C118.327 113.683 118.099 113.531 117.908 113.339C117.716 113.148 117.564 112.92 117.46 112.67C117.356 112.42 117.303 112.151 117.303 111.88C117.303 111.609 117.356 111.341 117.46 111.091C117.564 110.84 117.716 110.613 117.908 110.422C118.099 110.23 118.327 110.078 118.577 109.975C118.828 109.871 119.096 109.818 119.367 109.818H176.839C177.11 109.818 177.379 109.871 177.629 109.975C177.88 110.078 178.107 110.23 178.299 110.422C178.491 110.613 178.643 110.84 178.746 111.091C178.85 111.341 178.904 111.609 178.904 111.88C178.904 112.151 178.85 112.42 178.746 112.67C178.643 112.92 178.491 113.148 178.299 113.339C178.107 113.531 177.88 113.683 177.629 113.786C177.379 113.89 177.11 113.943 176.839 113.943Z" fill="#E6E6E6"/>
<path d="M168.333 131.997H119.367C118.82 131.997 118.295 131.779 117.909 131.393C117.522 131.006 117.305 130.482 117.305 129.935C117.305 129.388 117.522 128.863 117.909 128.477C118.295 128.09 118.82 127.873 119.367 127.873H168.333C168.88 127.873 169.404 128.09 169.791 128.477C170.178 128.863 170.395 129.388 170.395 129.935C170.395 130.482 170.178 131.006 169.791 131.393C169.404 131.779 168.88 131.997 168.333 131.997Z" fill="#E6E6E6"/>
<path d="M176.839 138.956H119.367C118.82 138.956 118.295 138.739 117.909 138.352C117.522 137.966 117.305 137.441 117.305 136.894C117.305 136.347 117.522 135.823 117.909 135.436C118.295 135.049 118.82 134.832 119.367 134.832H176.839C177.386 134.832 177.91 135.049 178.297 135.436C178.684 135.823 178.901 136.347 178.901 136.894C178.901 137.441 178.684 137.966 178.297 138.352C177.91 138.739 177.386 138.956 176.839 138.956Z" fill="#E6E6E6"/>
<path d="M99.9877 117.072C104.819 117.072 108.736 113.155 108.736 108.323C108.736 103.492 104.819 99.5747 99.9877 99.5747C95.1561 99.5747 91.2393 103.492 91.2393 108.323C91.2393 113.155 95.1561 117.072 99.9877 117.072Z" fill="#E6E6E6"/>
<path d="M99.9877 142.288C104.819 142.288 108.736 138.371 108.736 133.539C108.736 128.708 104.819 124.791 99.9877 124.791C95.1561 124.791 91.2393 128.708 91.2393 133.539C91.2393 138.371 95.1561 142.288 99.9877 142.288Z" fill="#E6E6E6"/>
<path d="M168.333 157.213H119.367C118.82 157.213 118.295 156.996 117.909 156.609C117.522 156.222 117.305 155.698 117.305 155.151C117.305 154.604 117.522 154.08 117.909 153.693C118.295 153.306 118.82 153.089 119.367 153.089H168.333C168.88 153.089 169.404 153.306 169.791 153.693C170.178 154.08 170.395 154.604 170.395 155.151C170.395 155.698 170.178 156.222 169.791 156.609C169.404 156.996 168.88 157.213 168.333 157.213Z" fill="#E6E6E6"/>
<path d="M176.839 164.173H119.367C118.82 164.173 118.295 163.955 117.909 163.569C117.522 163.182 117.305 162.657 117.305 162.11C117.305 161.564 117.522 161.039 117.909 160.652C118.295 160.266 118.82 160.048 119.367 160.048H176.839C177.386 160.048 177.91 160.266 178.297 160.652C178.684 161.039 178.901 161.564 178.901 162.11C178.901 162.657 178.684 163.182 178.297 163.569C177.91 163.955 177.386 164.173 176.839 164.173Z" fill="#E6E6E6"/>
<path d="M99.9877 167.504C104.819 167.504 108.736 163.587 108.736 158.755C108.736 153.924 104.819 150.007 99.9877 150.007C95.1561 150.007 91.2393 153.924 91.2393 158.755C91.2393 163.587 95.1561 167.504 99.9877 167.504Z" fill="#E6E6E6"/>
</g>
<defs>
<clipPath id="clip0_2_1568">
<rect width="193.977" height="181.1" fill="white" transform="translate(0.602539 0.0961914)"/>
</clipPath>
</defs>
</svg>
