<svg width="239" height="182" viewBox="0 0 239 182" fill="none" xmlns="http://www.w3.org/2000/svg">
<g clip-path="url(#clip0_2_1646)">
<path d="M221.124 164.906C213.315 170.853 203.801 176.877 194.447 179.718C191.751 180.561 188.968 181.099 186.152 181.323C183.519 181.534 180.869 181.329 178.3 180.713C171.549 179.034 165.288 176.094 159.229 172.658C157.25 171.534 155.293 170.358 153.348 169.157C150.173 167.195 147.029 165.164 143.877 163.181C143.405 162.881 142.936 162.586 142.464 162.295H142.461C141.7 161.817 140.937 161.346 140.173 160.882C140.038 160.799 139.904 160.719 139.766 160.636C138.322 159.76 136.852 158.905 135.358 158.07C135.175 157.97 134.992 157.867 134.809 157.767C131.918 156.163 128.947 154.709 125.907 153.41C123.911 152.569 121.888 151.811 119.846 151.165H119.843C119.062 150.919 118.278 150.687 117.492 150.475C115.133 149.828 112.729 149.358 110.301 149.068C106.954 148.663 103.569 148.69 100.229 149.148C100.003 149.179 99.7796 149.211 99.5537 149.248C90.5145 150.695 82.2649 155.575 73.1858 156.725C72.8911 156.763 72.5994 156.797 72.3047 156.823C72.1789 156.834 72.053 156.848 71.9271 156.857C69.2887 157.083 66.6335 157.017 64.0093 156.662C56.6779 155.696 49.5382 152.695 43.1106 148.913C28.0845 140.072 15.8989 126.481 8.49024 110.743C7.21801 108.046 6.08847 105.284 5.1063 102.468C2.36021 94.6593 0.847934 86.4707 0.623911 78.1965C-0.0711865 49.4887 16.2421 20.6865 41.8549 7.7028C67.4705 -5.28092 101.167 -0.987341 121.825 18.9588C134.357 31.0586 141.608 47.4549 151.039 62.1035C160.47 76.7491 173.875 90.7397 191.163 92.8737C199.971 93.9606 209.187 91.8582 217.629 94.5928C222.303 96.1089 226.29 99.0094 229.503 102.705C231.662 105.213 233.469 108.004 234.874 111.001C235.904 113.167 236.74 115.42 237.372 117.734C237.489 118.16 237.598 118.587 237.704 119.013C241.908 136.187 235.189 154.191 221.124 164.906Z" fill="#F2F2F2"/>
<path d="M80.4572 133.816H53.5686C49.5401 133.816 46.2744 137.082 46.2744 141.11V141.11C46.2744 145.139 49.5401 148.404 53.5686 148.404H80.4572C84.4857 148.404 87.7514 145.139 87.7514 141.11C87.7514 137.082 84.4857 133.816 80.4572 133.816Z" fill="#3F3D56"/>
<path d="M72.3052 144.686V156.823C69.5431 157.09 66.7594 157.036 64.0098 156.662V144.686H72.3052Z" fill="#3F3D56"/>
<path d="M100.229 149.148C100.003 149.18 99.7794 149.211 99.5534 149.248C90.5143 150.696 82.2647 155.576 73.1855 156.725C72.8909 156.763 72.5991 156.797 72.3045 156.823C72.1786 156.834 72.0528 156.849 71.9269 156.857C69.71 154.686 67.4932 152.375 65.4107 149.98C64.2808 148.685 63.1881 147.363 62.1612 146.024C59.4953 142.569 57.2355 139.016 55.7423 135.526C55.8939 133.853 54.8527 129.983 54.355 127.019L54.3521 127.017C54.1404 125.772 54.026 124.691 54.1318 123.996C54.7383 119.985 58.0135 120.446 59.0204 116.516C59.9287 115.762 60.8958 115.082 61.9124 114.482C62.0811 114.382 62.2528 114.282 62.4301 114.182L73.3571 106.63L77.5334 110.726L83.8894 116.962L90.7775 123.716L84.9307 129.622C84.9307 129.622 89.8164 135.255 95.5287 142.764C97.062 144.78 98.6553 146.934 100.229 149.148Z" fill="#2F2E41"/>
<path d="M194.448 144.686V179.718C191.751 180.561 188.969 181.099 186.152 181.323V144.686H194.448Z" fill="#3F3D56"/>
<path d="M205.174 141.825H178.285C174.257 141.825 170.991 145.091 170.991 149.119V149.119C170.991 153.148 174.257 156.414 178.285 156.414H205.174C209.202 156.414 212.468 153.148 212.468 149.119C212.468 145.091 209.202 141.825 205.174 141.825Z" fill="#3F3D56"/>
<path d="M139.767 160.636C138.322 159.76 136.853 158.905 135.359 158.07C135.176 157.97 134.993 157.867 134.81 157.767L135.794 157.346L138.448 156.205L138.474 156.193L138.502 156.291L139.767 160.636Z" fill="#FFB6B6"/>
<path d="M143.876 163.181C143.404 162.881 142.935 162.586 142.463 162.295H142.461C141.7 161.817 140.937 161.346 140.172 160.881C140.038 160.798 139.903 160.718 139.766 160.635C138.321 159.76 136.852 158.905 135.358 158.07C135.175 157.969 134.992 157.866 134.809 157.766C131.918 156.163 128.947 154.709 125.907 153.41C123.91 152.569 121.888 151.811 119.846 151.164H119.843L118.238 148.478L111.015 136.381L109.428 133.724C109.428 133.724 104.013 135.326 96.3496 136.862C93.5606 137.423 90.477 137.972 87.2418 138.435C83.7835 138.927 80.1564 139.319 76.5522 139.508C74.833 139.599 73.1196 139.645 71.4319 139.631C67.0697 139.602 62.8791 139.193 59.2091 138.221C57.9848 137.071 54.2948 135.506 51.6517 134.073H51.6488C50.539 133.472 49.6179 132.897 49.1345 132.385C46.3484 129.439 48.7283 127.142 46.2511 123.927C46.2178 122.747 46.278 121.567 46.4313 120.397C46.4571 120.203 46.4828 120.005 46.5143 119.805L47.2952 106.544L53.0962 105.777L61.9237 104.61L71.4863 103.346L72.5389 111.59C72.5389 111.59 79.9848 111.212 89.4186 111.338C104.571 111.544 124.846 113.054 127.592 119.536C127.849 120.145 128.107 120.76 128.364 121.375C128.976 122.846 129.583 124.324 130.183 125.809C132.36 131.187 134.437 136.616 136.333 141.748C137.512 144.94 138.622 148.018 139.643 150.898C140.464 153.215 141.225 155.406 141.92 157.423C142.555 159.265 143.13 160.962 143.642 162.483C143.722 162.721 143.799 162.955 143.876 163.181Z" fill="#2F2E41"/>
<path d="M90.5133 82.834L72.1904 67.2726L84.1115 55.208L92.4283 68.8305L123.257 74.9425C124.184 74.2448 125.294 73.832 126.451 73.7543C127.609 73.6765 128.764 73.9373 129.776 74.5047C130.788 75.0722 131.613 75.9218 132.15 76.95C132.688 77.9782 132.914 79.1405 132.803 80.2953C132.691 81.4501 132.245 82.5474 131.521 83.4534C130.796 84.3594 129.824 85.035 128.722 85.3979C127.62 85.7607 126.436 85.7951 125.315 85.4968C124.194 85.1985 123.183 84.5804 122.407 83.7179L90.5133 82.834Z" fill="#A0616A"/>
<path d="M55.9966 46.8211C53.8791 53.7099 74.0461 70.1397 74.0461 70.1397C74.2702 68.4859 85.7043 82.7468 86.4822 81.4553C88.6931 77.7847 91.1258 68.7113 93.6782 67.5517C95.1379 66.8885 86.7642 57.6706 86.7642 57.6706C86.7642 57.6706 82.4928 52.0194 76.8531 44.8572C75.2962 42.8028 73.2448 41.1757 70.89 40.1273C68.5351 39.079 65.9532 38.6434 63.3848 38.8613C63.3848 38.8613 58.1142 39.9323 55.9966 46.8211Z" fill="#3F3D56"/>
<path d="M64.9133 31.5712C71.7576 31.5712 77.306 26.0227 77.306 19.1784C77.306 12.3341 71.7576 6.78564 64.9133 6.78564C58.0689 6.78564 52.5205 12.3341 52.5205 19.1784C52.5205 26.0227 58.0689 31.5712 64.9133 31.5712Z" fill="#A0616A"/>
<path d="M71.1099 39.7615C73.7797 41.3488 75.3768 44.2651 76.2936 47.2327C77.991 52.7269 79.0127 58.4075 79.3361 64.1488L80.3045 81.3372L92.2975 117.936C81.9035 126.731 42.8343 119.935 42.8343 119.935C42.8343 119.935 41.635 119.535 42.8343 118.336C44.0336 117.137 45.2011 118.199 44.0018 117C42.8026 115.801 43.6293 117.137 44.0291 115.937C44.4289 114.738 44.0291 115.538 43.6293 115.138C43.2295 114.738 46.7241 111.14 46.7241 111.14L43.526 90.132L39.5283 47.7568C44.3255 41.7603 53.9733 38.2254 53.9733 38.2254L56.4662 33.7383L68.9305 34.7354L71.1099 39.7615Z" fill="#3F3D56"/>
<path d="M75.1289 12.5941C76.0921 13.3125 76.8057 14.3149 77.1692 15.4602C77.3089 13.5885 77.3177 11.7095 77.1958 9.83662C77.0497 8.52056 76.1231 8.22453 75.0503 7.88152C74.0814 7.57161 72.9856 7.22154 72.6908 5.94395C68.7952 2.15426 62.0139 2.34536 57.3728 3.66726C54.8191 4.39468 53.3497 5.32927 53.2182 5.87676L53.191 5.98946L53.0873 6.04131C51.1188 7.02556 50.7356 10.1336 50.7609 12.5676C50.8089 17.1533 52.3922 22.3616 53.2842 22.7847C53.3314 22.8071 53.3433 22.7983 53.3638 22.7813C54.7069 21.7079 56.3455 22.8628 57.0656 23.4907C57.4903 20.6405 58.8579 18.0149 60.9499 16.0332C63.0419 14.0515 65.7376 12.828 68.6065 12.5581C69.5435 12.4675 70.4729 12.3117 71.3881 12.0917C71.8524 11.9716 72.3296 11.9089 72.8091 11.9052C73.6346 11.8927 74.4441 12.1331 75.1289 12.5941Z" fill="#2F2E41"/>
<path d="M59.5141 101.505L55.7232 99.5639C55.52 99.4191 55.3758 99.2062 55.3167 98.9639C55.2576 98.7216 55.2876 98.4661 55.4013 98.2441C55.515 98.0221 55.7048 97.8484 55.9359 97.7548C56.1671 97.6611 56.4242 97.6537 56.6603 97.7339L60.4513 99.6755C60.6544 99.8202 60.7987 100.033 60.8578 100.275C60.9168 100.518 60.8868 100.773 60.7731 100.995C60.6594 101.217 60.4697 101.391 60.2385 101.485C60.0074 101.578 59.7502 101.586 59.5141 101.505Z" fill="#016E97"/>
<path d="M46.7557 96.3036L40.5195 73.0873L57.1843 69.9326L56.2882 85.8681L78.1843 108.414C79.3435 108.367 80.4914 108.657 81.4881 109.251C82.4848 109.845 83.2873 110.716 83.7976 111.758C84.3079 112.8 84.504 113.968 84.362 115.119C84.22 116.27 83.7461 117.356 82.998 118.242C82.2499 119.129 81.2599 119.779 80.1488 120.113C79.0378 120.447 77.8535 120.45 76.7406 120.123C75.6276 119.795 74.634 119.151 73.8809 118.268C73.1278 117.386 72.6477 116.303 72.4992 115.153L46.7557 96.3036Z" fill="#A0616A"/>
<path d="M38.8137 47.057C33.157 51.5227 40.4173 76.5014 40.4173 76.5014C41.5414 75.2678 42.8477 93.4999 44.2216 92.879C48.1266 91.1147 55.2838 85.0304 58.0431 85.5264C59.6211 85.81 57.9678 73.4668 57.9678 73.4668C57.9678 73.4668 57.6638 66.3895 57.0923 57.2913C56.9784 54.7161 56.2149 52.2116 54.8727 50.0109C53.5305 47.8102 51.6534 45.9848 49.416 44.7048C49.416 44.7048 44.4703 42.5914 38.8137 47.057Z" fill="#3F3D56"/>
<path d="M234.875 111.001L8.49038 110.743C7.21816 108.046 6.08862 105.284 5.10645 102.468L229.503 102.705C231.662 105.213 233.47 108.004 234.875 111.001Z" fill="#3F3D56"/>
<path d="M162.77 171.019C161.6 171.586 160.42 172.132 159.229 172.658C157.249 171.534 155.293 170.359 153.348 169.157L160.562 165.988L162.77 171.019Z" fill="#FFB6B6"/>
<path d="M215.369 131.602C214.196 133.175 212.987 134.717 211.739 136.227C210.589 137.62 209.409 138.986 208.198 140.326C207.697 140.881 207.191 141.433 206.673 141.979C205.721 143.001 204.747 144.005 203.753 144.991C201.962 145.555 198.335 146.548 194.448 147.474C191.619 148.147 188.652 148.784 186.152 149.191C184.753 149.442 183.337 149.593 181.916 149.643C180.228 149.657 178.515 149.611 176.796 149.52C174.856 149.417 172.914 149.256 170.995 149.05C166.003 148.527 161.169 147.712 156.998 146.874C155.471 146.57 154.035 146.262 152.713 145.961C150.21 145.398 148.117 144.871 146.6 144.471C144.893 144.025 143.92 143.736 143.92 143.736L139.644 150.898L137.424 154.614L135.794 157.346L135.359 158.07C135.176 157.969 134.993 157.867 134.81 157.766C131.919 156.163 128.948 154.709 125.908 153.41C123.911 152.569 121.889 151.811 119.846 151.164H119.844C119.063 150.918 118.279 150.687 117.492 150.475C117.738 149.814 117.987 149.149 118.239 148.478C118.708 147.228 119.187 145.967 119.675 144.694C120.73 141.936 121.823 139.139 122.947 136.356C123.868 134.07 124.806 131.793 125.756 129.548C126.194 128.512 127.083 127.603 128.328 126.805C128.922 126.43 129.543 126.097 130.184 125.809C133.745 124.187 138.992 123.132 144.773 122.454C145.25 122.399 145.731 122.345 146.214 122.294C151 121.79 156.077 121.53 160.826 121.41C163.203 121.35 165.497 121.327 167.631 121.324C168.32 121.324 168.99 121.326 169.642 121.33H169.645C171.404 121.338 173.023 121.364 174.447 121.392C174.725 121.398 174.994 121.407 175.257 121.413H175.26C175.437 121.415 175.611 121.421 175.783 121.424C178.898 121.504 180.809 121.601 180.809 121.601L181.55 115.789L181.701 114.616L181.844 113.5V113.498L181.862 113.357L181.979 113.355L184.038 113.314L201.35 112.977L210.807 112.791L209.308 119.216L206.834 129.817C207.085 131.493 215.455 130.18 215.369 131.602Z" fill="#2F2E41"/>
<path d="M164.905 169.961C164.198 170.321 163.486 170.676 162.771 171.019C161.601 171.586 160.42 172.132 159.229 172.658C157.25 171.534 155.293 170.358 153.348 169.157C150.173 167.195 147.03 165.164 143.877 163.182C143.405 162.881 142.936 162.587 142.464 162.295H142.461C141.163 160.367 139.838 158.359 138.502 156.291C138.482 156.262 138.465 156.233 138.448 156.205C138.105 155.679 137.763 155.148 137.424 154.614C135.287 151.268 133.139 147.778 131.054 144.214L136.334 141.748L146.151 137.165L147.845 136.376L152.713 145.961L157.055 154.511L158.022 156.414L164.905 169.961Z" fill="#2F2E41"/>
<path d="M166.384 123.941L191.413 99.8029L198.351 80.16L188.118 75.7104C182.862 80.7453 177.18 96.4273 177.18 96.4273L159.957 118.34C159.823 118.386 159.689 118.435 159.556 118.493C158.781 118.835 158.106 119.372 157.598 120.05C157.09 120.729 156.766 121.528 156.657 122.369C156.548 123.209 156.658 124.064 156.975 124.85C157.293 125.636 157.808 126.327 158.471 126.856C159.134 127.385 159.922 127.733 160.759 127.869C161.596 128.004 162.453 127.921 163.249 127.628C164.045 127.335 164.751 126.842 165.3 126.196C165.849 125.55 166.223 124.773 166.384 123.941Z" fill="#FFB8B8"/>
<path d="M185.238 77.9035L198.218 82.0241L198.267 82.0159C203.098 81.2067 207.106 73.3165 209.618 66.84C210.445 64.7037 210.43 62.3333 209.575 60.208C208.721 58.0827 207.092 56.361 205.017 55.391C203.481 54.6858 201.779 54.4242 200.102 54.6357C198.426 54.8472 196.842 55.5235 195.53 56.588L188.865 62.0341L185.238 77.9035Z" fill="#016E97"/>
<path d="M215.317 131.892L215.393 131.791C219.443 126.42 213.904 113.119 213.067 111.19L216.832 110.075L216.176 102.906L215.86 99.7087L218.787 96.9284L218.797 96.8575L220.811 82.5286L223.445 73.045C224.438 69.4598 224.459 65.6749 223.506 62.0789C222.553 58.4829 220.66 55.2053 218.021 52.5826L212.636 47.2356L206.184 37.1362L195.365 36.8569L191.475 43.7676C187.858 44.5059 184.614 46.4899 182.308 49.3741C180.003 52.2583 178.783 55.8598 178.86 59.5513L179.226 77.9487L175.344 100.743L175.235 104.884L171.425 108.904L172.13 112.969L169.28 114.104L167.885 119.88C167.353 120.546 163.836 124.991 163.804 126.23C163.799 126.417 163.932 126.6 164.221 126.807C166.498 128.436 179.221 131.965 184.947 129.843C191.047 127.585 214.952 131.826 215.193 131.869L215.317 131.892Z" fill="#016E97"/>
<path d="M199.829 33.7608C207.744 33.7608 214.161 27.3441 214.161 19.4287C214.161 11.5134 207.744 5.09668 199.829 5.09668C191.914 5.09668 185.497 11.5134 185.497 19.4287C185.497 27.3441 191.914 33.7608 199.829 33.7608Z" fill="#FFB8B8"/>
<path d="M198.081 33.9525C200.301 33.9871 202.519 33.832 204.712 33.4891C206.886 33.047 211.749 29.4835 213.104 27.3391C214.111 25.7458 214.755 23.2578 215.118 21.4513C215.607 19.0608 215.589 16.5942 215.064 14.2113C214.539 11.8284 213.519 9.58239 212.071 7.61859C211.514 6.79719 210.746 6.14149 209.847 5.72085C209.768 5.6897 209.686 5.6621 209.603 5.63851C208.294 5.29397 207.117 4.56591 206.224 3.54781C206.051 3.34189 205.863 3.1487 205.663 2.96975C204.654 2.11829 203.458 1.5177 202.172 1.21705C200.097 0.661714 197.094 1.21296 193.247 2.85706C191.314 3.68309 189.2 3.38415 187.574 3.03139C187.483 3.01378 187.388 3.02035 187.3 3.05046C187.213 3.08057 187.134 3.13317 187.073 3.20303C186.381 3.85256 185.469 4.21614 184.52 4.22069C183.939 4.24621 183.329 5.05102 182.592 6.10052C182.424 6.33876 182.229 6.6168 182.089 6.78591L182.07 6.46101L181.741 6.82346C181.224 7.39313 180.86 8.08432 180.682 8.83267C180.504 9.58101 180.519 10.3622 180.724 11.1034C180.93 11.8446 181.319 12.5218 181.857 13.072C182.394 13.6221 183.062 14.0272 183.799 14.2496C184.383 14.4051 184.982 14.5006 185.587 14.5345C185.952 14.5674 186.331 14.6015 186.694 14.6644C187.858 14.9028 188.94 15.4389 189.835 16.2206C190.73 17.0022 191.407 18.0025 191.8 19.1239C191.893 19.3831 192.045 19.6175 192.243 19.809C192.44 20.0005 192.68 20.1439 192.942 20.2282C193.204 20.3125 193.482 20.3355 193.754 20.2953C194.027 20.2551 194.286 20.1529 194.513 19.9965C194.891 19.7022 195.334 19.5038 195.805 19.418C196.277 19.3322 196.761 19.3616 197.219 19.5038C197.614 19.7235 197.922 20.0725 198.09 20.4921C198.295 20.9596 198.634 21.3555 199.065 21.6293C200.538 22.3888 200.639 25.7533 200.11 28.558C199.6 31.2615 198.592 33.2173 197.659 33.3139C196.94 33.3883 196.858 33.4393 196.806 33.5664L196.76 33.6802L196.84 33.7866C197.237 33.9304 197.66 33.987 198.081 33.9525Z" fill="#2F2E41"/>
<path d="M188.798 73.5705L183.272 62.5532C175.251 63.1011 159.331 72.3754 159.331 72.3754L129.211 78.7615C128.318 78.4186 127.351 78.3167 126.407 78.4661C125.463 78.6156 124.575 79.0112 123.832 79.613C123.089 80.2149 122.518 81.0017 122.176 81.8944C121.834 82.7871 121.734 83.7542 121.884 84.6982C122.035 85.6422 122.432 86.5298 123.034 87.2718C123.637 88.0138 124.425 88.5839 125.318 88.9248C126.211 89.2656 127.178 89.3652 128.122 89.2135C129.066 89.0617 129.953 88.664 130.694 88.0604L169.009 85.314L188.798 73.5705Z" fill="#FFB8B8"/>
<path d="M186.569 75.3796L201.001 64.6543L203.544 55.493C204.036 53.6927 204.015 51.7905 203.483 50.0014C202.952 48.2122 201.93 46.6075 200.534 45.3686C198.63 43.7018 196.165 42.8201 193.636 42.9017C191.107 42.9833 188.703 44.0221 186.911 45.8081C181.48 51.2291 175.286 58.7918 176.616 64.036L176.63 64.0892L186.569 75.3796Z" fill="#016E97"/>
<path d="M168.703 104.067H130.087V109.216H168.703V104.067Z" fill="white"/>
<path d="M70.0159 104.067H31.3994V109.216H70.0159V104.067Z" fill="white"/>
<path d="M74.5254 79.3059V103.821C74.5256 104.134 74.6499 104.433 74.8708 104.654C75.0917 104.875 75.3912 104.999 75.7036 105H112.033C112.345 104.999 112.645 104.875 112.866 104.654C113.087 104.433 113.211 104.134 113.211 103.821V79.3059C113.211 78.9937 113.086 78.6946 112.865 78.474C112.644 78.2534 112.345 78.1293 112.033 78.1289H75.7036C75.3915 78.1293 75.0922 78.2534 74.8714 78.474C74.6506 78.6946 74.5261 78.9937 74.5254 79.3059Z" fill="#3F3D56"/>
<path d="M75.3779 79.611V103.519C75.3782 103.686 75.4447 103.846 75.5627 103.964C75.6807 104.082 75.8407 104.148 76.0076 104.149H111.731C111.898 104.148 112.058 104.082 112.176 103.964C112.294 103.846 112.36 103.686 112.361 103.519V79.611C112.361 79.4439 112.294 79.2836 112.176 79.1653C112.058 79.047 111.898 78.9803 111.731 78.98H76.0076C75.8405 78.9803 75.6804 79.047 75.5623 79.1653C75.4443 79.2836 75.3779 79.4439 75.3779 79.611Z" fill="#016E97"/>
<path d="M73.7654 108.603C73.832 108.686 73.9166 108.753 74.0129 108.799C74.1092 108.846 74.2146 108.869 74.3214 108.869H113.222C113.328 108.869 113.433 108.845 113.529 108.799C113.625 108.753 113.71 108.686 113.777 108.604C113.844 108.521 113.891 108.425 113.916 108.321C113.941 108.218 113.943 108.11 113.921 108.006L113.317 105.138C113.292 105.021 113.239 104.912 113.161 104.821C113.083 104.73 112.984 104.66 112.872 104.618C112.791 104.586 112.705 104.57 112.618 104.57H74.9228C74.8359 104.57 74.7497 104.586 74.6688 104.618C74.557 104.66 74.4577 104.73 74.3799 104.821C74.302 104.912 74.2481 105.021 74.2231 105.138L73.6193 108.006C73.5978 108.11 73.5998 108.218 73.625 108.321C73.6503 108.424 73.6983 108.52 73.7654 108.603Z" fill="#2F2E41"/>
<path d="M111.283 105.805H112.202C112.279 105.805 112.342 105.743 112.342 105.666V105.226C112.342 105.149 112.279 105.086 112.202 105.086H111.283C111.206 105.086 111.144 105.149 111.144 105.226V105.666C111.144 105.743 111.206 105.805 111.283 105.805Z" fill="#3F3D56"/>
<path d="M108.887 105.805H109.806C109.883 105.805 109.945 105.743 109.945 105.666V105.226C109.945 105.149 109.883 105.086 109.806 105.086H108.887C108.81 105.086 108.747 105.149 108.747 105.226V105.666C108.747 105.743 108.81 105.805 108.887 105.805Z" fill="#3F3D56"/>
<path d="M106.491 105.805H107.41C107.487 105.805 107.55 105.743 107.55 105.666V105.226C107.55 105.149 107.487 105.086 107.41 105.086H106.491C106.414 105.086 106.352 105.149 106.352 105.226V105.666C106.352 105.743 106.414 105.805 106.491 105.805Z" fill="#3F3D56"/>
<path d="M104.095 105.805H105.014C105.091 105.805 105.153 105.743 105.153 105.666V105.226C105.153 105.149 105.091 105.086 105.014 105.086H104.095C104.018 105.086 103.955 105.149 103.955 105.226V105.666C103.955 105.743 104.018 105.805 104.095 105.805Z" fill="#3F3D56"/>
<path d="M101.698 105.805H102.617C102.694 105.805 102.757 105.743 102.757 105.666V105.226C102.757 105.149 102.694 105.086 102.617 105.086H101.698C101.621 105.086 101.559 105.149 101.559 105.226V105.666C101.559 105.743 101.621 105.805 101.698 105.805Z" fill="#3F3D56"/>
<path d="M99.3019 105.805H100.221C100.298 105.805 100.36 105.743 100.36 105.666V105.226C100.36 105.149 100.298 105.086 100.221 105.086H99.3019C99.2248 105.086 99.1622 105.149 99.1622 105.226V105.666C99.1622 105.743 99.2248 105.805 99.3019 105.805Z" fill="#3F3D56"/>
<path d="M96.9064 105.805H97.8252C97.9023 105.805 97.9648 105.743 97.9648 105.666V105.226C97.9648 105.149 97.9023 105.086 97.8252 105.086H96.9064C96.8293 105.086 96.7667 105.149 96.7667 105.226V105.666C96.7667 105.743 96.8293 105.805 96.9064 105.805Z" fill="#3F3D56"/>
<path d="M94.5099 105.805H95.4287C95.5058 105.805 95.5684 105.743 95.5684 105.666V105.226C95.5684 105.149 95.5058 105.086 95.4287 105.086H94.5099C94.4328 105.086 94.3703 105.149 94.3703 105.226V105.666C94.3703 105.743 94.4328 105.805 94.5099 105.805Z" fill="#3F3D56"/>
<path d="M92.1134 105.805H93.0322C93.1094 105.805 93.1719 105.743 93.1719 105.666V105.226C93.1719 105.149 93.1094 105.086 93.0322 105.086H92.1134C92.0363 105.086 91.9738 105.149 91.9738 105.226V105.666C91.9738 105.743 92.0363 105.805 92.1134 105.805Z" fill="#3F3D56"/>
<path d="M89.7169 105.805H90.6357C90.7129 105.805 90.7754 105.743 90.7754 105.666V105.226C90.7754 105.149 90.7129 105.086 90.6357 105.086H89.7169C89.6398 105.086 89.5773 105.149 89.5773 105.226V105.666C89.5773 105.743 89.6398 105.805 89.7169 105.805Z" fill="#3F3D56"/>
<path d="M87.3214 105.805H88.2402C88.3174 105.805 88.3799 105.743 88.3799 105.666V105.226C88.3799 105.149 88.3174 105.086 88.2402 105.086H87.3214C87.2443 105.086 87.1818 105.149 87.1818 105.226V105.666C87.1818 105.743 87.2443 105.805 87.3214 105.805Z" fill="#3F3D56"/>
<path d="M84.9249 105.805H85.8438C85.9209 105.805 85.9834 105.743 85.9834 105.666V105.226C85.9834 105.149 85.9209 105.086 85.8438 105.086H84.9249C84.8478 105.086 84.7853 105.149 84.7853 105.226V105.666C84.7853 105.743 84.8478 105.805 84.9249 105.805Z" fill="#3F3D56"/>
<path d="M82.5285 105.805H83.4473C83.5244 105.805 83.5869 105.743 83.5869 105.666V105.226C83.5869 105.149 83.5244 105.086 83.4473 105.086H82.5285C82.4513 105.086 82.3888 105.149 82.3888 105.226V105.666C82.3888 105.743 82.4513 105.805 82.5285 105.805Z" fill="#3F3D56"/>
<path d="M80.1329 105.805H81.0518C81.1289 105.805 81.1914 105.743 81.1914 105.666V105.226C81.1914 105.149 81.1289 105.086 81.0518 105.086H80.1329C80.0558 105.086 79.9933 105.149 79.9933 105.226V105.666C79.9933 105.743 80.0558 105.805 80.1329 105.805Z" fill="#3F3D56"/>
<path d="M77.7365 105.805H78.6553C78.7324 105.805 78.7949 105.743 78.7949 105.666V105.226C78.7949 105.149 78.7324 105.086 78.6553 105.086H77.7365C77.6593 105.086 77.5968 105.149 77.5968 105.226V105.666C77.5968 105.743 77.6593 105.805 77.7365 105.805Z" fill="#3F3D56"/>
<path d="M75.34 105.805H76.2588C76.3359 105.805 76.3984 105.743 76.3984 105.666V105.226C76.3984 105.149 76.3359 105.086 76.2588 105.086H75.34C75.2629 105.086 75.2003 105.149 75.2003 105.226V105.666C75.2003 105.743 75.2629 105.805 75.34 105.805Z" fill="#3F3D56"/>
<path d="M111.312 107.003H112.23C112.308 107.003 112.37 106.941 112.37 106.864V106.424C112.37 106.347 112.308 106.285 112.23 106.285H111.312C111.235 106.285 111.172 106.347 111.172 106.424V106.864C111.172 106.941 111.235 107.003 111.312 107.003Z" fill="#3F3D56"/>
<path d="M108.915 107.003H109.834C109.911 107.003 109.974 106.941 109.974 106.864V106.424C109.974 106.347 109.911 106.285 109.834 106.285H108.915C108.838 106.285 108.776 106.347 108.776 106.424V106.864C108.776 106.941 108.838 107.003 108.915 107.003Z" fill="#3F3D56"/>
<path d="M106.52 107.003H107.438C107.516 107.003 107.578 106.941 107.578 106.864V106.424C107.578 106.347 107.516 106.285 107.438 106.285H106.52C106.443 106.285 106.38 106.347 106.38 106.424V106.864C106.38 106.941 106.443 107.003 106.52 107.003Z" fill="#3F3D56"/>
<path d="M104.123 107.003H105.042C105.119 107.003 105.182 106.941 105.182 106.864V106.424C105.182 106.347 105.119 106.285 105.042 106.285H104.123C104.046 106.285 103.984 106.347 103.984 106.424V106.864C103.984 106.941 104.046 107.003 104.123 107.003Z" fill="#3F3D56"/>
<path d="M101.727 107.003H102.646C102.723 107.003 102.785 106.941 102.785 106.864V106.424C102.785 106.347 102.723 106.285 102.646 106.285H101.727C101.65 106.285 101.587 106.347 101.587 106.424V106.864C101.587 106.941 101.65 107.003 101.727 107.003Z" fill="#3F3D56"/>
<path d="M99.3302 107.003H100.249C100.326 107.003 100.389 106.941 100.389 106.864V106.424C100.389 106.347 100.326 106.285 100.249 106.285H99.3302C99.2531 106.285 99.1906 106.347 99.1906 106.424V106.864C99.1906 106.941 99.2531 107.003 99.3302 107.003Z" fill="#3F3D56"/>
<path d="M96.9347 107.003H97.8535C97.9307 107.003 97.9932 106.941 97.9932 106.864V106.424C97.9932 106.347 97.9307 106.285 97.8535 106.285H96.9347C96.8576 106.285 96.7951 106.347 96.7951 106.424V106.864C96.7951 106.941 96.8576 107.003 96.9347 107.003Z" fill="#3F3D56"/>
<path d="M94.5382 107.003H95.457C95.5342 107.003 95.5967 106.941 95.5967 106.864V106.424C95.5967 106.347 95.5342 106.285 95.457 106.285H94.5382C94.4611 106.285 94.3986 106.347 94.3986 106.424V106.864C94.3986 106.941 94.4611 107.003 94.5382 107.003Z" fill="#3F3D56"/>
<path d="M92.1417 107.003H93.0605C93.1377 107.003 93.2002 106.941 93.2002 106.864V106.424C93.2002 106.347 93.1377 106.285 93.0605 106.285H92.1417C92.0646 106.285 92.0021 106.347 92.0021 106.424V106.864C92.0021 106.941 92.0646 107.003 92.1417 107.003Z" fill="#3F3D56"/>
<path d="M89.7453 107.003H90.6641C90.7412 107.003 90.8037 106.941 90.8037 106.864V106.424C90.8037 106.347 90.7412 106.285 90.6641 106.285H89.7453C89.6681 106.285 89.6056 106.347 89.6056 106.424V106.864C89.6056 106.941 89.6681 107.003 89.7453 107.003Z" fill="#3F3D56"/>
<path d="M87.3497 107.003H88.2686C88.3457 107.003 88.4082 106.941 88.4082 106.864V106.424C88.4082 106.347 88.3457 106.285 88.2686 106.285H87.3497C87.2726 106.285 87.2101 106.347 87.2101 106.424V106.864C87.2101 106.941 87.2726 107.003 87.3497 107.003Z" fill="#3F3D56"/>
<path d="M84.9532 107.003H85.8721C85.9492 107.003 86.0117 106.941 86.0117 106.864V106.424C86.0117 106.347 85.9492 106.285 85.8721 106.285H84.9532C84.8761 106.285 84.8136 106.347 84.8136 106.424V106.864C84.8136 106.941 84.8761 107.003 84.9532 107.003Z" fill="#3F3D56"/>
<path d="M82.5568 107.003H83.4756C83.5527 107.003 83.6152 106.941 83.6152 106.864V106.424C83.6152 106.347 83.5527 106.285 83.4756 106.285H82.5568C82.4796 106.285 82.4171 106.347 82.4171 106.424V106.864C82.4171 106.941 82.4796 107.003 82.5568 107.003Z" fill="#3F3D56"/>
<path d="M80.1613 107.003H81.0801C81.1572 107.003 81.2197 106.941 81.2197 106.864V106.424C81.2197 106.347 81.1572 106.285 81.0801 106.285H80.1613C80.0841 106.285 80.0216 106.347 80.0216 106.424V106.864C80.0216 106.941 80.0841 107.003 80.1613 107.003Z" fill="#3F3D56"/>
<path d="M77.7648 107.003H78.6836C78.7607 107.003 78.8232 106.941 78.8232 106.864V106.424C78.8232 106.347 78.7607 106.285 78.6836 106.285H77.7648C77.6877 106.285 77.6251 106.347 77.6251 106.424V106.864C77.6251 106.941 77.6877 107.003 77.7648 107.003Z" fill="#3F3D56"/>
<path d="M75.3683 107.003H76.2871C76.3642 107.003 76.4268 106.941 76.4268 106.864V106.424C76.4268 106.347 76.3642 106.285 76.2871 106.285H75.3683C75.2912 106.285 75.2286 106.347 75.2286 106.424V106.864C75.2286 106.941 75.2912 107.003 75.3683 107.003Z" fill="#3F3D56"/>
<path d="M91.4229 108.441H100.729C100.806 108.441 100.868 108.378 100.868 108.301V107.862C100.868 107.785 100.806 107.722 100.729 107.722H91.4229C91.3458 107.722 91.2833 107.785 91.2833 107.862V108.301C91.2833 108.378 91.3458 108.441 91.4229 108.441Z" fill="#3F3D56"/>
</g>
<defs>
<clipPath id="clip0_2_1646">
<rect width="238.342" height="181.1" fill="white" transform="translate(0.602539 0.296387)"/>
</clipPath>
</defs>
</svg>
