<svg width="231" height="182" viewBox="0 0 231 182" fill="none" xmlns="http://www.w3.org/2000/svg">
<g clip-path="url(#clip0_2_1602)">
<path d="M56.7048 21.6688L26.8252 25.188L30.1624 53.5222L60.0421 50.0029L56.7048 21.6688Z" fill="#2F2E41"/>
<path d="M41.433 38.0018C49.5347 38.0018 56.1024 31.4341 56.1024 23.3325C56.1024 15.2308 49.5347 8.66309 41.433 8.66309C33.3314 8.66309 26.7637 15.2308 26.7637 23.3325C26.7637 31.4341 33.3314 38.0018 41.433 38.0018Z" fill="#FFB6B6"/>
<path d="M31.7616 0.580243C22.62 3.11808 23.4714 6.52572 20.7015 8.67297C15.8216 12.4559 14.8254 21.8377 18.3096 27.5408C19.2406 29.0646 21.0622 31.0783 20.5833 33.5407C20.2156 35.431 18.6638 36.7034 18.3715 36.9351C15.9793 38.8319 17.4412 36.7384 16.4322 38.2082C15.3185 39.8304 17.5568 41.6731 16.6451 44.4508C15.8369 46.9134 13.5808 46.9793 13.4637 48.4817C13.262 51.0689 19.5932 55.4775 25.6468 54.3592C31.0368 53.3635 34.5311 48.296 35.3731 43.812C35.9371 40.8083 35.7405 35.7792 33.1293 33.63C32.763 33.3286 31.7743 32.6106 30.7652 31.2969C29.9667 30.2572 28.9154 28.8887 29.3101 27.8121C29.7306 26.6651 31.3514 27.0518 32.2191 25.9025C33.3959 24.3439 31.523 22.1653 31.491 19.7205C31.4368 15.5808 36.6518 9.97988 42.8842 10.0216C49.9543 10.0689 53.4026 17.3449 53.7645 18.1417C54.5146 19.7934 54.6993 21.455 55.0685 24.7782C55.5984 29.5473 55.9305 32.5364 54.7972 35.7787C53.1671 40.4421 50.3726 40.2882 49.9798 43.6585C49.3676 48.9133 55.6848 53.3744 56.4057 53.8702C61.7501 57.5463 69.2171 57.9614 70.2248 55.8988C71.1327 54.0402 65.9367 51.9273 65.4658 46.5354C65.0576 41.8628 68.6585 39.9997 67.4646 36.8983C66.1505 33.4845 61.4449 34.8528 58.9483 31.1113C56.618 27.619 59.8634 25.1469 58.401 17.5956C58.0917 15.9983 57.0409 11.4329 53.5207 7.20188C51.9698 5.33788 50.3926 3.44212 47.7622 2.65699C44.8176 1.77804 36.5972 -0.762176 31.7616 0.580243Z" fill="#2F2E41"/>
<path d="M27.0962 14.1877C27.8499 17.3333 32.8244 18.3324 34.9153 18.4899C35.8008 18.5566 38.7934 18.7819 41.5518 17.1859C42.5713 16.596 42.9133 16.1308 44.0062 15.8522C45.486 15.475 46.3107 15.9576 48.7641 16.3364C51.4922 16.7577 52.8563 16.9684 53.4613 16.3055C54.4502 15.222 53.2367 12.2011 51.7028 10.2449C48.8667 6.6277 44.3732 5.93342 42.2775 5.60955C39.8832 5.23955 35.0243 4.48872 31.0046 7.45959C30.4671 7.85678 26.3305 10.9917 27.0962 14.1877Z" fill="#2F2E41"/>
<path d="M226.476 70.7142C226.544 69.9705 224.806 69.5617 224.902 68.9119C224.998 68.2644 226.757 68.4449 228.651 67.3198C228.992 67.1169 231.144 65.8382 230.964 64.8325C230.621 62.9262 222.199 63.6772 221.453 60.8976C221.29 60.2876 221.478 59.4428 221.033 57.5273C220.856 56.7653 220.702 56.3682 220.372 56.2356C219.903 56.0475 219.487 56.5562 218.305 57.293C216.533 58.3981 216.224 58.0302 214.947 59.0113C213.999 59.7397 213.672 60.3249 213.271 60.1949C212.703 60.0109 212.992 58.7201 212.346 58.3866C211.686 58.0462 210.497 58.9323 209.762 59.7083C208.384 61.1646 208.206 62.6553 207.726 64.0099C207.203 65.4821 206.079 67.4819 203.364 69.5011L178.622 86.5521C183.826 83.145 198.368 74.0059 204.025 70.7928C205.658 69.8652 207.371 68.9654 209.204 69.4469C210.968 69.9105 212.63 71.5985 215.464 72.7631C215.795 72.8991 216.721 73.2659 217.152 72.8772C217.509 72.5558 217.202 72.0107 217.531 71.7057C217.971 71.2965 218.88 71.9451 220.39 72.1982C221.455 72.3767 222.278 72.2678 222.986 72.1742C223.199 72.1459 226.386 71.7042 226.476 70.7142Z" fill="#F2F2F2"/>
<path d="M185.701 59.6134C185.356 59.3655 184.654 60.1007 184.363 59.8659C184.073 59.632 184.669 58.8207 184.663 57.5666C184.662 57.3404 184.655 55.9152 184.109 55.7137C183.075 55.3318 181.014 59.682 179.434 59.2461C179.088 59.1505 178.727 58.8142 177.659 58.4801C177.234 58.3472 176.994 58.3079 176.834 58.4318C176.606 58.6076 176.736 58.9586 176.757 59.7512C176.788 60.94 176.518 60.9856 176.631 61.8953C176.715 62.5706 176.908 62.9001 176.728 63.0594C176.474 63.2849 175.924 62.7706 175.574 62.9918C175.216 63.2174 175.308 64.0566 175.477 64.641C175.794 65.7378 176.475 66.2549 177.001 66.8817C177.573 67.5629 178.23 68.692 178.438 70.6068L179.667 87.6702C179.497 84.133 179.207 74.3587 179.262 70.6551C179.278 69.5859 179.331 68.4855 180.096 67.725C180.832 66.9929 182.14 66.6641 183.53 65.6093C183.692 65.4862 184.139 65.1375 184.073 64.8137C184.018 64.546 183.662 64.5391 183.607 64.2899C183.533 63.9557 184.114 63.6968 184.674 63.0285C185.069 62.5572 185.253 62.122 185.411 61.7477C185.459 61.6349 186.161 59.9434 185.701 59.6134Z" fill="#F2F2F2"/>
<path d="M191.457 66.1276L192.59 64.1249L192.786 64.053C193.695 63.7211 194.377 63.2487 194.816 62.6486C194.885 62.5532 194.95 62.4543 195.016 62.3535C195.278 61.9542 195.603 61.4576 196.259 61.0789C196.625 60.8683 197.542 60.431 198.071 60.9495C198.214 61.0874 198.282 61.2481 198.312 61.4003C198.34 61.3886 198.37 61.3771 198.401 61.3645C198.79 61.2164 199.024 61.2015 199.249 61.1871C199.422 61.176 199.6 61.1648 199.933 61.0733C200.08 61.0333 200.2 60.9926 200.302 60.9585C200.61 60.8557 200.995 60.7457 201.345 61.0058C201.709 61.2968 201.681 61.752 201.663 62.0535C201.63 62.5913 201.544 62.9336 201.487 63.1606C201.466 63.2435 201.442 63.337 201.441 63.37C201.433 63.637 202.543 64.1852 202.959 64.3939C203.897 64.8598 204.709 65.2629 204.625 66.0065C204.566 66.5387 204.046 66.923 203.037 67.1781C202.723 67.2574 202.433 67.2806 202.187 67.2853C202.262 67.4595 202.292 67.6656 202.203 67.8899C201.991 68.4205 201.279 68.5912 200.087 68.3993C199.791 68.3524 199.393 68.2878 198.932 68.0623C198.716 67.956 198.536 67.8385 198.384 67.7355C198.319 67.8191 198.232 67.8976 198.11 67.9554C197.753 68.1262 197.336 68.0293 196.879 67.6489C196.369 67.2381 196.006 66.8215 195.686 66.4546C195.405 66.1347 195.163 65.86 194.925 65.7108C194.479 65.44 193.91 65.5423 193.213 65.704L191.457 66.1276Z" fill="#F2F2F2"/>
<path d="M200.4 55.7942L198.175 55.2064L198.056 55.0346C197.504 54.2399 196.874 53.6996 196.183 53.4279C196.073 53.3847 195.961 53.3471 195.846 53.3088C195.394 53.1569 194.831 52.9683 194.298 52.4302C194.002 52.1293 193.346 51.3528 193.713 50.7102C193.81 50.5365 193.949 50.4302 194.088 50.363C194.07 50.338 194.051 50.3125 194.031 50.2851C193.789 49.9468 193.716 49.7246 193.645 49.5106C193.59 49.3461 193.534 49.1763 193.361 48.8772C193.285 48.7459 193.215 48.6394 193.156 48.5497C192.979 48.2778 192.775 47.9335 192.937 47.5288C193.126 47.1024 193.574 47.0142 193.87 46.9556C194.399 46.8508 194.752 46.8474 194.986 46.8452C195.071 46.8446 195.168 46.8435 195.2 46.8365C195.46 46.7763 195.709 45.5637 195.805 45.1078C196.018 44.0825 196.202 43.1953 196.943 43.0875C197.472 43.0099 197.976 43.4153 198.479 44.3267C198.635 44.6105 198.731 44.8852 198.798 45.1219C198.948 45.0052 199.139 44.9232 199.379 44.9528C199.946 45.0234 200.291 45.6684 200.408 46.87C200.438 47.1687 200.476 47.5703 200.375 48.0728C200.327 48.3094 200.259 48.5127 200.198 48.6855C200.295 48.7275 200.393 48.7921 200.48 48.8951C200.736 49.1973 200.748 49.6247 200.496 50.1642C200.228 50.7612 199.917 51.2179 199.644 51.6211C199.405 51.9733 199.201 52.2772 199.117 52.5454C198.968 53.0455 199.211 53.5696 199.545 54.2033L200.4 55.7942Z" fill="#F2F2F2"/>
<path d="M203.386 49.6403L204.519 47.6376L204.715 47.5657C205.624 47.2338 206.306 46.7614 206.744 46.1613C206.814 46.0659 206.879 45.967 206.945 45.8662C207.207 45.4668 207.532 44.9703 208.187 44.5916C208.554 44.381 209.471 43.9436 209.999 44.4622C210.143 44.6001 210.211 44.7608 210.24 44.913C210.269 44.9013 210.299 44.8898 210.33 44.8772C210.719 44.7291 210.952 44.7142 211.177 44.6998C211.35 44.6887 211.529 44.6774 211.862 44.586C212.008 44.546 212.129 44.5053 212.231 44.4712C212.539 44.3684 212.924 44.2584 213.274 44.5185C213.638 44.8095 213.61 45.2647 213.592 45.5662C213.559 46.104 213.473 46.4463 213.415 46.6733C213.394 46.7562 213.371 46.8497 213.369 46.8827C213.362 47.1496 214.472 47.6979 214.888 47.9066C215.826 48.3725 216.637 48.7756 216.554 49.5192C216.495 50.0514 215.975 50.4357 214.966 50.6908C214.651 50.7701 214.361 50.7933 214.115 50.798C214.19 50.9722 214.221 51.1783 214.132 51.4026C213.919 51.9332 213.208 52.1039 212.016 51.912C211.72 51.8651 211.321 51.8005 210.861 51.575C210.644 51.4687 210.465 51.3512 210.313 51.2482C210.248 51.3318 210.16 51.4103 210.039 51.4681C209.682 51.6389 209.265 51.542 208.807 51.1616C208.298 50.7508 207.935 50.3342 207.614 49.9673C207.334 49.6474 207.092 49.3727 206.854 49.2235C206.408 48.9527 205.839 49.055 205.142 49.2167L203.386 49.6403Z" fill="#F2F2F2"/>
<path d="M179.264 86.9706L179.052 86.4464L178.562 86.1708C178.585 86.1235 178.63 86.0091 178.702 85.8311C179.099 84.8562 180.305 81.8886 182.662 77.546C184.308 74.5146 186.165 71.5183 188.185 68.6389C190.207 65.755 191.905 63.6925 193.27 62.0345C194.299 60.7842 195.301 59.6091 196.277 58.4649C198.884 55.4073 201.347 52.5188 203.62 48.9933C204.128 48.2065 205.185 46.5684 205.478 44.2236C205.647 42.8637 205.536 41.467 205.147 40.073L206.236 39.7686C206.666 41.3084 206.788 42.8548 206.599 44.3647C206.275 46.9644 205.124 48.7495 204.57 49.6071C202.257 53.1948 199.77 56.1109 197.137 59.1978C196.165 60.3382 195.168 61.5079 194.142 62.7532C192.791 64.3957 191.107 66.4404 189.111 69.2873C187.115 72.1321 185.281 75.0919 183.656 78.0848C181.328 82.3728 180.141 85.2964 179.75 86.2568C179.542 86.7695 179.498 86.8769 179.264 86.9706Z" fill="#F2F2F2"/>
<path d="M202.414 40.3132C202.377 40.286 202.339 40.2576 202.303 40.2271C201.553 39.6207 201.169 38.6312 201.159 37.2861C201.156 36.6541 201.342 36.0707 201.714 34.9073C201.771 34.7278 202.07 33.8242 202.661 32.7103C203.047 31.9822 203.258 31.7143 203.566 31.5649C203.908 31.3981 204.28 31.3787 204.638 31.4423C204.69 31.3463 204.764 31.2627 204.869 31.1981C205.301 30.9291 205.68 31.2795 205.887 31.4661C205.991 31.5626 206.119 31.6839 206.278 31.7865C206.527 31.949 206.708 31.971 206.981 32.0054C207.243 32.0381 207.569 32.0788 207.965 32.2582C208.75 32.6092 209.181 33.2156 209.324 33.4154C210.076 34.4622 210.007 35.5857 209.927 36.8866C209.91 37.147 209.826 38.0782 209.435 39.1557C209.154 39.933 208.92 40.2005 208.711 40.3733C208.282 40.7291 207.834 40.7871 206.759 40.8509C205.634 40.919 205.07 40.9526 204.639 40.9087C203.635 40.8053 203.005 40.7404 202.414 40.3132Z" fill="#F2F2F2"/>
<path d="M58.6042 178.599C51.3299 180.363 43.7307 181.296 35.9148 181.296C27.4491 181.296 19.2349 180.203 11.4155 178.141C10.563 174.986 9.59521 171.492 8.49814 167.628C-1.34421 132.93 18.5955 108.329 18.5955 108.329L23.5149 104.448L67.7967 110.401C72.9502 135.526 69.5961 154.17 58.6042 178.599Z" fill="#2F2E41"/>
<path d="M51.3907 42.0408L30.6751 39.9692L15.6562 52.9165L20.3173 99.5266L18.2457 108.331L67.4453 110.402L64.8558 97.973L68.4811 52.3986L51.3907 42.0408Z" fill="#016E97"/>
<path d="M58.1235 66.3818H24.9785V118.171H58.1235V66.3818Z" fill="white"/>
<path d="M53.3942 73.1952H44.133C43.8825 73.1952 43.6787 72.9914 43.6787 72.7409C43.6787 72.4904 43.8825 72.2866 44.133 72.2866H53.3942C53.6447 72.2866 53.8485 72.4904 53.8485 72.7409C53.8485 72.9914 53.6447 73.1952 53.3942 73.1952Z" fill="#016E97"/>
<path d="M53.3942 76.6888H44.133C43.8825 76.6888 43.6787 76.485 43.6787 76.2345C43.6787 75.9841 43.8825 75.7803 44.133 75.7803H53.3942C53.6447 75.7803 53.8485 75.9841 53.8485 76.2345C53.8485 76.485 53.6447 76.6888 53.3942 76.6888Z" fill="#016E97"/>
<path d="M53.3942 80.183H44.133C43.8825 80.183 43.6787 79.9792 43.6787 79.7287C43.6787 79.4782 43.8825 79.2744 44.133 79.2744H53.3942C53.6447 79.2744 53.8485 79.4782 53.8485 79.7287C53.8485 79.9792 53.6447 80.183 53.3942 80.183Z" fill="#016E97"/>
<path d="M52.9784 92.4114H30.4582C29.8491 92.4114 29.3535 91.9159 29.3535 91.3068C29.3535 90.6977 29.8491 90.2021 30.4582 90.2021H52.9784C53.5875 90.2021 54.0831 90.6977 54.0831 91.3068C54.0831 91.9159 53.5875 92.4114 52.9784 92.4114Z" fill="#E6E6E6"/>
<path d="M40.3094 112.526C44.7903 113.931 49.1469 112.757 50.0402 109.905C50.9335 107.053 48.0253 103.604 43.5427 102.2C41.7598 101.614 39.8625 101.464 38.0098 101.762L18.9492 96.0518L6.85254 104.706L35.5147 109.727C36.8665 111.03 38.5106 111.99 40.3094 112.526Z" fill="#FFB6B6"/>
<path d="M17.6087 51.8809C17.6087 51.8809 10.6642 55.8492 8.68004 64.2818L0.743426 98.0124C0.743426 98.0124 -0.74469 102.973 5.95183 105.453C12.6484 107.933 20.833 97.2684 20.833 97.2684L17.0951 93.5305L24.3053 62.0497L17.6087 51.8809Z" fill="#016E97"/>
<path d="M35.1432 107.541C30.485 108.133 26.4035 106.21 26.027 103.245C25.6505 100.281 29.1213 97.398 33.7812 96.806C35.6395 96.544 37.5334 96.7309 39.3046 97.3509L59.0734 95.0903L69.4548 105.741L40.3563 105.631C38.7961 106.675 37.0085 107.33 35.1432 107.541Z" fill="#FFB6B6"/>
<path d="M68.1808 51.8477C68.1808 51.8477 74.3169 56.9782 74.7832 65.6286L76.6486 100.23C76.6486 100.23 77.2388 105.375 70.2099 106.636C63.181 107.896 57.0049 95.9557 57.0049 95.9557L61.3432 92.9354L59.7963 60.6765L68.1808 51.8477Z" fill="#016E97"/>
<path d="M40.515 70.0068H28.6035V84.5078H40.515V70.0068Z" fill="#016E97"/>
<path d="M31.7837 80.8305L30.9655 84.4144L30.9448 84.5076H28.6143C28.8939 83.3268 29.2409 81.8663 29.4014 81.1672C29.6034 80.3178 30.1317 79.7689 30.4683 79.4944C30.6392 79.3442 30.7635 79.2769 30.7635 79.2769L31.7837 80.8305Z" fill="#E6E6E6"/>
<path d="M39.6501 84.5078H37.3817L37.1953 80.6185L38.4382 79.3082L38.4745 79.272C38.4745 79.272 39.4119 80.054 39.4792 81.3746C39.5154 82.0323 39.588 83.3529 39.6501 84.5078Z" fill="#E6E6E6"/>
<path d="M160.457 92.2558C139.812 92.2558 123.016 75.4599 123.016 54.8147C123.016 34.1694 139.812 17.3735 160.457 17.3735C181.102 17.3735 197.898 34.1696 197.898 54.8147C197.898 75.4598 181.102 92.2558 160.457 92.2558ZM160.457 18.0028C140.159 18.0028 134.028 44.1172 123.645 54.8147C109.508 69.3801 140.159 91.6266 160.457 91.6266C180.755 91.6266 197.269 75.1127 197.269 54.8147C197.269 34.5166 180.755 18.0028 160.457 18.0028Z" fill="#E6E6E6"/>
<path d="M162.602 63.1201C162.602 63.6998 162.132 64.1697 161.552 64.1697C160.972 64.1697 160.502 63.6998 160.502 63.1201V55.1579L158.097 57.5657C157.686 57.9761 157.021 57.9761 156.611 57.5657C156.2 57.1553 156.2 56.4899 156.611 56.0795L160.809 51.8811C161.218 51.4707 161.883 51.4699 162.293 51.8792L162.295 51.8811L166.493 56.0795C166.904 56.4899 166.904 57.1553 166.493 57.5657C166.083 57.9761 165.418 57.9761 165.007 57.5657L162.602 55.1579V63.1201Z" fill="#016E97"/>
<path d="M174.147 68.3685V48.4263L164.701 38.98H153.155C150.837 38.98 148.957 40.8597 148.957 43.1783V68.3685C148.957 70.6872 150.837 72.5669 153.155 72.5669H169.949C172.268 72.5669 174.147 70.6872 174.147 68.3685ZM164.701 45.2775C164.701 47.0165 166.111 48.4263 167.85 48.4263H172.048V68.3685C172.048 69.5279 171.108 70.4677 169.949 70.4677H153.155C151.996 70.4677 151.056 69.5279 151.056 68.3685V43.1783C151.056 42.019 151.996 41.0792 153.155 41.0792H164.701V45.2775Z" fill="#016E97"/>
<path d="M36.7097 74.6683L32.6582 75.1455L33.1107 78.9875L37.1623 78.5103L36.7097 74.6683Z" fill="#2F2E41"/>
<path d="M34.6385 76.883C35.7371 76.883 36.6276 75.9924 36.6276 74.8939C36.6276 73.7953 35.7371 72.9048 34.6385 72.9048C33.54 72.9048 32.6494 73.7953 32.6494 74.8939C32.6494 75.9924 33.54 76.883 34.6385 76.883Z" fill="#FFB6B6"/>
<path d="M33.3274 71.8089C32.0879 72.153 32.2033 72.6151 31.8278 72.9062C31.1661 73.4192 31.031 74.6913 31.5034 75.4646C31.6297 75.6712 31.8767 75.9443 31.8117 76.2782C31.7619 76.5345 31.5515 76.707 31.5118 76.7384C31.1874 76.9956 31.3857 76.7118 31.2489 76.9111C31.0978 77.131 31.4013 77.3809 31.2777 77.7575C31.1681 78.0915 30.8622 78.1004 30.8463 78.3041C30.819 78.6549 31.6775 79.2527 32.4983 79.1011C33.2292 78.9661 33.703 78.2789 33.8172 77.6709C33.8936 77.2636 33.867 76.5817 33.5129 76.2903C33.4632 76.2494 33.3292 76.1521 33.1923 75.9739C33.0841 75.833 32.9415 75.6474 32.995 75.5014C33.0521 75.3459 33.2718 75.3983 33.3895 75.2425C33.5491 75.0311 33.2951 74.7357 33.2908 74.4042C33.2834 73.8429 33.9905 73.0834 34.8356 73.0891C35.7943 73.0955 36.2619 74.0821 36.3109 74.1902C36.4127 74.4141 36.4377 74.6394 36.4878 75.09C36.5596 75.7367 36.6046 76.142 36.451 76.5817C36.2299 77.214 35.851 77.1931 35.7978 77.6501C35.7147 78.3626 36.5713 78.9675 36.6691 79.0348C37.3938 79.5332 38.4062 79.5895 38.5429 79.3098C38.666 79.0578 37.9614 78.7713 37.8976 78.0402C37.8422 77.4066 38.3305 77.154 38.1686 76.7335C37.9904 76.2706 37.3524 76.4561 37.0138 75.9488C36.6979 75.4752 37.1379 75.14 36.9396 74.1161C36.8977 73.8995 36.7552 73.2805 36.2779 72.7068C36.0676 72.454 35.8537 72.197 35.4971 72.0905C35.0978 71.9713 33.9831 71.6269 33.3274 71.8089Z" fill="#2F2E41"/>
<path d="M32.6944 73.654C32.7966 74.0805 33.4711 74.216 33.7546 74.2373C33.8747 74.2464 34.2805 74.2769 34.6545 74.0605C34.7928 73.9805 34.8391 73.9175 34.9873 73.8797C35.188 73.8285 35.2998 73.894 35.6325 73.9453C36.0024 74.0025 36.1874 74.031 36.2694 73.9411C36.4035 73.7942 36.2389 73.3846 36.031 73.1193C35.6464 72.6289 35.0371 72.5347 34.7529 72.4908C34.4283 72.4407 33.7694 72.3388 33.2244 72.7417C33.1515 72.7955 32.5906 73.2206 32.6944 73.654Z" fill="#2F2E41"/>
<path d="M38.5213 79.3598L38.1121 84.5077H30.9704L30.9652 84.4145L30.468 79.4945L30.4629 79.4375L31.9751 78.1376L32.4412 77.7337L32.7571 77.4644L33.5702 77.5472L35.9111 77.7803H35.9163L36.7035 78.2567L37.8791 78.9714L38.4384 79.308L38.5213 79.3598Z" fill="#E6E6E6"/>
</g>
<defs>
<clipPath id="clip0_2_1602">
<rect width="230.372" height="181.1" fill="white" transform="translate(0.602539 0.196289)"/>
</clipPath>
</defs>
</svg>
