<svg width="188" height="182" viewBox="0 0 188 182" fill="none" xmlns="http://www.w3.org/2000/svg">
<g clip-path="url(#clip0_2_1520)">
<path d="M131.534 180.485C131.339 180.69 131.136 180.893 130.93 181.096H107.502C107.31 180.898 107.12 180.695 106.929 180.485C106.922 180.477 106.914 180.467 106.906 180.459C104.361 177.639 102.759 173.54 101.76 169.218C101.695 168.956 101.639 168.691 101.582 168.424C101.32 167.209 101.107 165.981 100.933 164.764C100.902 164.553 100.871 164.343 100.845 164.132C100.609 162.383 100.45 160.662 100.347 159.047C100.334 158.839 100.321 158.636 100.308 158.433C100.12 155.217 100.119 151.993 100.303 148.776C100.303 148.776 100.334 148.776 100.393 148.779C100.565 148.787 100.979 148.805 101.587 148.841C103.264 148.943 106.429 149.2 110.15 149.806C110.353 149.84 110.559 149.876 110.764 149.912C113.912 150.432 117.017 151.184 120.054 152.161C120.244 152.226 120.431 152.29 120.621 152.354L120.624 152.367L122.953 164.055L123.919 153.651C124.687 153.998 125.434 154.368 126.151 154.763C126.351 154.874 126.546 154.984 126.739 155.097C128.377 156.025 129.864 157.198 131.149 158.574C138.789 167.042 137.153 174.611 131.534 180.485Z" fill="#F2F2F2"/>
<path d="M121.742 165.664L122.148 166.114C126.843 171.368 129.645 176.245 130.508 180.681C130.522 180.746 130.531 180.81 130.545 180.874L130.244 180.931L129.955 180.982C129.074 176.146 125.794 171.147 121.7 166.563C121.57 166.414 121.437 166.263 121.301 166.115C119.55 164.19 117.669 162.343 115.766 160.616C115.62 160.481 115.47 160.346 115.32 160.211C112.797 157.945 110.258 155.894 107.995 154.166C107.835 154.043 107.674 153.922 107.514 153.803C103.67 150.894 100.688 148.965 100.023 148.542C99.9433 148.489 99.898 148.461 99.8877 148.454L100.045 148.203L100.045 148.199L100.205 147.946C100.215 147.953 100.368 148.045 100.643 148.225C101.678 148.892 104.459 150.728 107.918 153.337C108.073 153.456 108.235 153.577 108.395 153.7C110.233 155.1 112.244 156.705 114.274 158.462C114.785 158.902 115.283 159.342 115.769 159.781C115.921 159.915 116.072 160.05 116.218 160.185C118.275 162.051 120.116 163.878 121.742 165.664Z" fill="white"/>
<path d="M110.37 149.308C110.3 149.475 110.226 149.642 110.149 149.806C109.562 151.076 108.812 152.263 107.917 153.338C107.786 153.492 107.652 153.649 107.514 153.803C107.139 154.216 106.74 154.616 106.317 155.002C104.586 156.569 102.536 157.739 100.307 158.433C100.235 158.456 100.166 158.48 100.094 158.5C100.107 158.703 100.119 158.903 100.132 159.111C100.204 159.091 100.274 159.07 100.345 159.047C102.71 158.334 104.887 157.104 106.717 155.446C107.165 155.042 107.591 154.614 107.994 154.165C108.132 154.013 108.266 153.857 108.395 153.7C109.352 152.55 110.148 151.276 110.762 149.912C110.834 149.747 110.906 149.583 110.976 149.416C110.77 149.38 110.567 149.344 110.37 149.308Z" fill="white"/>
<path d="M120.157 151.707C120.127 151.859 120.091 152.01 120.052 152.162C119.356 155.049 117.873 157.686 115.768 159.782C115.622 159.928 115.473 160.072 115.319 160.211C115.275 160.254 115.226 160.301 115.18 160.342C113.265 162.07 110.965 163.316 108.472 163.975C105.978 164.635 103.363 164.689 100.844 164.132C100.785 164.122 100.723 164.107 100.664 164.094C100.695 164.305 100.723 164.518 100.756 164.728C100.816 164.741 100.872 164.754 100.931 164.764C103.514 165.299 106.186 165.217 108.731 164.526C111.277 163.835 113.623 162.553 115.581 160.786C115.642 160.729 115.707 160.676 115.766 160.616C115.92 160.473 116.069 160.329 116.218 160.185C118.372 158.03 119.895 155.326 120.622 152.367C120.661 152.213 120.697 152.059 120.73 151.905C120.54 151.838 120.35 151.771 120.157 151.707Z" fill="white"/>
<path d="M126.15 154.329C126.153 154.473 126.153 154.619 126.15 154.763C126.107 158.822 124.533 162.715 121.743 165.663C121.599 165.817 121.45 165.966 121.301 166.115C121.139 166.272 120.977 166.428 120.811 166.577C118.227 168.906 114.963 170.342 111.501 170.675C108.039 171.007 104.561 170.218 101.582 168.424C101.531 168.397 101.481 168.368 101.433 168.337C101.494 168.609 101.556 168.876 101.623 169.143C101.669 169.169 101.713 169.194 101.759 169.218C104.825 170.927 108.349 171.635 111.837 171.241C115.325 170.848 118.603 169.374 121.211 167.024C121.378 166.873 121.545 166.721 121.702 166.562C121.856 166.416 122.002 166.267 122.149 166.112C124.978 163.128 126.612 159.208 126.738 155.097C126.743 154.958 126.746 154.82 126.746 154.681C126.551 154.56 126.35 154.445 126.15 154.329Z" fill="white"/>
<path d="M74.2282 42.5254H29.0811C28.7054 42.525 28.3452 42.3755 28.0796 42.1099C27.8139 41.8442 27.6645 41.484 27.6641 41.1083V6.82785C27.6645 6.45213 27.8139 6.09192 28.0796 5.82624C28.3452 5.56055 28.7054 5.41109 29.0811 5.41064H84.4969C84.8726 5.41109 85.2328 5.56055 85.4985 5.82624C85.7642 6.09192 85.9136 6.45213 85.914 6.82785V30.8396C85.9105 33.9378 84.6782 36.9081 82.4875 39.0988C80.2967 41.2896 77.3264 42.5219 74.2282 42.5254Z" fill="white"/>
<path d="M74.2277 42.6538H29.0807C28.6709 42.6533 28.2781 42.4903 27.9884 42.2006C27.6986 41.9109 27.5356 41.5181 27.5352 41.1083V6.82785C27.5356 6.41809 27.6986 6.02524 27.9883 5.73548C28.2781 5.44572 28.6709 5.28272 29.0807 5.28223H84.4964C84.9062 5.2827 85.2991 5.44569 85.5888 5.73546C85.8785 6.02522 86.0415 6.41808 86.0419 6.82785V30.8396C86.0384 33.9718 84.7925 36.9748 82.5777 39.1896C80.3629 41.4044 77.36 42.6502 74.2277 42.6538ZM29.0807 5.79589C28.8071 5.79622 28.5448 5.90506 28.3514 6.09852C28.1579 6.29198 28.0491 6.55427 28.0488 6.82785V41.1083C28.0491 41.3819 28.1579 41.6441 28.3514 41.8376C28.5448 42.031 28.8071 42.1398 29.0807 42.1401H74.2277C77.2238 42.1368 80.0962 40.9451 82.2147 38.8266C84.3332 36.708 85.5249 33.8357 85.5283 30.8396V6.82785C85.528 6.55427 85.4192 6.29198 85.2257 6.09852C85.0323 5.90506 84.77 5.79622 84.4964 5.79589H29.0807Z" fill="#CCCCCC"/>
<path d="M73.5421 16.9879H40.0349C39.7273 16.9879 39.4322 16.8657 39.2147 16.6482C38.9972 16.4307 38.875 16.1357 38.875 15.8281C38.875 15.5205 38.9972 15.2254 39.2147 15.0079C39.4322 14.7904 39.7273 14.6682 40.0349 14.6682H73.5421C73.8494 14.6687 74.144 14.7911 74.3611 15.0085C74.5783 15.226 74.7002 15.5208 74.7002 15.8281C74.7002 16.1354 74.5783 16.4301 74.3611 16.6476C74.144 16.8651 73.8494 16.9875 73.5421 16.9879Z" fill="#CCCCCC"/>
<path d="M73.5421 24.9779H40.0349C39.7273 24.9779 39.4322 24.8557 39.2147 24.6382C38.9972 24.4207 38.875 24.1257 38.875 23.8181C38.875 23.5105 38.9972 23.2154 39.2147 22.9979C39.4322 22.7804 39.7273 22.6582 40.0349 22.6582H73.5421C73.8497 22.6582 74.1447 22.7804 74.3622 22.9979C74.5797 23.2154 74.7019 23.5105 74.7019 23.8181C74.7019 24.1257 74.5797 24.4207 74.3622 24.6382C74.1447 24.8557 73.8497 24.9779 73.5421 24.9779Z" fill="#CCCCCC"/>
<path d="M73.5421 33.1967H40.0349C39.7273 33.1967 39.4322 33.0745 39.2147 32.857C38.9972 32.6394 38.875 32.3444 38.875 32.0368C38.875 31.7292 38.9972 31.4342 39.2147 31.2167C39.4322 30.9992 39.7273 30.877 40.0349 30.877H73.5421C73.8497 30.877 74.1447 30.9992 74.3622 31.2167C74.5797 31.4342 74.7019 31.7292 74.7019 32.0368C74.7019 32.3444 74.5797 32.6394 74.3622 32.857C74.1447 33.0745 73.8497 33.1967 73.5421 33.1967Z" fill="#CCCCCC"/>
<path d="M84.0806 13.8527C87.9059 13.8527 91.007 10.7516 91.007 6.92633C91.007 3.10102 87.9059 0 84.0806 0C80.2553 0 77.1543 3.10102 77.1543 6.92633C77.1543 10.7516 80.2553 13.8527 84.0806 13.8527Z" fill="#016E97"/>
<path d="M83.1366 10.5311C83.0169 10.5311 82.899 10.5032 82.792 10.4497C82.685 10.3962 82.592 10.3185 82.5203 10.2228L80.6306 7.70332C80.5699 7.62238 80.5258 7.53027 80.5007 7.43226C80.4756 7.33425 80.47 7.23225 80.4843 7.13209C80.4986 7.03193 80.5325 6.93558 80.5841 6.84852C80.6356 6.76146 80.7038 6.68541 80.7848 6.62471C80.8657 6.564 80.9578 6.51984 81.0558 6.49473C81.1538 6.46962 81.2558 6.46407 81.356 6.47838C81.4561 6.49269 81.5525 6.52659 81.6396 6.57814C81.7266 6.62969 81.8027 6.69789 81.8634 6.77883L83.0996 8.42703L86.2748 3.66438C86.3881 3.49436 86.5644 3.37633 86.7647 3.33625C86.9651 3.29618 87.1732 3.33734 87.3432 3.45069C87.5132 3.56404 87.6313 3.74029 87.6713 3.94066C87.7114 4.14104 87.6703 4.34912 87.5569 4.51915L83.7777 10.188C83.7093 10.2905 83.6174 10.3751 83.5096 10.4348C83.4017 10.4945 83.2812 10.5274 83.158 10.5308C83.1509 10.531 83.1437 10.5311 83.1366 10.5311Z" fill="white"/>
<path d="M57.5643 72.2994H12.4172C9.31904 72.2959 6.34874 71.0636 4.15799 68.8729C1.96724 66.6821 0.734941 63.7118 0.731445 60.6137V36.6018C0.731886 36.226 0.881341 35.8658 1.14702 35.6001C1.41271 35.3345 1.77292 35.185 2.14865 35.1846H57.5643C57.94 35.185 58.3003 35.3345 58.5659 35.6001C58.8316 35.8658 58.9811 36.226 58.9815 36.6018V70.8822C58.9811 71.258 58.8316 71.6182 58.5659 71.8839C58.3003 72.1495 57.94 72.299 57.5643 72.2994Z" fill="white"/>
<path d="M57.5638 72.4281H12.4167C9.28451 72.4245 6.28159 71.1787 4.06677 68.9639C1.85195 66.749 0.6061 63.7461 0.602539 60.6139V36.602C0.603003 36.1922 0.765995 35.7994 1.05575 35.5096C1.34551 35.2199 1.73838 35.0569 2.14816 35.0564H57.5638C57.9736 35.0569 58.3665 35.2199 58.6562 35.5096C58.946 35.7994 59.109 36.1922 59.1094 36.602V70.8825C59.109 71.2923 58.946 71.6851 58.6562 71.9749C58.3665 72.2646 57.9736 72.4276 57.5638 72.4281ZM2.14816 35.5701C1.87457 35.5704 1.61228 35.6792 1.41882 35.8727C1.22536 36.0661 1.11653 36.3284 1.1162 36.602V60.6139C1.11958 63.61 2.31126 66.4823 4.42979 68.6008C6.54832 70.7194 9.42068 71.9111 12.4167 71.9144H57.5638C57.8374 71.9141 58.0997 71.8053 58.2932 71.6118C58.4866 71.4184 58.5955 71.1561 58.5958 70.8825V36.602C58.5955 36.3284 58.4866 36.0661 58.2932 35.8727C58.0997 35.6792 57.8374 35.5704 57.5638 35.5701H2.14816Z" fill="#CCCCCC"/>
<path d="M46.6095 46.7619H13.1022C12.7946 46.7619 12.4996 46.6397 12.2821 46.4222C12.0646 46.2046 11.9424 45.9096 11.9424 45.602C11.9424 45.2944 12.0646 44.9994 12.2821 44.7819C12.4996 44.5643 12.7946 44.4421 13.1022 44.4421H46.6095C46.9171 44.4421 47.2121 44.5643 47.4296 44.7819C47.6471 44.9994 47.7693 45.2944 47.7693 45.602C47.7693 45.9096 47.6471 46.2046 47.4296 46.4222C47.2121 46.6397 46.9171 46.7619 46.6095 46.7619Z" fill="#CCCCCC"/>
<path d="M46.6095 54.7521H13.1022C12.7946 54.7521 12.4996 54.6299 12.2821 54.4124C12.0646 54.1949 11.9424 53.8999 11.9424 53.5922C11.9424 53.2846 12.0646 52.9896 12.2821 52.7721C12.4996 52.5546 12.7946 52.4324 13.1022 52.4324H46.6095C46.9171 52.4324 47.2121 52.5546 47.4296 52.7721C47.6471 52.9896 47.7693 53.2846 47.7693 53.5922C47.7693 53.8999 47.6471 54.1949 47.4296 54.4124C47.2121 54.6299 46.9171 54.7521 46.6095 54.7521Z" fill="#CCCCCC"/>
<path d="M46.6095 62.9706H13.1022C12.7946 62.9706 12.4996 62.8484 12.2821 62.6309C12.0646 62.4134 11.9424 62.1184 11.9424 61.8107C11.9424 61.5031 12.0646 61.2081 12.2821 60.9906C12.4996 60.7731 12.7946 60.6509 13.1022 60.6509H46.6095C46.9171 60.6509 47.2121 60.7731 47.4296 60.9906C47.6471 61.2081 47.7693 61.5031 47.7693 61.8107C47.7693 62.1184 47.6471 62.4134 47.4296 62.6309C47.2121 62.8484 46.9171 62.9706 46.6095 62.9706Z" fill="#CCCCCC"/>
<path d="M57.6265 43.9017C61.4518 43.9017 64.5529 40.8007 64.5529 36.9754C64.5529 33.1501 61.4518 30.0491 57.6265 30.0491C53.8012 30.0491 50.7002 33.1501 50.7002 36.9754C50.7002 40.8007 53.8012 43.9017 57.6265 43.9017Z" fill="#016E97"/>
<path d="M56.6825 40.5804C56.5628 40.5804 56.4449 40.5525 56.3379 40.499C56.2309 40.4455 56.1379 40.3679 56.0661 40.2722L54.1765 37.7526C54.1158 37.6717 54.0717 37.5796 54.0466 37.4816C54.0215 37.3836 54.0159 37.2816 54.0302 37.1814C54.0445 37.0813 54.0784 36.9849 54.13 36.8978C54.1815 36.8108 54.2497 36.7347 54.3307 36.674C54.4116 36.6133 54.5037 36.5692 54.6017 36.544C54.6997 36.5189 54.8017 36.5134 54.9019 36.5277C55.002 36.542 55.0984 36.5759 55.1855 36.6275C55.2725 36.679 55.3486 36.7472 55.4093 36.8281L56.6455 38.4763L59.8207 33.7137C59.934 33.5437 60.1103 33.4256 60.3106 33.3856C60.511 33.3455 60.7191 33.3867 60.8891 33.5C61.0591 33.6134 61.1772 33.7896 61.2172 33.99C61.2573 34.1904 61.2162 34.3984 61.1028 34.5685L57.3236 40.2373C57.2552 40.3398 57.1633 40.4245 57.0554 40.4841C56.9476 40.5438 56.8271 40.5767 56.7039 40.5802C56.6967 40.5803 56.6896 40.5804 56.6825 40.5804Z" fill="white"/>
<path d="M113.816 104.253H50.6448C47.5466 104.249 44.5763 103.017 42.3855 100.826C40.1948 98.6353 38.9625 95.665 38.959 92.5668V57.2491C38.9595 56.7648 39.1522 56.3005 39.4947 55.958C39.8371 55.6156 40.3014 55.4229 40.7858 55.4224H113.816C114.3 55.4229 114.764 55.6156 115.107 55.958C115.449 56.3005 115.642 56.7648 115.642 57.2491V102.426C115.642 102.91 115.449 103.374 115.107 103.717C114.764 104.059 114.3 104.252 113.816 104.253Z" fill="white"/>
<path d="M113.816 104.381H50.6453C47.513 104.377 44.5101 103.132 42.2953 100.917C40.0805 98.702 38.8346 95.6991 38.8311 92.5668V57.2491C38.8316 56.7308 39.0378 56.2338 39.4044 55.8673C39.7709 55.5007 40.2679 55.2945 40.7863 55.2939H113.816C114.335 55.2946 114.832 55.5007 115.198 55.8673C115.565 56.2338 115.771 56.7308 115.771 57.2491V102.426C115.771 102.944 115.565 103.441 115.198 103.808C114.832 104.174 114.335 104.38 113.816 104.381ZM40.7863 55.8076C40.4041 55.8081 40.0377 55.9601 39.7674 56.2303C39.4972 56.5006 39.3452 56.867 39.3447 57.2491V92.5668C39.3481 95.5629 40.5398 98.4352 42.6583 100.554C44.7768 102.672 47.6492 103.864 50.6453 103.867H113.816C114.198 103.867 114.565 103.715 114.835 103.445C115.105 103.174 115.257 102.808 115.258 102.426V57.2491C115.257 56.867 115.105 56.5006 114.835 56.2303C114.565 55.9601 114.198 55.8081 113.816 55.8076H40.7863Z" fill="#CCCCCC"/>
<path d="M99.3806 70.6386H55.2229C55.022 70.6389 54.823 70.5995 54.6373 70.5228C54.4517 70.4461 54.2829 70.3336 54.1408 70.1916C53.9986 70.0497 53.8859 69.8811 53.8089 69.6955C53.732 69.5099 53.6924 69.311 53.6924 69.1101C53.6924 68.9092 53.732 68.7103 53.8089 68.5247C53.8859 68.3391 53.9986 68.1705 54.1408 68.0285C54.2829 67.8866 54.4517 67.774 54.6373 67.6973C54.823 67.6206 55.022 67.5813 55.2229 67.5815H99.3806C99.5815 67.5813 99.7804 67.6206 99.9661 67.6973C100.152 67.774 100.321 67.8866 100.463 68.0285C100.605 68.1705 100.718 68.3391 100.795 68.5247C100.871 68.7103 100.911 68.9092 100.911 69.1101C100.911 69.311 100.871 69.5099 100.795 69.6955C100.718 69.8811 100.605 70.0497 100.463 70.1916C100.321 70.3336 100.152 70.4461 99.9661 70.5228C99.7804 70.5995 99.5815 70.6389 99.3806 70.6386Z" fill="#CCCCCC"/>
<path d="M99.3806 81.1684H55.2229C55.022 81.1687 54.823 81.1293 54.6373 81.0526C54.4517 80.9759 54.2829 80.8634 54.1408 80.7214C53.9986 80.5794 53.8859 80.4108 53.8089 80.2253C53.732 80.0397 53.6924 79.8408 53.6924 79.6399C53.6924 79.439 53.732 79.24 53.8089 79.0545C53.8859 78.8689 53.9986 78.7003 54.1408 78.5583C54.2829 78.4164 54.4517 78.3038 54.6373 78.2271C54.823 78.1504 55.022 78.1111 55.2229 78.1113H99.3806C99.786 78.1113 100.175 78.2724 100.461 78.559C100.748 78.8457 100.909 79.2345 100.909 79.6399C100.909 80.0453 100.748 80.434 100.461 80.7207C100.175 81.0074 99.786 81.1684 99.3806 81.1684Z" fill="#CCCCCC"/>
<path d="M99.3805 91.9994H55.2229C54.8175 91.9994 54.4287 91.8384 54.142 91.5517C53.8554 91.2651 53.6943 90.8763 53.6943 90.4709C53.6943 90.0655 53.8554 89.6767 54.142 89.3901C54.4287 89.1034 54.8175 88.9424 55.2229 88.9424H99.3805C99.5814 88.9421 99.7804 88.9815 99.9661 89.0582C100.152 89.1349 100.32 89.2474 100.463 89.3894C100.605 89.5313 100.718 89.6999 100.795 89.8855C100.871 90.0711 100.911 90.27 100.911 90.4709C100.911 90.6718 100.871 90.8707 100.795 91.0563C100.718 91.2419 100.605 91.4105 100.463 91.5525C100.32 91.6944 100.152 91.807 99.9661 91.8837C99.7804 91.9604 99.5814 91.9997 99.3805 91.9994Z" fill="#CCCCCC"/>
<path d="M114.046 66.955C118.889 66.955 122.814 63.0295 122.814 58.1871C122.814 53.3447 118.889 49.4192 114.046 49.4192C109.204 49.4192 105.278 53.3447 105.278 58.1871C105.278 63.0295 109.204 66.955 114.046 66.955Z" fill="#016E97"/>
<path d="M112.85 62.7507C112.698 62.7507 112.549 62.7154 112.413 62.6477C112.278 62.58 112.16 62.4816 112.069 62.3605L109.677 59.1711C109.601 59.0686 109.545 58.952 109.513 58.828C109.481 58.7039 109.474 58.5748 109.492 58.448C109.51 58.3212 109.553 58.1992 109.619 58.089C109.684 57.9788 109.77 57.8825 109.873 57.8057C109.975 57.7289 110.092 57.6729 110.216 57.6412C110.34 57.6094 110.469 57.6023 110.596 57.6205C110.722 57.6386 110.844 57.6815 110.955 57.7467C111.065 57.812 111.161 57.8983 111.238 58.0008L112.803 60.0872L116.822 54.0583C116.966 53.8434 117.189 53.6943 117.442 53.6438C117.696 53.5933 117.959 53.6454 118.174 53.7888C118.389 53.9322 118.538 54.155 118.589 54.4084C118.64 54.6618 118.588 54.9251 118.445 55.1403L113.661 62.3163C113.575 62.4461 113.458 62.5533 113.322 62.6288C113.185 62.7043 113.033 62.746 112.877 62.7504C112.868 62.7505 112.859 62.7507 112.85 62.7507Z" fill="white"/>
<path d="M136.761 174.096L133.194 175.289L126.895 162.098L132.16 160.337L136.761 174.096Z" fill="#FFB6B6"/>
<path d="M138.827 177.25L127.325 180.326L127.276 180.181C126.876 178.985 126.966 178.475 127.529 177.347C127.804 176.791 128.187 176.296 128.655 175.889C129.123 175.482 129.667 175.172 130.256 174.977L130.256 174.977L131.824 172.68L136.277 172.963L137.281 172.627L138.827 177.25Z" fill="#2F2E41"/>
<path d="M145.574 177.45H141.813L140.023 162.942L145.575 162.942L145.574 177.45Z" fill="#FFB6B6"/>
<path d="M146.533 180.326L134.404 180.326V180.172C134.404 178.911 134.895 178.496 135.787 177.605C136.225 177.165 136.745 176.817 137.318 176.579C137.891 176.342 138.505 176.221 139.125 176.222H139.125L141.341 174.542L145.474 176.223L146.533 176.223L146.533 180.326Z" fill="#2F2E41"/>
<path d="M116.947 61.2068C117.024 61.6009 117.187 61.9732 117.424 62.2975C117.661 62.6218 117.966 62.8902 118.318 63.0838C118.67 63.2774 119.06 63.3915 119.461 63.4181C119.861 63.4447 120.263 63.3831 120.638 63.2376L124.98 67.7711L128.379 65.8042L122.156 59.4881C121.87 58.8754 121.369 58.389 120.749 58.1209C120.128 57.8528 119.43 57.8217 118.788 58.0336C118.146 58.2454 117.604 58.6855 117.265 59.2703C116.925 59.8552 116.812 60.5442 116.947 61.2068Z" fill="#FFB6B6"/>
<path d="M145.05 84.0021L147.008 81.9768L135.687 71.4922L124.293 61.3186L121.138 65.7777L133.077 76.9226L145.05 84.0021Z" fill="#E4E4E4"/>
<path d="M138.095 152.807C138.095 150.262 138.145 148.446 138.186 146.987C138.304 142.718 138.336 141.57 136.702 134.218L136.282 132.33L133.808 139.753C133.018 142.121 132.614 144.601 132.612 147.098L136.427 169.989H128.629L122.918 145.241L122.915 137.671C122.412 137.15 122.131 136.454 122.131 135.73C122.131 135.006 122.412 134.31 122.915 133.79L124.813 122.448L126.733 107.164H147.77C147.77 107.164 151.482 114.859 147.793 122.492L147.792 152.817L145.886 173.784H140.001L138.095 152.807Z" fill="#2F2E41"/>
<path d="M146.482 109.014L126.805 107.374L126.703 107.366L128.273 79.1006C128.366 77.3234 128.989 75.6149 130.063 74.1961C131.138 72.7773 132.613 71.7135 134.298 71.1425V69.1645C134.299 68.6749 134.494 68.2055 134.84 67.8593C135.186 67.5131 135.655 67.3184 136.145 67.3179H139.02C139.363 67.3167 139.7 67.4118 139.992 67.5922C140.284 67.7726 140.519 68.0312 140.672 68.3387L142.077 71.1503L147.393 75.4031C150.019 77.5037 147.906 98.5632 147.792 99.6743L149.078 106.103C149.149 106.457 149.14 106.822 149.053 107.172C148.966 107.521 148.802 107.848 148.574 108.127C148.345 108.406 148.058 108.631 147.732 108.786C147.407 108.941 147.051 109.022 146.69 109.023C146.621 109.022 146.552 109.02 146.482 109.014Z" fill="#E4E4E4"/>
<path d="M125.645 116.477C125.956 116.223 126.208 115.904 126.382 115.542C126.556 115.18 126.649 114.784 126.654 114.383C126.659 113.981 126.576 113.583 126.411 113.217C126.245 112.852 126.002 112.526 125.697 112.265L127.649 106.298L124.313 104.228L121.674 112.692C121.269 113.233 121.076 113.904 121.132 114.578C121.188 115.252 121.489 115.882 121.978 116.348C122.468 116.815 123.111 117.085 123.787 117.109C124.463 117.133 125.124 116.908 125.645 116.477Z" fill="#FFB6B6"/>
<path d="M132.507 75.916L129.798 75.0129L125.886 92.4692L122.282 109.829L127.702 110.627L131.905 92.1682L132.507 75.916Z" fill="#E4E4E4"/>
<path d="M135.465 65.5112C139.034 65.5112 141.928 62.6179 141.928 59.0488C141.928 55.4797 139.034 52.5864 135.465 52.5864C131.896 52.5864 129.003 55.4797 129.003 59.0488C129.003 62.6179 131.896 65.5112 135.465 65.5112Z" fill="#FFB6B6"/>
<path d="M126.771 55.8838C126.831 55.2713 127.006 54.6758 127.288 54.1289C127.59 54.7859 128.533 54.8998 129.178 54.5729C129.823 54.2459 130.255 53.6249 130.716 53.0678C131.932 51.5976 133.605 50.4051 135.5 50.1879C137.396 49.9707 139.485 50.9276 140.202 52.6961C140.523 52.2498 141.209 52.2002 141.694 52.4595C142.162 52.755 142.528 53.1882 142.741 53.6997C143.218 54.6785 143.487 55.7454 143.533 56.8333C143.578 57.9213 143.398 59.0069 143.003 60.0219C142.205 62.0418 140.234 64.7633 138.2 65.5256C136.966 65.9885 135.719 65.3961 134.406 65.5256C134.474 64.0926 134.752 62.3244 134.821 60.8913C134.859 60.1065 134.864 59.2284 134.328 58.6539C134.164 58.4978 133.967 58.3798 133.752 58.3081C133.537 58.2364 133.308 58.2129 133.083 58.2392C132.858 58.2655 132.641 58.341 132.449 58.4602C132.256 58.5795 132.091 58.7397 131.967 58.9295C131.901 58.4839 131.751 58.055 131.524 57.6656C131.408 57.4726 131.24 57.3158 131.039 57.213C130.839 57.1103 130.613 57.0656 130.389 57.0841C129.841 57.174 129.502 57.7368 128.999 57.9725C128.713 58.087 128.399 58.1115 128.099 58.0427C127.799 57.9739 127.527 57.8151 127.32 57.5875C127.118 57.355 126.966 57.0843 126.872 56.7916C126.777 56.4988 126.743 56.1901 126.771 55.8838Z" fill="#2F2E41"/>
<path opacity="0.1" d="M136.302 92.0898L128.713 107.269H134.405L136.302 92.0898Z" fill="black"/>
<path d="M187.17 180.79C187.17 180.831 187.162 180.87 187.147 180.908C187.132 180.945 187.109 180.978 187.081 181.007C187.052 181.035 187.019 181.058 186.981 181.073C186.944 181.088 186.904 181.096 186.864 181.096H41.9375C41.8564 181.096 41.7787 181.064 41.7214 181.007C41.664 180.949 41.6318 180.872 41.6318 180.79C41.6318 180.709 41.664 180.632 41.7214 180.574C41.7787 180.517 41.8564 180.485 41.9375 180.485H186.864C186.904 180.485 186.944 180.493 186.981 180.508C187.019 180.523 187.052 180.546 187.081 180.574C187.109 180.603 187.132 180.636 187.147 180.673C187.162 180.711 187.17 180.75 187.17 180.79Z" fill="#CACACA"/>
</g>
<defs>
<clipPath id="clip0_2_1520">
<rect width="186.567" height="181.096" fill="white" transform="translate(0.602539)"/>
</clipPath>
</defs>
</svg>
